<?xml version="1.0" standalone="no"?>
<!DOCTYPE svg PUBLIC "-//W3C//DTD SVG 1.1//EN" "http://www.w3.org/Graphics/SVG/1.1/DTD/svg11.dtd" >
<svg xmlns="http://www.w3.org/2000/svg" xmlns:xlink="http://www.w3.org/1999/xlink" version="1.1">
<metadata></metadata>
<defs>
<font id="bright_larch_personal_use_oRg" horiz-adv-x="2605" >
<font-face units-per-em="2048" ascent="1434" descent="-614" />
<missing-glyph horiz-adv-x="524" />
<glyph unicode="&#xfb01;" horiz-adv-x="768" d="M-346 -336l510 1036h-127l45 80h121l47 94q37 78 66.5 135.5t59.5 98.5t63.5 69.5t76.5 47.5q61 27 138 24.5t132 -37.5q53 -35 68.5 -76.5t-2.5 -82.5q-16 -41 -61.5 -56.5t-83.5 2.5q-41 23 -51.5 61t10.5 75q16 27 39 39q-41 18 -98.5 0.5t-100.5 -84.5 q-29 -43 -52.5 -99.5t-64.5 -138.5l-35 -72h226q35 0 76.5 8.5t82.5 26.5l-254 -512q-94 -207 -4 -207q59 0 134 70t163 221l49 -29q-49 -76 -96 -141t-96 -114.5t-105.5 -77t-126.5 -27.5q-49 0 -88.5 43t-27.5 129q8 66 50 148.5t89 179.5l100 202h-211l-487 -1005 q-29 2 -79 -6t-95 -25z" />
<glyph unicode="&#xfb02;" horiz-adv-x="765" d="M-346 -336l567 1155h-180l45 80h172q47 129 105.5 207t146.5 117q29 12 64.5 18t72.5 5t71 -10t58 -26q35 -2 84 10.5t90 28.5l-465 -946q-43 -88 -49 -142.5t31 -64.5q25 -8 59.5 8.5t75.5 53.5t86 94t90 135l49 -29q-55 -86 -106 -152.5t-100.5 -112.5t-98.5 -70.5 t-104 -24.5q-31 0 -58.5 11t-46 34t-26.5 54.5t0 72.5q10 66 51 148.5t88 179.5l330 669q-4 4 -8.5 6.5t-8.5 4.5q-53 23 -120.5 3t-126.5 -108q-27 -37 -45.5 -85t-34.5 -89h163l-43 -80h-159l-545 -1124q-29 2 -79 -6t-95 -25z" />
<glyph horiz-adv-x="0" />
<glyph horiz-adv-x="0" />
<glyph unicode="&#xd;" horiz-adv-x="1024" />
<glyph unicode=" "  horiz-adv-x="524" />
<glyph unicode="&#x09;" horiz-adv-x="524" />
<glyph unicode="&#xa0;" horiz-adv-x="524" />
<glyph unicode="!" horiz-adv-x="595" d="M38 70.5q-11 40.5 11 81.5q23 39 67 52t79 -5q41 -23 52 -61t-9 -75q-23 -41 -65 -56t-83 3q-41 20 -52 60.5zM262 520.5q4 65.5 32 148.5t74 173t102 171t118.5 142.5t122.5 85.5q37 14 65.5 6t41.5 -27.5t8.5 -46t-31.5 -49.5q-90 -70 -168 -154.5t-141.5 -177 t-113.5 -187.5t-85 -181q-29 31 -25 96.5z" />
<glyph unicode="&#x22;" horiz-adv-x="675" d="M174 694q31 31 57.5 78t51 100.5t48 107.5t48.5 97q18 33 41.5 47.5t44 8t31 -32t0.5 -70.5q-16 -72 -53 -135.5t-82.5 -109.5t-94.5 -71.5t-92 -19.5zM422 694q31 31 57.5 78t51 100.5t48 107.5t48.5 97q18 33 41.5 48.5t43 10t30 -32t1.5 -73.5q-12 -66 -49 -129 t-85 -112.5t-98 -77t-89 -17.5z" />
<glyph unicode="#" horiz-adv-x="958" d="M76 362l47 101h94l127 235h-145l47 101h151l82 151h121l-82 -151h193l82 151h120l-82 -151h95l-39 -101h-109l-125 -235h150l-39 -101h-164l-84 -159h-123l84 159h-190l-84 -159h-123l84 159h-88zM340 463h190l127 235h-192z" />
<glyph unicode="$" horiz-adv-x="1069" d="M49 419.5q-2 67.5 17 133.5q29 104 87 171t115 83q39 12 83 5t73 -30q-70 -35 -126 -99.5t-89 -162.5q-18 -59 -21.5 -117.5t11 -111.5t47.5 -98.5t86 -73.5l4 -4l309 530q-76 115 -85 205t44 184q51 100 150.5 138t210.5 16l71 123h86l-84 -146q2 -2 4 -2t7 -2 q63 -27 100 -69.5t52.5 -92t10 -99.5t-27.5 -93q-25 -45 -58.5 -68.5t-67.5 -26.5t-63.5 13t-44.5 47q41 23 72 50.5t51 70.5q25 53 9.5 116.5t-72.5 98.5q-4 0 -4 2l-224 -381q8 -10 17.5 -21.5t19.5 -23.5q59 -74 86 -148.5t23 -145.5t-36 -137.5t-89 -125.5 q-86 -92 -202 -112.5t-228 12.5l-135 -232h-88l151 258l-47 25q-70 41 -114 95t-66.5 116.5t-24.5 130zM408 88q88 -27 177 -7.5t144 97.5q72 102 57.5 197.5t-92.5 202.5zM697 915.5q3 -49.5 40 -114.5l195 332q-59 8 -121.5 -18.5t-91.5 -96.5q-25 -53 -22 -102.5z" />
<glyph unicode="%" horiz-adv-x="1069" d="M-88 2l1186 1167h102l-1182 -1167h-106zM197.5 790.5q-7.5 57.5 15.5 123t72 123t124 95t171 37.5q80 0 117.5 -37.5t42.5 -95t-22.5 -123t-77.5 -123t-123 -95.5t-159 -38q-76 0 -114.5 38t-46 95.5zM321.5 812q-6.5 -46 5 -76.5t46.5 -30.5q37 0 75.5 30.5t72.5 76.5 t58.5 100.5t33 100.5t-2 76.5t-45.5 30.5q-45 0 -87 -30.5t-74.5 -76.5t-54 -100.5t-28 -100.5zM394 133q-7 57 15.5 123t71.5 123t124 95t171 38q80 0 118 -38t43 -95t-22.5 -123t-78 -123t-123 -95t-158.5 -38q-74 0 -114 38t-47 95zM518 155q-6 -46 5 -77t46 -31 q37 0 76 31t73 77t58.5 100t32.5 100t-2 77t-45 31q-45 0 -87 -31t-75 -77t-54.5 -100t-27.5 -100z" />
<glyph unicode="&#x26;" horiz-adv-x="1122" d="M55 278.5q-6 75.5 31 159.5q25 53 71 101.5t107.5 84t135 53t153.5 9.5q-74 29 -98.5 98.5t-3.5 141.5q12 43 44.5 84t83 71.5t115 49t140.5 18.5q82 0 138 -24.5t89 -61.5t42 -84t-1 -94q-16 -74 -70.5 -113t-144.5 -33q39 49 58.5 99.5t23.5 95.5q6 70 -31 117t-123 47 q-45 0 -84 -14.5t-68.5 -39t-48 -57.5t-22.5 -67q-10 -80 23.5 -137.5t111.5 -69.5l18 -43q-193 0 -322.5 -66.5t-197.5 -214.5q-27 -59 -31 -116.5t13.5 -104.5t57.5 -80t100 -39q68 -8 124 11.5t99 54.5t69.5 80t36.5 88q10 49 4 90t-23.5 70.5t-41 47t-45.5 23.5l26 64 h451l-39 -101l-344 37q102 -29 143 -107.5t17 -168.5q-16 -57 -57.5 -107.5t-104 -85.5t-146 -51.5t-184.5 -3.5q-82 10 -147.5 50t-103.5 101.5t-44 137z" />
<glyph unicode="'" horiz-adv-x="208" d="M90 694q31 31 57.5 78t51 100.5t48 107.5t48.5 97q18 33 41.5 47.5t44 8t31 -32t0.5 -70.5q-16 -72 -53 -135.5t-82.5 -109.5t-94.5 -71.5t-92 -19.5z" />
<glyph unicode="(" horiz-adv-x="741" d="M185 223.5q-3 110.5 30 227.5q33 119 102.5 241.5t178 236t255 212t330.5 170.5l17 -43q-125 -59 -235.5 -143.5t-202 -184.5t-158 -215t-103.5 -233q-33 -92 -47 -190.5t-8 -191t35 -169t82 -123.5l-39 -29q-68 20 -121 81.5t-83 152t-33 201z" />
<glyph unicode=")" horiz-adv-x="741" d="M-268 -168q125 59 235.5 143t200.5 184.5t157.5 214t104.5 234.5q33 92 47.5 190.5t8 190.5t-35 169t-81.5 124l39 29q68 -20 121 -82t82.5 -152t32.5 -200.5t-30 -227.5q-33 -121 -102.5 -243.5t-178 -236.5t-255 -212t-330.5 -168z" />
<glyph unicode="*" horiz-adv-x="858" d="M219 829l23 48h278q-18 18 -28.5 47.5t-17.5 62.5t-14 64.5t-16 50.5q47 10 84 5t47 -24q10 -16 13.5 -41.5t3.5 -54.5t-1 -57.5t1 -52.5q18 12 34.5 38.5t34 56t35 57.5t35.5 46q25 23 77 30t97 -3q-23 -29 -50.5 -62.5t-58 -65.5t-62.5 -57.5t-60 -39.5h254l-19 -48 h-266q18 -16 30.5 -45.5t22 -61.5t16.5 -61.5t19 -48.5q-53 -4 -89 6.5t-48 32.5q-8 14 -13.5 38t-8.5 49.5t-4 49t-1 41.5q-23 -12 -44 -34.5t-40.5 -47t-37 -48t-33.5 -37.5q-27 -25 -68 -39.5t-113 -10.5q20 27 48 58.5t61 61.5t67.5 55.5t71.5 41.5h-260z" />
<glyph unicode="+" horiz-adv-x="851" d="M199 565l47 101h217l96 223h109l-99 -223h213l-39 -101h-219l-94 -217h-104l94 217h-221z" />
<glyph unicode="," horiz-adv-x="462" d="M-70 -100q29 10 59.5 32.5t43.5 57.5q8 20 9 45.5t3 51.5t9 50.5t30 44.5q25 23 54.5 26t52 -13.5t30.5 -50t-10 -83.5q-18 -49 -52 -83.5t-73 -55t-80 -27t-76 4.5z" />
<glyph unicode="-" horiz-adv-x="686" d="M115 360l47 101h401l-39 -101h-409z" />
<glyph unicode="." horiz-adv-x="466" d="M38 70.5q-11 40.5 11 81.5q23 39 67 52t79 -5q41 -23 52 -61t-9 -75q-23 -41 -65 -56t-83 3q-41 20 -52 60.5z" />
<glyph unicode="/" horiz-adv-x="761" d="M-246 -205l1387 1516h100l-1384 -1516h-103z" />
<glyph unicode="0" d="M109 541h47q23 35 53.5 69.5t71.5 55.5q12 8 32.5 10t24.5 -21q4 -10 -1 -21t-9 -22q-10 -20 -19.5 -39.5t-19.5 -37.5q-6 -14 -18.5 -36t-6.5 -38q-16 -4 -20 4t-1 20.5t9 25.5t10 19l-86 -4q-10 -16 -18 -34.5t-11 -38.5q-16 -4 -19 5t0 23.5t9 27.5t10 17l-28 -2z M135 793v311h70q53 0 65 -53q8 -29 7 -66t-17 -65q-14 -20 -35.5 -22.5t-44.5 -2.5v-102h-45zM152 -481h2314v-45h-2314v45zM152 1374v45h2314v-45h-2314zM154 293h61q10 -104 17.5 -207.5t11.5 -208.5q6 78 11 158t15 158l13 100h79q10 -86 18.5 -170t14.5 -170l6 -76 q6 84 9.5 165t11.5 161l10 90h84q10 -104 17.5 -207.5t13.5 -208.5q6 78 11 158t13 158q4 25 6.5 49t6.5 51h82q10 -86 17 -170t15 -170l4 -76q6 84 10.5 165t12.5 161l8 90h86q10 -104 17.5 -207.5t11.5 -208.5q6 78 11 158t15 158l13 100h80q10 -86 18 -170t14 -170l7 -76 q6 84 9 165t11 161q4 23 5 45t3 45h62l-41 -500h-94q-10 98 -19.5 197.5t-13.5 199.5q-4 -74 -10.5 -148.5t-14.5 -147.5l-8 -101h-96l-23 281l-24 -281h-93q-10 98 -20 197.5t-14 199.5q-4 -74 -9.5 -148.5t-13.5 -147.5l-10 -101h-94l-25 287l-22 -287h-95 q-10 98 -19 196.5t-13 198.5q-2 -76 -8.5 -148.5t-14.5 -145.5l-12 -101h-92zM180 932q10 0 19.5 -1t15.5 7q10 10 11 28.5t1 32.5t-1 33t-11 29q-6 10 -15.5 9t-19.5 -1v-137zM182 541h86l27 55q2 6 8 16.5t10 21.5t5 19.5t-7 10.5q-16 4 -37.5 -14.5t-31.5 -28.5 q-33 -37 -60 -80zM293 793v311h113v-41h-68v-88h55v-45h-55v-94h68v-43h-113zM305 500q4 23 16.5 45t22.5 43q10 0 27 8q-6 -16 -12.5 -30.5t-14.5 -28.5q-2 -6 -8 -15.5t-10 -19.5t-4 -18.5t8 -10.5q18 -4 34.5 16.5t22.5 30.5q10 16 16.5 35.5t6.5 38.5q18 4 20 -10.5 t-2 -26.5q-8 -33 -37 -63q16 -4 30.5 6t22.5 24l15 23q10 16 24.5 28.5t32.5 16.5q16 4 32.5 -3t35.5 -1l-37 -70q-4 -6 -11.5 -20.5t1.5 -18.5q10 -8 22 4.5t23 26.5q4 10 10 20.5t12 20.5l17 37q16 0 30 8l-39 -78q-4 -6 -10 -19.5t2 -19.5q8 -8 20.5 3.5t20.5 25.5 q8 18 19.5 38.5t19.5 39.5q10 18 18.5 36.5t18.5 36.5q16 -4 29 7l-56 -113q-4 -10 -9 -20.5t-9 -20.5t-8 -25.5t12 -7.5q10 4 19.5 14.5t17.5 22.5q6 16 16 31q10 16 24.5 28.5t33.5 16.5q18 4 34.5 -3t34.5 -1q-10 -16 -18 -33.5t-19 -36.5q-4 -6 -10 -20.5t0 -18.5 q6 -6 13.5 -2t14.5 11.5t13 16.5l10 15l2 4l66 135q16 0 26 7q-10 -25 -20 -48.5t-27 -46.5q14 14 34 23.5t34 -12.5q12 -20 1 -47t-26 -43q12 -2 22.5 4t20.5 14q8 18 18.5 37.5t20.5 38.5l37 73q14 -4 27 7q-14 -29 -26.5 -56.5t-29.5 -56.5q-4 -10 -9 -20.5t-11 -20.5 q-2 -4 -4 -11t-2 -13.5t2 -9.5t12 1t21.5 16.5t17.5 24.5q6 27 25 45q6 6 19 15.5t28.5 13.5t28 1t16.5 -22q2 -16 -7.5 -30.5t-24.5 -23.5t-33.5 -14t-30.5 -5q-2 -12 6 -19.5t20 -7.5q27 0 49.5 14.5t34.5 36.5l8 -4q-16 -29 -46.5 -46t-63.5 -11t-33 37 q-8 -10 -16.5 -19.5t-18.5 -13.5q-14 -8 -29.5 -3t-11.5 25v5q-4 -4 -8 -5q-8 -6 -25 -6h-14q-4 0 -6 -4t-6 -4q-20 -12 -44 -10t-36 22q-14 -18 -35 -24q-18 -4 -25.5 6t-0.5 27q-10 -14 -28 -27.5t-36 -1.5q-14 8 -14 29q-12 -18 -29 -29q-16 -8 -30.5 -3t-12.5 21 q-14 -14 -23 -18q-16 -8 -31.5 -3t-11.5 23q-8 -8 -16 -14t-18 -10q-18 -4 -25.5 6t0.5 27h-2q-10 -14 -27.5 -27.5t-35.5 -1.5q-10 4 -12.5 13t-0.5 20q-10 -10 -20 -13q-8 -4 -27 -4q-10 0 -12 -2t-8 -6q-10 -6 -23.5 -10t-24 -2t-16.5 11t-2 26zM418 793v311h47h28.5 t26.5 -4q20 -10 26.5 -34t6.5 -42q2 -23 -2 -56.5t-29 -43.5l37 -131h-49l-27 125q-6 0 -11 1t-11 1v-127h-43zM460 484.5q1 -9.5 13 -9.5q14 0 26.5 12.5t21.5 28.5t16.5 33.5t13.5 30.5q-20 10 -41 -6.5t-31 -32.5q-2 -4 -8 -14.5t-9 -21.5t-2 -20.5zM461 950q8 0 16 -1 t15 3q12 10 14 26.5t2 31.5q0 12 -2 29.5t-14 25.5q-6 4 -13.5 4h-17.5v-119zM569 1018q-4 23 4.5 46t30.5 36q18 10 44 8t42 -18q18 -18 18.5 -40t0.5 -44q-12 0 -23.5 1t-21.5 1q0 12 1 25.5t-10 23.5q-18 16 -29.5 1.5t-13.5 -30.5q0 -23 15.5 -37t31.5 -26t28.5 -27.5 t17.5 -34.5q4 -23 0.5 -44t-14.5 -37.5t-28.5 -26t-41.5 -4.5q-41 8 -46.5 39.5t-3.5 64.5h41q0 -10 -1 -20.5t1 -20.5q4 -12 15.5 -20.5t23.5 2.5q10 8 12.5 25.5t-1.5 29.5q-4 16 -14.5 27.5t-24.5 19.5q-47 31 -54 80zM637 641q2 8 9 11t14.5 1t11.5 -8t-2 -14 q-6 -14 -21.5 -10t-11.5 20zM725 980q0 42 12 81q6 16 16.5 29.5t30.5 15.5q43 10 64 -27q16 -35 17 -76.5t1 -78.5q0 -18 -2 -42t-9 -43.5t-20 -33.5t-38 -14q-23 0 -36 10t-20.5 26.5t-9.5 36t-4 35.5q-2 39 -2 81zM736.5 484.5q1.5 -9.5 13.5 -9.5q14 0 26 12.5 t21.5 28.5t16.5 33.5t13 30.5q-23 10 -42 -6.5t-29 -32.5q-2 -4 -8.5 -14.5t-9.5 -21.5t-1.5 -20.5zM769 920.5q-1 -19.5 1 -40t8 -36t19 -15.5q12 0 17 15.5t7 36t1 40t-1 27.5t1 28.5t-1 41t-7 36t-17 15.5t-18.5 -15.5t-8.5 -36t-1 -41t1 -28.5t-1 -27.5zM870 483 q23 -16 43.5 0.5t30.5 32.5q2 4 8 14.5t8.5 21.5t0 19.5t-14.5 8.5q-14 0 -25.5 -10.5t-20.5 -26t-16 -32.5t-14 -28zM885 793v311h39q16 -53 31.5 -107.5t27.5 -109.5q-4 53 -5 108.5t-1 108.5h41v-311h-43q-14 53 -29.5 106t-27.5 109q4 -37 4 -73t4 -73v-69h-41z M1030 793l37 311h72l39 -311h-43l-11 75h-43l-8 -75h-43zM1071 -166q0 20 12.5 30.5t27.5 10.5t27.5 -10.5t12.5 -30.5t-12.5 -30.5t-27.5 -10.5t-27.5 10.5t-12.5 30.5zM1085 911h35q-4 37 -9 74t-7 74q-2 -23 -5 -47t-7 -51zM1092 508q23 0 50 19.5t27 43.5q0 16 -11 14.5 t-21 -7.5q-10 -8 -18.5 -19.5t-14.5 -21.5t-8 -16.5t-4 -12.5zM1174 -207l59 500h117l61 -500h-72l-14 119h-68l-16 -119h-67zM1188 793v311h45v-273h65v-38h-110zM1262 -18h59q-6 59 -16.5 119.5t-14.5 121.5q-2 -41 -7 -80t-9 -80q-4 -20 -6 -40.5t-6 -40.5zM1274 489 q0 16 9 31t15 31q12 18 19 37q20 0 31 8l-39 -78q-4 -6 -10.5 -19.5t-0.5 -19.5t14.5 -1t16.5 14.5t14.5 18.5t8.5 13l30 66q12 -2 29 6q-6 -12 -11 -21.5t-14 -19.5v-2q12 14 30 27.5t36 15.5q25 0 24 -18.5t-10 -34.5q-4 -8 -19 -29.5t-9 -32.5q4 -8 13 -3t17.5 14.5 t15.5 18.5t9 13l8 -4q-10 -14 -20.5 -28.5t-26.5 -24.5q-14 -8 -28.5 -4t-12.5 24q2 16 13.5 32t17.5 30q2 2 4 8t3 11t-1 9.5t-10 2.5q-23 -4 -40.5 -29t-27.5 -41l-24 -49h-25l8 18q-4 -4 -8 -7t-8 -5q-16 -8 -30.5 -3t-10.5 25zM1331 641q2 8 10.5 11t15.5 1t10 -8 t-1 -14q-8 -14 -23.5 -10t-11.5 20zM1365 905.5q1 28.5 1 52.5v146h45v-217q0 -10 -1 -20.5t3 -20.5t14.5 -15.5t20.5 5.5q10 10 11 27.5t1 29.5q2 25 1 49.5t-1 48.5v113h45v-146q0 -25 1 -53t-4 -54t-19 -43t-47 -17q-31 0 -46.5 17t-20.5 43t-4 54.5zM1444 -207v500h74 q23 0 45 1t43 -9q35 -16 45 -56.5t10 -74.5v-39t-5 -45.5t-15.5 -41t-28.5 -24.5l61 -211h-80l-43 199h-34v-199h-72zM1516 43q12 0 25 -1t24 7q18 16 22 41t4 45q0 23 -4 49.5t-20 42.5q-10 10 -24.5 9.5t-26.5 -0.5v-193zM1522 408l92 188h-31l8 12h29q6 16 16.5 32.5 t30.5 21.5q12 4 31 -3q4 -2 11 -9t1 -13q-10 -6 -14 1t-2 15q-23 8 -34 -11t-15 -34h28l-6 -12h-29l-90 -184q-10 0 -26 -4zM1524 895h45q0 -10 -2 -20.5t2 -20.5q4 -12 14 -20.5t23 2.5q12 8 14 25.5t-2 29.5q-4 16 -14.5 27.5t-24.5 19.5q-47 27 -55 80q-2 23 5 46t30 36 q20 10 44.5 8t41.5 -18q18 -18 17 -40t-1 -44q-10 0 -20.5 1t-20.5 1q0 12 1 25.5t-9 23.5q-18 16 -29.5 1.5t-13.5 -30.5q0 -23 14 -37t31 -26q35 -25 47 -62q4 -23 1 -44t-14.5 -37.5t-30 -26t-42.5 -4.5q-41 8 -46 39.5t-5 64.5zM1627 488.5q3 15.5 9 27.5l35 72 q12 0 29 8l-27 -55q-4 -8 -16 -30t-4 -30q12 -10 29.5 5.5t23.5 23.5t10 15t10 18l25 49q8 0 25 4q-8 -18 -17.5 -37.5t-19.5 -38.5q-4 -8 -10.5 -20.5t0.5 -20.5q8 -10 20 2.5t23 26.5q8 18 19 38.5t21 39.5q8 18 16.5 36.5t18.5 36.5q14 -4 29 7l-55 -113l-21 -41 q-4 -10 -7 -25.5t13 -7.5q16 6 31 27q8 20 19.5 40.5t21.5 39.5q8 18 16.5 36.5t18.5 36.5q14 -4 29 7l-56 -113l-20 -41q-2 -4 -4 -11t-3 -13.5t1 -9.5t12 1q14 4 24.5 18.5t16.5 26.5l8 -4q-10 -16 -20.5 -30.5t-26.5 -22.5q-14 -8 -28.5 -3t-12.5 21q-12 -12 -25 -18 q-14 -8 -28.5 -3t-12.5 23q-10 -10 -19 -18t-22 -8q-18 0 -20 12t4 25q-12 -14 -34 -28.5t-38 -4.5q-14 8 -11 23.5zM1681 793v311h111v-41h-66v-88h56v-45h-56v-94h66v-43h-111zM1704 -207v500h72v-500h-72zM1821 -166q0 20 12 30.5t27.5 10.5t28 -10.5t12.5 -30.5 t-12.5 -30.5t-28 -10.5t-27.5 10.5t-12 30.5zM1860 980q0 42 12 81q6 16 17.5 29.5t29.5 15.5q41 10 63 -27q18 -35 18.5 -76.5t0.5 -78.5q0 -18 -1 -42t-8 -43.5t-21.5 -33.5t-39.5 -14q-23 0 -36 10t-19 26.5t-9 36t-3 35.5q-4 39 -4 81zM1904 920.5q-1 -19.5 1 -40t8 -36 t18 -15.5t18.5 15.5t8.5 36t1 40t-1 27.5t1 28.5t-1 41t-8.5 36t-18.5 15.5t-18 -15.5t-8 -36t-1 -41t1 -28.5t-1 -27.5zM1939 408l95 188h-31l6 12h31q6 16 16 32.5t31 21.5q12 4 31 -3q4 -2 11 -9t-1 -13q-10 -6 -13.5 1t-0.5 15q-23 8 -34.5 -11t-15.5 -34h29l-6 -12h-29 l-90 -184q-8 0 -29 -4zM1946 -207v500h65q25 -88 50.5 -174t45.5 -176q-8 88 -9 175t-1 175h66v-500h-68q-25 86 -50.5 171t-43.5 171q4 -59 6 -115.5t6 -115.5v-111h-67zM2019 793v311h39q16 -53 32.5 -107.5t29.5 -109.5q-4 53 -5 108.5t-1 108.5h40v-311h-43 q-16 53 -31.5 106t-27.5 109q4 -37 5 -73t3 -73v-69h-41zM2055 505.5q3 22.5 11 41.5q10 18 29 33.5t43 15.5q20 0 29.5 -12.5t9.5 -28.5t-7 -33.5t-16 -29.5q27 0 41 22l37 76q10 -2 27 6q-6 -12 -11 -21.5t-14 -19.5v-2q12 14 29.5 27.5t36.5 15.5q25 0 23.5 -18.5 t-7.5 -34.5q-6 -8 -20.5 -29.5t-7.5 -32.5q4 -6 11 -4t14 10.5t14.5 16.5t11.5 14l39 78h-17l6 12h17l16 35q16 0 29 6l-21 -41h31l-8 -12h-29l-37 -76q-4 -8 -10 -20.5t-2 -20.5q6 -6 14.5 -1t17.5 14.5t15 18.5t8 13l9 -4q-10 -16 -24.5 -34.5t-37.5 -22.5q-18 -4 -24.5 4 t-1.5 20q-6 -6 -12.5 -11t-12.5 -9q-14 -8 -29.5 -4t-13.5 24q2 16 13.5 32t17.5 30q2 6 7 19.5t-9 11.5q-23 -4 -41.5 -29t-28.5 -41q-8 -10 -13 -23.5t-12 -25.5h-24l14 33l-2 -2q-8 -4 -20 -9h-19q-10 -12 -21.5 -16t-17.5 -4q-20 -8 -37 6q-16 14 -13 36.5zM2079 488.5 q0 -17.5 16 -17.5q12 0 26.5 18.5t23.5 40t9 39t-14 17.5q-16 0 -30.5 -18.5t-22.5 -40t-8 -39zM2171 793v311h45v-273h65v-38h-110zM2208 105.5q2 54.5 16 103.5q4 23 14.5 43t30.5 31q20 12 45 14t47 -6q25 -10 39.5 -30.5t20.5 -46.5t8 -52.5t2 -48.5l-70 -7q2 23 0 48.5 t-10 48.5q-6 16 -21.5 26.5t-29.5 -10.5q-12 -16 -14 -41.5t-5 -48.5q-2 -25 -2 -48.5v-45.5v-47.5t5 -46.5q0 -18 4 -45t22 -37q20 -12 32.5 3t16.5 40.5t5 51.5t1 36h-51v57h119v-252h-53l-2 68q-4 -23 -15.5 -45.5t-33.5 -28.5q-23 -6 -45.5 4t-36.5 27q-29 35 -33 86 t-4 92q-4 53 -2 107.5zM2286 1104h43q8 -39 15 -79t11 -81q2 41 10.5 80t16.5 80h43q-10 -43 -20.5 -87t-20.5 -87q-10 -33 -7 -68t3 -69h-47q0 35 1 69.5t-7 67.5q-10 43 -20.5 87t-20.5 87zM2415 485q8 16 23 9t7 -21q-8 -16 -23.5 -9t-6.5 21zM2435 819q0 12 7 19.5 t16.5 7.5t17.5 -7.5t8 -19.5t-8 -19t-17.5 -7t-16.5 7t-7 19zM2437 1104h45q0 -57 -2 -114.5t-6 -117.5h-29q-4 59 -6 116t-2 116zM2456 566q-2 5 2 14q8 14 22 7.5t6 -20.5q-4 -8 -10 -10t-12 1t-8 8z" />
<glyph unicode="1" d="M109 541h47q23 35 53.5 69.5t71.5 55.5q12 8 32.5 10t24.5 -21q4 -10 -1 -21t-9 -22q-10 -20 -19.5 -39.5t-19.5 -37.5q-6 -14 -18.5 -36t-6.5 -38q-16 -4 -20 4t-1 20.5t9 25.5t10 19l-86 -4q-10 -16 -18 -34.5t-11 -38.5q-16 -4 -19 5t0 23.5t9 27.5t10 17l-28 -2z M135 793v311h70q53 0 65 -53q8 -29 7 -66t-17 -65q-14 -20 -35.5 -22.5t-44.5 -2.5v-102h-45zM152 -481h2314v-45h-2314v45zM152 1374v45h2314v-45h-2314zM154 293h61q10 -104 17.5 -207.5t11.5 -208.5q6 78 11 158t15 158l13 100h79q10 -86 18.5 -170t14.5 -170l6 -76 q6 84 9.5 165t11.5 161l10 90h84q10 -104 17.5 -207.5t13.5 -208.5q6 78 11 158t13 158q4 25 6.5 49t6.5 51h82q10 -86 17 -170t15 -170l4 -76q6 84 10.5 165t12.5 161l8 90h86q10 -104 17.5 -207.5t11.5 -208.5q6 78 11 158t15 158l13 100h80q10 -86 18 -170t14 -170l7 -76 q6 84 9 165t11 161q4 23 5 45t3 45h62l-41 -500h-94q-10 98 -19.5 197.5t-13.5 199.5q-4 -74 -10.5 -148.5t-14.5 -147.5l-8 -101h-96l-23 281l-24 -281h-93q-10 98 -20 197.5t-14 199.5q-4 -74 -9.5 -148.5t-13.5 -147.5l-10 -101h-94l-25 287l-22 -287h-95 q-10 98 -19 196.5t-13 198.5q-2 -76 -8.5 -148.5t-14.5 -145.5l-12 -101h-92zM180 932q10 0 19.5 -1t15.5 7q10 10 11 28.5t1 32.5t-1 33t-11 29q-6 10 -15.5 9t-19.5 -1v-137zM182 541h86l27 55q2 6 8 16.5t10 21.5t5 19.5t-7 10.5q-16 4 -37.5 -14.5t-31.5 -28.5 q-33 -37 -60 -80zM293 793v311h113v-41h-68v-88h55v-45h-55v-94h68v-43h-113zM305 500q4 23 16.5 45t22.5 43q10 0 27 8q-6 -16 -12.5 -30.5t-14.5 -28.5q-2 -6 -8 -15.5t-10 -19.5t-4 -18.5t8 -10.5q18 -4 34.5 16.5t22.5 30.5q10 16 16.5 35.5t6.5 38.5q18 4 20 -10.5 t-2 -26.5q-8 -33 -37 -63q16 -4 30.5 6t22.5 24l15 23q10 16 24.5 28.5t32.5 16.5q16 4 32.5 -3t35.5 -1l-37 -70q-4 -6 -11.5 -20.5t1.5 -18.5q10 -8 22 4.5t23 26.5q4 10 10 20.5t12 20.5l17 37q16 0 30 8l-39 -78q-4 -6 -10 -19.5t2 -19.5q8 -8 20.5 3.5t20.5 25.5 q8 18 19.5 38.5t19.5 39.5q10 18 18.5 36.5t18.5 36.5q16 -4 29 7l-56 -113q-4 -10 -9 -20.5t-9 -20.5t-8 -25.5t12 -7.5q10 4 19.5 14.5t17.5 22.5q6 16 16 31q10 16 24.5 28.5t33.5 16.5q18 4 34.5 -3t34.5 -1q-10 -16 -18 -33.5t-19 -36.5q-4 -6 -10 -20.5t0 -18.5 q6 -6 13.5 -2t14.5 11.5t13 16.5l10 15l2 4l66 135q16 0 26 7q-10 -25 -20 -48.5t-27 -46.5q14 14 34 23.5t34 -12.5q12 -20 1 -47t-26 -43q12 -2 22.5 4t20.5 14q8 18 18.5 37.5t20.5 38.5l37 73q14 -4 27 7q-14 -29 -26.5 -56.5t-29.5 -56.5q-4 -10 -9 -20.5t-11 -20.5 q-2 -4 -4 -11t-2 -13.5t2 -9.5t12 1t21.5 16.5t17.5 24.5q6 27 25 45q6 6 19 15.5t28.5 13.5t28 1t16.5 -22q2 -16 -7.5 -30.5t-24.5 -23.5t-33.5 -14t-30.5 -5q-2 -12 6 -19.5t20 -7.5q27 0 49.5 14.5t34.5 36.5l8 -4q-16 -29 -46.5 -46t-63.5 -11t-33 37 q-8 -10 -16.5 -19.5t-18.5 -13.5q-14 -8 -29.5 -3t-11.5 25v5q-4 -4 -8 -5q-8 -6 -25 -6h-14q-4 0 -6 -4t-6 -4q-20 -12 -44 -10t-36 22q-14 -18 -35 -24q-18 -4 -25.5 6t-0.5 27q-10 -14 -28 -27.5t-36 -1.5q-14 8 -14 29q-12 -18 -29 -29q-16 -8 -30.5 -3t-12.5 21 q-14 -14 -23 -18q-16 -8 -31.5 -3t-11.5 23q-8 -8 -16 -14t-18 -10q-18 -4 -25.5 6t0.5 27h-2q-10 -14 -27.5 -27.5t-35.5 -1.5q-10 4 -12.5 13t-0.5 20q-10 -10 -20 -13q-8 -4 -27 -4q-10 0 -12 -2t-8 -6q-10 -6 -23.5 -10t-24 -2t-16.5 11t-2 26zM418 793v311h47h28.5 t26.5 -4q20 -10 26.5 -34t6.5 -42q2 -23 -2 -56.5t-29 -43.5l37 -131h-49l-27 125q-6 0 -11 1t-11 1v-127h-43zM460 484.5q1 -9.5 13 -9.5q14 0 26.5 12.5t21.5 28.5t16.5 33.5t13.5 30.5q-20 10 -41 -6.5t-31 -32.5q-2 -4 -8 -14.5t-9 -21.5t-2 -20.5zM461 950q8 0 16 -1 t15 3q12 10 14 26.5t2 31.5q0 12 -2 29.5t-14 25.5q-6 4 -13.5 4h-17.5v-119zM569 1018q-4 23 4.5 46t30.5 36q18 10 44 8t42 -18q18 -18 18.5 -40t0.5 -44q-12 0 -23.5 1t-21.5 1q0 12 1 25.5t-10 23.5q-18 16 -29.5 1.5t-13.5 -30.5q0 -23 15.5 -37t31.5 -26t28.5 -27.5 t17.5 -34.5q4 -23 0.5 -44t-14.5 -37.5t-28.5 -26t-41.5 -4.5q-41 8 -46.5 39.5t-3.5 64.5h41q0 -10 -1 -20.5t1 -20.5q4 -12 15.5 -20.5t23.5 2.5q10 8 12.5 25.5t-1.5 29.5q-4 16 -14.5 27.5t-24.5 19.5q-47 31 -54 80zM637 641q2 8 9 11t14.5 1t11.5 -8t-2 -14 q-6 -14 -21.5 -10t-11.5 20zM725 980q0 42 12 81q6 16 16.5 29.5t30.5 15.5q43 10 64 -27q16 -35 17 -76.5t1 -78.5q0 -18 -2 -42t-9 -43.5t-20 -33.5t-38 -14q-23 0 -36 10t-20.5 26.5t-9.5 36t-4 35.5q-2 39 -2 81zM736.5 484.5q1.5 -9.5 13.5 -9.5q14 0 26 12.5 t21.5 28.5t16.5 33.5t13 30.5q-23 10 -42 -6.5t-29 -32.5q-2 -4 -8.5 -14.5t-9.5 -21.5t-1.5 -20.5zM769 920.5q-1 -19.5 1 -40t8 -36t19 -15.5q12 0 17 15.5t7 36t1 40t-1 27.5t1 28.5t-1 41t-7 36t-17 15.5t-18.5 -15.5t-8.5 -36t-1 -41t1 -28.5t-1 -27.5zM870 483 q23 -16 43.5 0.5t30.5 32.5q2 4 8 14.5t8.5 21.5t0 19.5t-14.5 8.5q-14 0 -25.5 -10.5t-20.5 -26t-16 -32.5t-14 -28zM885 793v311h39q16 -53 31.5 -107.5t27.5 -109.5q-4 53 -5 108.5t-1 108.5h41v-311h-43q-14 53 -29.5 106t-27.5 109q4 -37 4 -73t4 -73v-69h-41z M1030 793l37 311h72l39 -311h-43l-11 75h-43l-8 -75h-43zM1071 -166q0 20 12.5 30.5t27.5 10.5t27.5 -10.5t12.5 -30.5t-12.5 -30.5t-27.5 -10.5t-27.5 10.5t-12.5 30.5zM1085 911h35q-4 37 -9 74t-7 74q-2 -23 -5 -47t-7 -51zM1092 508q23 0 50 19.5t27 43.5q0 16 -11 14.5 t-21 -7.5q-10 -8 -18.5 -19.5t-14.5 -21.5t-8 -16.5t-4 -12.5zM1174 -207l59 500h117l61 -500h-72l-14 119h-68l-16 -119h-67zM1188 793v311h45v-273h65v-38h-110zM1262 -18h59q-6 59 -16.5 119.5t-14.5 121.5q-2 -41 -7 -80t-9 -80q-4 -20 -6 -40.5t-6 -40.5zM1274 489 q0 16 9 31t15 31q12 18 19 37q20 0 31 8l-39 -78q-4 -6 -10.5 -19.5t-0.5 -19.5t14.5 -1t16.5 14.5t14.5 18.5t8.5 13l30 66q12 -2 29 6q-6 -12 -11 -21.5t-14 -19.5v-2q12 14 30 27.5t36 15.5q25 0 24 -18.5t-10 -34.5q-4 -8 -19 -29.5t-9 -32.5q4 -8 13 -3t17.5 14.5 t15.5 18.5t9 13l8 -4q-10 -14 -20.5 -28.5t-26.5 -24.5q-14 -8 -28.5 -4t-12.5 24q2 16 13.5 32t17.5 30q2 2 4 8t3 11t-1 9.5t-10 2.5q-23 -4 -40.5 -29t-27.5 -41l-24 -49h-25l8 18q-4 -4 -8 -7t-8 -5q-16 -8 -30.5 -3t-10.5 25zM1331 641q2 8 10.5 11t15.5 1t10 -8 t-1 -14q-8 -14 -23.5 -10t-11.5 20zM1365 905.5q1 28.5 1 52.5v146h45v-217q0 -10 -1 -20.5t3 -20.5t14.5 -15.5t20.5 5.5q10 10 11 27.5t1 29.5q2 25 1 49.5t-1 48.5v113h45v-146q0 -25 1 -53t-4 -54t-19 -43t-47 -17q-31 0 -46.5 17t-20.5 43t-4 54.5zM1444 -207v500h74 q23 0 45 1t43 -9q35 -16 45 -56.5t10 -74.5v-39t-5 -45.5t-15.5 -41t-28.5 -24.5l61 -211h-80l-43 199h-34v-199h-72zM1516 43q12 0 25 -1t24 7q18 16 22 41t4 45q0 23 -4 49.5t-20 42.5q-10 10 -24.5 9.5t-26.5 -0.5v-193zM1522 408l92 188h-31l8 12h29q6 16 16.5 32.5 t30.5 21.5q12 4 31 -3q4 -2 11 -9t1 -13q-10 -6 -14 1t-2 15q-23 8 -34 -11t-15 -34h28l-6 -12h-29l-90 -184q-10 0 -26 -4zM1524 895h45q0 -10 -2 -20.5t2 -20.5q4 -12 14 -20.5t23 2.5q12 8 14 25.5t-2 29.5q-4 16 -14.5 27.5t-24.5 19.5q-47 27 -55 80q-2 23 5 46t30 36 q20 10 44.5 8t41.5 -18q18 -18 17 -40t-1 -44q-10 0 -20.5 1t-20.5 1q0 12 1 25.5t-9 23.5q-18 16 -29.5 1.5t-13.5 -30.5q0 -23 14 -37t31 -26q35 -25 47 -62q4 -23 1 -44t-14.5 -37.5t-30 -26t-42.5 -4.5q-41 8 -46 39.5t-5 64.5zM1627 488.5q3 15.5 9 27.5l35 72 q12 0 29 8l-27 -55q-4 -8 -16 -30t-4 -30q12 -10 29.5 5.5t23.5 23.5t10 15t10 18l25 49q8 0 25 4q-8 -18 -17.5 -37.5t-19.5 -38.5q-4 -8 -10.5 -20.5t0.5 -20.5q8 -10 20 2.5t23 26.5q8 18 19 38.5t21 39.5q8 18 16.5 36.5t18.5 36.5q14 -4 29 7l-55 -113l-21 -41 q-4 -10 -7 -25.5t13 -7.5q16 6 31 27q8 20 19.5 40.5t21.5 39.5q8 18 16.5 36.5t18.5 36.5q14 -4 29 7l-56 -113l-20 -41q-2 -4 -4 -11t-3 -13.5t1 -9.5t12 1q14 4 24.5 18.5t16.5 26.5l8 -4q-10 -16 -20.5 -30.5t-26.5 -22.5q-14 -8 -28.5 -3t-12.5 21q-12 -12 -25 -18 q-14 -8 -28.5 -3t-12.5 23q-10 -10 -19 -18t-22 -8q-18 0 -20 12t4 25q-12 -14 -34 -28.5t-38 -4.5q-14 8 -11 23.5zM1681 793v311h111v-41h-66v-88h56v-45h-56v-94h66v-43h-111zM1704 -207v500h72v-500h-72zM1821 -166q0 20 12 30.5t27.5 10.5t28 -10.5t12.5 -30.5 t-12.5 -30.5t-28 -10.5t-27.5 10.5t-12 30.5zM1860 980q0 42 12 81q6 16 17.5 29.5t29.5 15.5q41 10 63 -27q18 -35 18.5 -76.5t0.5 -78.5q0 -18 -1 -42t-8 -43.5t-21.5 -33.5t-39.5 -14q-23 0 -36 10t-19 26.5t-9 36t-3 35.5q-4 39 -4 81zM1904 920.5q-1 -19.5 1 -40t8 -36 t18 -15.5t18.5 15.5t8.5 36t1 40t-1 27.5t1 28.5t-1 41t-8.5 36t-18.5 15.5t-18 -15.5t-8 -36t-1 -41t1 -28.5t-1 -27.5zM1939 408l95 188h-31l6 12h31q6 16 16 32.5t31 21.5q12 4 31 -3q4 -2 11 -9t-1 -13q-10 -6 -13.5 1t-0.5 15q-23 8 -34.5 -11t-15.5 -34h29l-6 -12h-29 l-90 -184q-8 0 -29 -4zM1946 -207v500h65q25 -88 50.5 -174t45.5 -176q-8 88 -9 175t-1 175h66v-500h-68q-25 86 -50.5 171t-43.5 171q4 -59 6 -115.5t6 -115.5v-111h-67zM2019 793v311h39q16 -53 32.5 -107.5t29.5 -109.5q-4 53 -5 108.5t-1 108.5h40v-311h-43 q-16 53 -31.5 106t-27.5 109q4 -37 5 -73t3 -73v-69h-41zM2055 505.5q3 22.5 11 41.5q10 18 29 33.5t43 15.5q20 0 29.5 -12.5t9.5 -28.5t-7 -33.5t-16 -29.5q27 0 41 22l37 76q10 -2 27 6q-6 -12 -11 -21.5t-14 -19.5v-2q12 14 29.5 27.5t36.5 15.5q25 0 23.5 -18.5 t-7.5 -34.5q-6 -8 -20.5 -29.5t-7.5 -32.5q4 -6 11 -4t14 10.5t14.5 16.5t11.5 14l39 78h-17l6 12h17l16 35q16 0 29 6l-21 -41h31l-8 -12h-29l-37 -76q-4 -8 -10 -20.5t-2 -20.5q6 -6 14.5 -1t17.5 14.5t15 18.5t8 13l9 -4q-10 -16 -24.5 -34.5t-37.5 -22.5q-18 -4 -24.5 4 t-1.5 20q-6 -6 -12.5 -11t-12.5 -9q-14 -8 -29.5 -4t-13.5 24q2 16 13.5 32t17.5 30q2 6 7 19.5t-9 11.5q-23 -4 -41.5 -29t-28.5 -41q-8 -10 -13 -23.5t-12 -25.5h-24l14 33l-2 -2q-8 -4 -20 -9h-19q-10 -12 -21.5 -16t-17.5 -4q-20 -8 -37 6q-16 14 -13 36.5zM2079 488.5 q0 -17.5 16 -17.5q12 0 26.5 18.5t23.5 40t9 39t-14 17.5q-16 0 -30.5 -18.5t-22.5 -40t-8 -39zM2171 793v311h45v-273h65v-38h-110zM2208 105.5q2 54.5 16 103.5q4 23 14.5 43t30.5 31q20 12 45 14t47 -6q25 -10 39.5 -30.5t20.5 -46.5t8 -52.5t2 -48.5l-70 -7q2 23 0 48.5 t-10 48.5q-6 16 -21.5 26.5t-29.5 -10.5q-12 -16 -14 -41.5t-5 -48.5q-2 -25 -2 -48.5v-45.5v-47.5t5 -46.5q0 -18 4 -45t22 -37q20 -12 32.5 3t16.5 40.5t5 51.5t1 36h-51v57h119v-252h-53l-2 68q-4 -23 -15.5 -45.5t-33.5 -28.5q-23 -6 -45.5 4t-36.5 27q-29 35 -33 86 t-4 92q-4 53 -2 107.5zM2286 1104h43q8 -39 15 -79t11 -81q2 41 10.5 80t16.5 80h43q-10 -43 -20.5 -87t-20.5 -87q-10 -33 -7 -68t3 -69h-47q0 35 1 69.5t-7 67.5q-10 43 -20.5 87t-20.5 87zM2415 485q8 16 23 9t7 -21q-8 -16 -23.5 -9t-6.5 21zM2435 819q0 12 7 19.5 t16.5 7.5t17.5 -7.5t8 -19.5t-8 -19t-17.5 -7t-16.5 7t-7 19zM2437 1104h45q0 -57 -2 -114.5t-6 -117.5h-29q-4 59 -6 116t-2 116zM2456 566q-2 5 2 14q8 14 22 7.5t6 -20.5q-4 -8 -10 -10t-12 1t-8 8z" />
<glyph unicode="2" d="M109 541h47q23 35 53.5 69.5t71.5 55.5q12 8 32.5 10t24.5 -21q4 -10 -1 -21t-9 -22q-10 -20 -19.5 -39.5t-19.5 -37.5q-6 -14 -18.5 -36t-6.5 -38q-16 -4 -20 4t-1 20.5t9 25.5t10 19l-86 -4q-10 -16 -18 -34.5t-11 -38.5q-16 -4 -19 5t0 23.5t9 27.5t10 17l-28 -2z M135 793v311h70q53 0 65 -53q8 -29 7 -66t-17 -65q-14 -20 -35.5 -22.5t-44.5 -2.5v-102h-45zM152 -481h2314v-45h-2314v45zM152 1374v45h2314v-45h-2314zM154 293h61q10 -104 17.5 -207.5t11.5 -208.5q6 78 11 158t15 158l13 100h79q10 -86 18.5 -170t14.5 -170l6 -76 q6 84 9.5 165t11.5 161l10 90h84q10 -104 17.5 -207.5t13.5 -208.5q6 78 11 158t13 158q4 25 6.5 49t6.5 51h82q10 -86 17 -170t15 -170l4 -76q6 84 10.5 165t12.5 161l8 90h86q10 -104 17.5 -207.5t11.5 -208.5q6 78 11 158t15 158l13 100h80q10 -86 18 -170t14 -170l7 -76 q6 84 9 165t11 161q4 23 5 45t3 45h62l-41 -500h-94q-10 98 -19.5 197.5t-13.5 199.5q-4 -74 -10.5 -148.5t-14.5 -147.5l-8 -101h-96l-23 281l-24 -281h-93q-10 98 -20 197.5t-14 199.5q-4 -74 -9.5 -148.5t-13.5 -147.5l-10 -101h-94l-25 287l-22 -287h-95 q-10 98 -19 196.5t-13 198.5q-2 -76 -8.5 -148.5t-14.5 -145.5l-12 -101h-92zM180 932q10 0 19.5 -1t15.5 7q10 10 11 28.5t1 32.5t-1 33t-11 29q-6 10 -15.5 9t-19.5 -1v-137zM182 541h86l27 55q2 6 8 16.5t10 21.5t5 19.5t-7 10.5q-16 4 -37.5 -14.5t-31.5 -28.5 q-33 -37 -60 -80zM293 793v311h113v-41h-68v-88h55v-45h-55v-94h68v-43h-113zM305 500q4 23 16.5 45t22.5 43q10 0 27 8q-6 -16 -12.5 -30.5t-14.5 -28.5q-2 -6 -8 -15.5t-10 -19.5t-4 -18.5t8 -10.5q18 -4 34.5 16.5t22.5 30.5q10 16 16.5 35.5t6.5 38.5q18 4 20 -10.5 t-2 -26.5q-8 -33 -37 -63q16 -4 30.5 6t22.5 24l15 23q10 16 24.5 28.5t32.5 16.5q16 4 32.5 -3t35.5 -1l-37 -70q-4 -6 -11.5 -20.5t1.5 -18.5q10 -8 22 4.5t23 26.5q4 10 10 20.5t12 20.5l17 37q16 0 30 8l-39 -78q-4 -6 -10 -19.5t2 -19.5q8 -8 20.5 3.5t20.5 25.5 q8 18 19.5 38.5t19.5 39.5q10 18 18.5 36.5t18.5 36.5q16 -4 29 7l-56 -113q-4 -10 -9 -20.5t-9 -20.5t-8 -25.5t12 -7.5q10 4 19.5 14.5t17.5 22.5q6 16 16 31q10 16 24.5 28.5t33.5 16.5q18 4 34.5 -3t34.5 -1q-10 -16 -18 -33.5t-19 -36.5q-4 -6 -10 -20.5t0 -18.5 q6 -6 13.5 -2t14.5 11.5t13 16.5l10 15l2 4l66 135q16 0 26 7q-10 -25 -20 -48.5t-27 -46.5q14 14 34 23.5t34 -12.5q12 -20 1 -47t-26 -43q12 -2 22.5 4t20.5 14q8 18 18.5 37.5t20.5 38.5l37 73q14 -4 27 7q-14 -29 -26.5 -56.5t-29.5 -56.5q-4 -10 -9 -20.5t-11 -20.5 q-2 -4 -4 -11t-2 -13.5t2 -9.5t12 1t21.5 16.5t17.5 24.5q6 27 25 45q6 6 19 15.5t28.5 13.5t28 1t16.5 -22q2 -16 -7.5 -30.5t-24.5 -23.5t-33.5 -14t-30.5 -5q-2 -12 6 -19.5t20 -7.5q27 0 49.5 14.5t34.5 36.5l8 -4q-16 -29 -46.5 -46t-63.5 -11t-33 37 q-8 -10 -16.5 -19.5t-18.5 -13.5q-14 -8 -29.5 -3t-11.5 25v5q-4 -4 -8 -5q-8 -6 -25 -6h-14q-4 0 -6 -4t-6 -4q-20 -12 -44 -10t-36 22q-14 -18 -35 -24q-18 -4 -25.5 6t-0.5 27q-10 -14 -28 -27.5t-36 -1.5q-14 8 -14 29q-12 -18 -29 -29q-16 -8 -30.5 -3t-12.5 21 q-14 -14 -23 -18q-16 -8 -31.5 -3t-11.5 23q-8 -8 -16 -14t-18 -10q-18 -4 -25.5 6t0.5 27h-2q-10 -14 -27.5 -27.5t-35.5 -1.5q-10 4 -12.5 13t-0.5 20q-10 -10 -20 -13q-8 -4 -27 -4q-10 0 -12 -2t-8 -6q-10 -6 -23.5 -10t-24 -2t-16.5 11t-2 26zM418 793v311h47h28.5 t26.5 -4q20 -10 26.5 -34t6.5 -42q2 -23 -2 -56.5t-29 -43.5l37 -131h-49l-27 125q-6 0 -11 1t-11 1v-127h-43zM460 484.5q1 -9.5 13 -9.5q14 0 26.5 12.5t21.5 28.5t16.5 33.5t13.5 30.5q-20 10 -41 -6.5t-31 -32.5q-2 -4 -8 -14.5t-9 -21.5t-2 -20.5zM461 950q8 0 16 -1 t15 3q12 10 14 26.5t2 31.5q0 12 -2 29.5t-14 25.5q-6 4 -13.5 4h-17.5v-119zM569 1018q-4 23 4.5 46t30.5 36q18 10 44 8t42 -18q18 -18 18.5 -40t0.5 -44q-12 0 -23.5 1t-21.5 1q0 12 1 25.5t-10 23.5q-18 16 -29.5 1.5t-13.5 -30.5q0 -23 15.5 -37t31.5 -26t28.5 -27.5 t17.5 -34.5q4 -23 0.5 -44t-14.5 -37.5t-28.5 -26t-41.5 -4.5q-41 8 -46.5 39.5t-3.5 64.5h41q0 -10 -1 -20.5t1 -20.5q4 -12 15.5 -20.5t23.5 2.5q10 8 12.5 25.5t-1.5 29.5q-4 16 -14.5 27.5t-24.5 19.5q-47 31 -54 80zM637 641q2 8 9 11t14.5 1t11.5 -8t-2 -14 q-6 -14 -21.5 -10t-11.5 20zM725 980q0 42 12 81q6 16 16.5 29.5t30.5 15.5q43 10 64 -27q16 -35 17 -76.5t1 -78.5q0 -18 -2 -42t-9 -43.5t-20 -33.5t-38 -14q-23 0 -36 10t-20.5 26.5t-9.5 36t-4 35.5q-2 39 -2 81zM736.5 484.5q1.5 -9.5 13.5 -9.5q14 0 26 12.5 t21.5 28.5t16.5 33.5t13 30.5q-23 10 -42 -6.5t-29 -32.5q-2 -4 -8.5 -14.5t-9.5 -21.5t-1.5 -20.5zM769 920.5q-1 -19.5 1 -40t8 -36t19 -15.5q12 0 17 15.5t7 36t1 40t-1 27.5t1 28.5t-1 41t-7 36t-17 15.5t-18.5 -15.5t-8.5 -36t-1 -41t1 -28.5t-1 -27.5zM870 483 q23 -16 43.5 0.5t30.5 32.5q2 4 8 14.5t8.5 21.5t0 19.5t-14.5 8.5q-14 0 -25.5 -10.5t-20.5 -26t-16 -32.5t-14 -28zM885 793v311h39q16 -53 31.5 -107.5t27.5 -109.5q-4 53 -5 108.5t-1 108.5h41v-311h-43q-14 53 -29.5 106t-27.5 109q4 -37 4 -73t4 -73v-69h-41z M1030 793l37 311h72l39 -311h-43l-11 75h-43l-8 -75h-43zM1071 -166q0 20 12.5 30.5t27.5 10.5t27.5 -10.5t12.5 -30.5t-12.5 -30.5t-27.5 -10.5t-27.5 10.5t-12.5 30.5zM1085 911h35q-4 37 -9 74t-7 74q-2 -23 -5 -47t-7 -51zM1092 508q23 0 50 19.5t27 43.5q0 16 -11 14.5 t-21 -7.5q-10 -8 -18.5 -19.5t-14.5 -21.5t-8 -16.5t-4 -12.5zM1174 -207l59 500h117l61 -500h-72l-14 119h-68l-16 -119h-67zM1188 793v311h45v-273h65v-38h-110zM1262 -18h59q-6 59 -16.5 119.5t-14.5 121.5q-2 -41 -7 -80t-9 -80q-4 -20 -6 -40.5t-6 -40.5zM1274 489 q0 16 9 31t15 31q12 18 19 37q20 0 31 8l-39 -78q-4 -6 -10.5 -19.5t-0.5 -19.5t14.5 -1t16.5 14.5t14.5 18.5t8.5 13l30 66q12 -2 29 6q-6 -12 -11 -21.5t-14 -19.5v-2q12 14 30 27.5t36 15.5q25 0 24 -18.5t-10 -34.5q-4 -8 -19 -29.5t-9 -32.5q4 -8 13 -3t17.5 14.5 t15.5 18.5t9 13l8 -4q-10 -14 -20.5 -28.5t-26.5 -24.5q-14 -8 -28.5 -4t-12.5 24q2 16 13.5 32t17.5 30q2 2 4 8t3 11t-1 9.5t-10 2.5q-23 -4 -40.5 -29t-27.5 -41l-24 -49h-25l8 18q-4 -4 -8 -7t-8 -5q-16 -8 -30.5 -3t-10.5 25zM1331 641q2 8 10.5 11t15.5 1t10 -8 t-1 -14q-8 -14 -23.5 -10t-11.5 20zM1365 905.5q1 28.5 1 52.5v146h45v-217q0 -10 -1 -20.5t3 -20.5t14.5 -15.5t20.5 5.5q10 10 11 27.5t1 29.5q2 25 1 49.5t-1 48.5v113h45v-146q0 -25 1 -53t-4 -54t-19 -43t-47 -17q-31 0 -46.5 17t-20.5 43t-4 54.5zM1444 -207v500h74 q23 0 45 1t43 -9q35 -16 45 -56.5t10 -74.5v-39t-5 -45.5t-15.5 -41t-28.5 -24.5l61 -211h-80l-43 199h-34v-199h-72zM1516 43q12 0 25 -1t24 7q18 16 22 41t4 45q0 23 -4 49.5t-20 42.5q-10 10 -24.5 9.5t-26.5 -0.5v-193zM1522 408l92 188h-31l8 12h29q6 16 16.5 32.5 t30.5 21.5q12 4 31 -3q4 -2 11 -9t1 -13q-10 -6 -14 1t-2 15q-23 8 -34 -11t-15 -34h28l-6 -12h-29l-90 -184q-10 0 -26 -4zM1524 895h45q0 -10 -2 -20.5t2 -20.5q4 -12 14 -20.5t23 2.5q12 8 14 25.5t-2 29.5q-4 16 -14.5 27.5t-24.5 19.5q-47 27 -55 80q-2 23 5 46t30 36 q20 10 44.5 8t41.5 -18q18 -18 17 -40t-1 -44q-10 0 -20.5 1t-20.5 1q0 12 1 25.5t-9 23.5q-18 16 -29.5 1.5t-13.5 -30.5q0 -23 14 -37t31 -26q35 -25 47 -62q4 -23 1 -44t-14.5 -37.5t-30 -26t-42.5 -4.5q-41 8 -46 39.5t-5 64.5zM1627 488.5q3 15.5 9 27.5l35 72 q12 0 29 8l-27 -55q-4 -8 -16 -30t-4 -30q12 -10 29.5 5.5t23.5 23.5t10 15t10 18l25 49q8 0 25 4q-8 -18 -17.5 -37.5t-19.5 -38.5q-4 -8 -10.5 -20.5t0.5 -20.5q8 -10 20 2.5t23 26.5q8 18 19 38.5t21 39.5q8 18 16.5 36.5t18.5 36.5q14 -4 29 7l-55 -113l-21 -41 q-4 -10 -7 -25.5t13 -7.5q16 6 31 27q8 20 19.5 40.5t21.5 39.5q8 18 16.5 36.5t18.5 36.5q14 -4 29 7l-56 -113l-20 -41q-2 -4 -4 -11t-3 -13.5t1 -9.5t12 1q14 4 24.5 18.5t16.5 26.5l8 -4q-10 -16 -20.5 -30.5t-26.5 -22.5q-14 -8 -28.5 -3t-12.5 21q-12 -12 -25 -18 q-14 -8 -28.5 -3t-12.5 23q-10 -10 -19 -18t-22 -8q-18 0 -20 12t4 25q-12 -14 -34 -28.5t-38 -4.5q-14 8 -11 23.5zM1681 793v311h111v-41h-66v-88h56v-45h-56v-94h66v-43h-111zM1704 -207v500h72v-500h-72zM1821 -166q0 20 12 30.5t27.5 10.5t28 -10.5t12.5 -30.5 t-12.5 -30.5t-28 -10.5t-27.5 10.5t-12 30.5zM1860 980q0 42 12 81q6 16 17.5 29.5t29.5 15.5q41 10 63 -27q18 -35 18.5 -76.5t0.5 -78.5q0 -18 -1 -42t-8 -43.5t-21.5 -33.5t-39.5 -14q-23 0 -36 10t-19 26.5t-9 36t-3 35.5q-4 39 -4 81zM1904 920.5q-1 -19.5 1 -40t8 -36 t18 -15.5t18.5 15.5t8.5 36t1 40t-1 27.5t1 28.5t-1 41t-8.5 36t-18.5 15.5t-18 -15.5t-8 -36t-1 -41t1 -28.5t-1 -27.5zM1939 408l95 188h-31l6 12h31q6 16 16 32.5t31 21.5q12 4 31 -3q4 -2 11 -9t-1 -13q-10 -6 -13.5 1t-0.5 15q-23 8 -34.5 -11t-15.5 -34h29l-6 -12h-29 l-90 -184q-8 0 -29 -4zM1946 -207v500h65q25 -88 50.5 -174t45.5 -176q-8 88 -9 175t-1 175h66v-500h-68q-25 86 -50.5 171t-43.5 171q4 -59 6 -115.5t6 -115.5v-111h-67zM2019 793v311h39q16 -53 32.5 -107.5t29.5 -109.5q-4 53 -5 108.5t-1 108.5h40v-311h-43 q-16 53 -31.5 106t-27.5 109q4 -37 5 -73t3 -73v-69h-41zM2055 505.5q3 22.5 11 41.5q10 18 29 33.5t43 15.5q20 0 29.5 -12.5t9.5 -28.5t-7 -33.5t-16 -29.5q27 0 41 22l37 76q10 -2 27 6q-6 -12 -11 -21.5t-14 -19.5v-2q12 14 29.5 27.5t36.5 15.5q25 0 23.5 -18.5 t-7.5 -34.5q-6 -8 -20.5 -29.5t-7.5 -32.5q4 -6 11 -4t14 10.5t14.5 16.5t11.5 14l39 78h-17l6 12h17l16 35q16 0 29 6l-21 -41h31l-8 -12h-29l-37 -76q-4 -8 -10 -20.5t-2 -20.5q6 -6 14.5 -1t17.5 14.5t15 18.5t8 13l9 -4q-10 -16 -24.5 -34.5t-37.5 -22.5q-18 -4 -24.5 4 t-1.5 20q-6 -6 -12.5 -11t-12.5 -9q-14 -8 -29.5 -4t-13.5 24q2 16 13.5 32t17.5 30q2 6 7 19.5t-9 11.5q-23 -4 -41.5 -29t-28.5 -41q-8 -10 -13 -23.5t-12 -25.5h-24l14 33l-2 -2q-8 -4 -20 -9h-19q-10 -12 -21.5 -16t-17.5 -4q-20 -8 -37 6q-16 14 -13 36.5zM2079 488.5 q0 -17.5 16 -17.5q12 0 26.5 18.5t23.5 40t9 39t-14 17.5q-16 0 -30.5 -18.5t-22.5 -40t-8 -39zM2171 793v311h45v-273h65v-38h-110zM2208 105.5q2 54.5 16 103.5q4 23 14.5 43t30.5 31q20 12 45 14t47 -6q25 -10 39.5 -30.5t20.5 -46.5t8 -52.5t2 -48.5l-70 -7q2 23 0 48.5 t-10 48.5q-6 16 -21.5 26.5t-29.5 -10.5q-12 -16 -14 -41.5t-5 -48.5q-2 -25 -2 -48.5v-45.5v-47.5t5 -46.5q0 -18 4 -45t22 -37q20 -12 32.5 3t16.5 40.5t5 51.5t1 36h-51v57h119v-252h-53l-2 68q-4 -23 -15.5 -45.5t-33.5 -28.5q-23 -6 -45.5 4t-36.5 27q-29 35 -33 86 t-4 92q-4 53 -2 107.5zM2286 1104h43q8 -39 15 -79t11 -81q2 41 10.5 80t16.5 80h43q-10 -43 -20.5 -87t-20.5 -87q-10 -33 -7 -68t3 -69h-47q0 35 1 69.5t-7 67.5q-10 43 -20.5 87t-20.5 87zM2415 485q8 16 23 9t7 -21q-8 -16 -23.5 -9t-6.5 21zM2435 819q0 12 7 19.5 t16.5 7.5t17.5 -7.5t8 -19.5t-8 -19t-17.5 -7t-16.5 7t-7 19zM2437 1104h45q0 -57 -2 -114.5t-6 -117.5h-29q-4 59 -6 116t-2 116zM2456 566q-2 5 2 14q8 14 22 7.5t6 -20.5q-4 -8 -10 -10t-12 1t-8 8z" />
<glyph unicode="3" d="M109 541h47q23 35 53.5 69.5t71.5 55.5q12 8 32.5 10t24.5 -21q4 -10 -1 -21t-9 -22q-10 -20 -19.5 -39.5t-19.5 -37.5q-6 -14 -18.5 -36t-6.5 -38q-16 -4 -20 4t-1 20.5t9 25.5t10 19l-86 -4q-10 -16 -18 -34.5t-11 -38.5q-16 -4 -19 5t0 23.5t9 27.5t10 17l-28 -2z M135 793v311h70q53 0 65 -53q8 -29 7 -66t-17 -65q-14 -20 -35.5 -22.5t-44.5 -2.5v-102h-45zM152 -481h2314v-45h-2314v45zM152 1374v45h2314v-45h-2314zM154 293h61q10 -104 17.5 -207.5t11.5 -208.5q6 78 11 158t15 158l13 100h79q10 -86 18.5 -170t14.5 -170l6 -76 q6 84 9.5 165t11.5 161l10 90h84q10 -104 17.5 -207.5t13.5 -208.5q6 78 11 158t13 158q4 25 6.5 49t6.5 51h82q10 -86 17 -170t15 -170l4 -76q6 84 10.5 165t12.5 161l8 90h86q10 -104 17.5 -207.5t11.5 -208.5q6 78 11 158t15 158l13 100h80q10 -86 18 -170t14 -170l7 -76 q6 84 9 165t11 161q4 23 5 45t3 45h62l-41 -500h-94q-10 98 -19.5 197.5t-13.5 199.5q-4 -74 -10.5 -148.5t-14.5 -147.5l-8 -101h-96l-23 281l-24 -281h-93q-10 98 -20 197.5t-14 199.5q-4 -74 -9.5 -148.5t-13.5 -147.5l-10 -101h-94l-25 287l-22 -287h-95 q-10 98 -19 196.5t-13 198.5q-2 -76 -8.5 -148.5t-14.5 -145.5l-12 -101h-92zM180 932q10 0 19.5 -1t15.5 7q10 10 11 28.5t1 32.5t-1 33t-11 29q-6 10 -15.5 9t-19.5 -1v-137zM182 541h86l27 55q2 6 8 16.5t10 21.5t5 19.5t-7 10.5q-16 4 -37.5 -14.5t-31.5 -28.5 q-33 -37 -60 -80zM293 793v311h113v-41h-68v-88h55v-45h-55v-94h68v-43h-113zM305 500q4 23 16.5 45t22.5 43q10 0 27 8q-6 -16 -12.5 -30.5t-14.5 -28.5q-2 -6 -8 -15.5t-10 -19.5t-4 -18.5t8 -10.5q18 -4 34.5 16.5t22.5 30.5q10 16 16.5 35.5t6.5 38.5q18 4 20 -10.5 t-2 -26.5q-8 -33 -37 -63q16 -4 30.5 6t22.5 24l15 23q10 16 24.5 28.5t32.5 16.5q16 4 32.5 -3t35.5 -1l-37 -70q-4 -6 -11.5 -20.5t1.5 -18.5q10 -8 22 4.5t23 26.5q4 10 10 20.5t12 20.5l17 37q16 0 30 8l-39 -78q-4 -6 -10 -19.5t2 -19.5q8 -8 20.5 3.5t20.5 25.5 q8 18 19.5 38.5t19.5 39.5q10 18 18.5 36.5t18.5 36.5q16 -4 29 7l-56 -113q-4 -10 -9 -20.5t-9 -20.5t-8 -25.5t12 -7.5q10 4 19.5 14.5t17.5 22.5q6 16 16 31q10 16 24.5 28.5t33.5 16.5q18 4 34.5 -3t34.5 -1q-10 -16 -18 -33.5t-19 -36.5q-4 -6 -10 -20.5t0 -18.5 q6 -6 13.5 -2t14.5 11.5t13 16.5l10 15l2 4l66 135q16 0 26 7q-10 -25 -20 -48.5t-27 -46.5q14 14 34 23.5t34 -12.5q12 -20 1 -47t-26 -43q12 -2 22.5 4t20.5 14q8 18 18.5 37.5t20.5 38.5l37 73q14 -4 27 7q-14 -29 -26.5 -56.5t-29.5 -56.5q-4 -10 -9 -20.5t-11 -20.5 q-2 -4 -4 -11t-2 -13.5t2 -9.5t12 1t21.5 16.5t17.5 24.5q6 27 25 45q6 6 19 15.5t28.5 13.5t28 1t16.5 -22q2 -16 -7.5 -30.5t-24.5 -23.5t-33.5 -14t-30.5 -5q-2 -12 6 -19.5t20 -7.5q27 0 49.5 14.5t34.5 36.5l8 -4q-16 -29 -46.5 -46t-63.5 -11t-33 37 q-8 -10 -16.5 -19.5t-18.5 -13.5q-14 -8 -29.5 -3t-11.5 25v5q-4 -4 -8 -5q-8 -6 -25 -6h-14q-4 0 -6 -4t-6 -4q-20 -12 -44 -10t-36 22q-14 -18 -35 -24q-18 -4 -25.5 6t-0.5 27q-10 -14 -28 -27.5t-36 -1.5q-14 8 -14 29q-12 -18 -29 -29q-16 -8 -30.5 -3t-12.5 21 q-14 -14 -23 -18q-16 -8 -31.5 -3t-11.5 23q-8 -8 -16 -14t-18 -10q-18 -4 -25.5 6t0.5 27h-2q-10 -14 -27.5 -27.5t-35.5 -1.5q-10 4 -12.5 13t-0.5 20q-10 -10 -20 -13q-8 -4 -27 -4q-10 0 -12 -2t-8 -6q-10 -6 -23.5 -10t-24 -2t-16.5 11t-2 26zM418 793v311h47h28.5 t26.5 -4q20 -10 26.5 -34t6.5 -42q2 -23 -2 -56.5t-29 -43.5l37 -131h-49l-27 125q-6 0 -11 1t-11 1v-127h-43zM460 484.5q1 -9.5 13 -9.5q14 0 26.5 12.5t21.5 28.5t16.5 33.5t13.5 30.5q-20 10 -41 -6.5t-31 -32.5q-2 -4 -8 -14.5t-9 -21.5t-2 -20.5zM461 950q8 0 16 -1 t15 3q12 10 14 26.5t2 31.5q0 12 -2 29.5t-14 25.5q-6 4 -13.5 4h-17.5v-119zM569 1018q-4 23 4.5 46t30.5 36q18 10 44 8t42 -18q18 -18 18.5 -40t0.5 -44q-12 0 -23.5 1t-21.5 1q0 12 1 25.5t-10 23.5q-18 16 -29.5 1.5t-13.5 -30.5q0 -23 15.5 -37t31.5 -26t28.5 -27.5 t17.5 -34.5q4 -23 0.5 -44t-14.5 -37.5t-28.5 -26t-41.5 -4.5q-41 8 -46.5 39.5t-3.5 64.5h41q0 -10 -1 -20.5t1 -20.5q4 -12 15.5 -20.5t23.5 2.5q10 8 12.5 25.5t-1.5 29.5q-4 16 -14.5 27.5t-24.5 19.5q-47 31 -54 80zM637 641q2 8 9 11t14.5 1t11.5 -8t-2 -14 q-6 -14 -21.5 -10t-11.5 20zM725 980q0 42 12 81q6 16 16.5 29.5t30.5 15.5q43 10 64 -27q16 -35 17 -76.5t1 -78.5q0 -18 -2 -42t-9 -43.5t-20 -33.5t-38 -14q-23 0 -36 10t-20.5 26.5t-9.5 36t-4 35.5q-2 39 -2 81zM736.5 484.5q1.5 -9.5 13.5 -9.5q14 0 26 12.5 t21.5 28.5t16.5 33.5t13 30.5q-23 10 -42 -6.5t-29 -32.5q-2 -4 -8.5 -14.5t-9.5 -21.5t-1.5 -20.5zM769 920.5q-1 -19.5 1 -40t8 -36t19 -15.5q12 0 17 15.5t7 36t1 40t-1 27.5t1 28.5t-1 41t-7 36t-17 15.5t-18.5 -15.5t-8.5 -36t-1 -41t1 -28.5t-1 -27.5zM870 483 q23 -16 43.5 0.5t30.5 32.5q2 4 8 14.5t8.5 21.5t0 19.5t-14.5 8.5q-14 0 -25.5 -10.5t-20.5 -26t-16 -32.5t-14 -28zM885 793v311h39q16 -53 31.5 -107.5t27.5 -109.5q-4 53 -5 108.5t-1 108.5h41v-311h-43q-14 53 -29.5 106t-27.5 109q4 -37 4 -73t4 -73v-69h-41z M1030 793l37 311h72l39 -311h-43l-11 75h-43l-8 -75h-43zM1071 -166q0 20 12.5 30.5t27.5 10.5t27.5 -10.5t12.5 -30.5t-12.5 -30.5t-27.5 -10.5t-27.5 10.5t-12.5 30.5zM1085 911h35q-4 37 -9 74t-7 74q-2 -23 -5 -47t-7 -51zM1092 508q23 0 50 19.5t27 43.5q0 16 -11 14.5 t-21 -7.5q-10 -8 -18.5 -19.5t-14.5 -21.5t-8 -16.5t-4 -12.5zM1174 -207l59 500h117l61 -500h-72l-14 119h-68l-16 -119h-67zM1188 793v311h45v-273h65v-38h-110zM1262 -18h59q-6 59 -16.5 119.5t-14.5 121.5q-2 -41 -7 -80t-9 -80q-4 -20 -6 -40.5t-6 -40.5zM1274 489 q0 16 9 31t15 31q12 18 19 37q20 0 31 8l-39 -78q-4 -6 -10.5 -19.5t-0.5 -19.5t14.5 -1t16.5 14.5t14.5 18.5t8.5 13l30 66q12 -2 29 6q-6 -12 -11 -21.5t-14 -19.5v-2q12 14 30 27.5t36 15.5q25 0 24 -18.5t-10 -34.5q-4 -8 -19 -29.5t-9 -32.5q4 -8 13 -3t17.5 14.5 t15.5 18.5t9 13l8 -4q-10 -14 -20.5 -28.5t-26.5 -24.5q-14 -8 -28.5 -4t-12.5 24q2 16 13.5 32t17.5 30q2 2 4 8t3 11t-1 9.5t-10 2.5q-23 -4 -40.5 -29t-27.5 -41l-24 -49h-25l8 18q-4 -4 -8 -7t-8 -5q-16 -8 -30.5 -3t-10.5 25zM1331 641q2 8 10.5 11t15.5 1t10 -8 t-1 -14q-8 -14 -23.5 -10t-11.5 20zM1365 905.5q1 28.5 1 52.5v146h45v-217q0 -10 -1 -20.5t3 -20.5t14.5 -15.5t20.5 5.5q10 10 11 27.5t1 29.5q2 25 1 49.5t-1 48.5v113h45v-146q0 -25 1 -53t-4 -54t-19 -43t-47 -17q-31 0 -46.5 17t-20.5 43t-4 54.5zM1444 -207v500h74 q23 0 45 1t43 -9q35 -16 45 -56.5t10 -74.5v-39t-5 -45.5t-15.5 -41t-28.5 -24.5l61 -211h-80l-43 199h-34v-199h-72zM1516 43q12 0 25 -1t24 7q18 16 22 41t4 45q0 23 -4 49.5t-20 42.5q-10 10 -24.5 9.5t-26.5 -0.5v-193zM1522 408l92 188h-31l8 12h29q6 16 16.5 32.5 t30.5 21.5q12 4 31 -3q4 -2 11 -9t1 -13q-10 -6 -14 1t-2 15q-23 8 -34 -11t-15 -34h28l-6 -12h-29l-90 -184q-10 0 -26 -4zM1524 895h45q0 -10 -2 -20.5t2 -20.5q4 -12 14 -20.5t23 2.5q12 8 14 25.5t-2 29.5q-4 16 -14.5 27.5t-24.5 19.5q-47 27 -55 80q-2 23 5 46t30 36 q20 10 44.5 8t41.5 -18q18 -18 17 -40t-1 -44q-10 0 -20.5 1t-20.5 1q0 12 1 25.5t-9 23.5q-18 16 -29.5 1.5t-13.5 -30.5q0 -23 14 -37t31 -26q35 -25 47 -62q4 -23 1 -44t-14.5 -37.5t-30 -26t-42.5 -4.5q-41 8 -46 39.5t-5 64.5zM1627 488.5q3 15.5 9 27.5l35 72 q12 0 29 8l-27 -55q-4 -8 -16 -30t-4 -30q12 -10 29.5 5.5t23.5 23.5t10 15t10 18l25 49q8 0 25 4q-8 -18 -17.5 -37.5t-19.5 -38.5q-4 -8 -10.5 -20.5t0.5 -20.5q8 -10 20 2.5t23 26.5q8 18 19 38.5t21 39.5q8 18 16.5 36.5t18.5 36.5q14 -4 29 7l-55 -113l-21 -41 q-4 -10 -7 -25.5t13 -7.5q16 6 31 27q8 20 19.5 40.5t21.5 39.5q8 18 16.5 36.5t18.5 36.5q14 -4 29 7l-56 -113l-20 -41q-2 -4 -4 -11t-3 -13.5t1 -9.5t12 1q14 4 24.5 18.5t16.5 26.5l8 -4q-10 -16 -20.5 -30.5t-26.5 -22.5q-14 -8 -28.5 -3t-12.5 21q-12 -12 -25 -18 q-14 -8 -28.5 -3t-12.5 23q-10 -10 -19 -18t-22 -8q-18 0 -20 12t4 25q-12 -14 -34 -28.5t-38 -4.5q-14 8 -11 23.5zM1681 793v311h111v-41h-66v-88h56v-45h-56v-94h66v-43h-111zM1704 -207v500h72v-500h-72zM1821 -166q0 20 12 30.5t27.5 10.5t28 -10.5t12.5 -30.5 t-12.5 -30.5t-28 -10.5t-27.5 10.5t-12 30.5zM1860 980q0 42 12 81q6 16 17.5 29.5t29.5 15.5q41 10 63 -27q18 -35 18.5 -76.5t0.5 -78.5q0 -18 -1 -42t-8 -43.5t-21.5 -33.5t-39.5 -14q-23 0 -36 10t-19 26.5t-9 36t-3 35.5q-4 39 -4 81zM1904 920.5q-1 -19.5 1 -40t8 -36 t18 -15.5t18.5 15.5t8.5 36t1 40t-1 27.5t1 28.5t-1 41t-8.5 36t-18.5 15.5t-18 -15.5t-8 -36t-1 -41t1 -28.5t-1 -27.5zM1939 408l95 188h-31l6 12h31q6 16 16 32.5t31 21.5q12 4 31 -3q4 -2 11 -9t-1 -13q-10 -6 -13.5 1t-0.5 15q-23 8 -34.5 -11t-15.5 -34h29l-6 -12h-29 l-90 -184q-8 0 -29 -4zM1946 -207v500h65q25 -88 50.5 -174t45.5 -176q-8 88 -9 175t-1 175h66v-500h-68q-25 86 -50.5 171t-43.5 171q4 -59 6 -115.5t6 -115.5v-111h-67zM2019 793v311h39q16 -53 32.5 -107.5t29.5 -109.5q-4 53 -5 108.5t-1 108.5h40v-311h-43 q-16 53 -31.5 106t-27.5 109q4 -37 5 -73t3 -73v-69h-41zM2055 505.5q3 22.5 11 41.5q10 18 29 33.5t43 15.5q20 0 29.5 -12.5t9.5 -28.5t-7 -33.5t-16 -29.5q27 0 41 22l37 76q10 -2 27 6q-6 -12 -11 -21.5t-14 -19.5v-2q12 14 29.5 27.5t36.5 15.5q25 0 23.5 -18.5 t-7.5 -34.5q-6 -8 -20.5 -29.5t-7.5 -32.5q4 -6 11 -4t14 10.5t14.5 16.5t11.5 14l39 78h-17l6 12h17l16 35q16 0 29 6l-21 -41h31l-8 -12h-29l-37 -76q-4 -8 -10 -20.5t-2 -20.5q6 -6 14.5 -1t17.5 14.5t15 18.5t8 13l9 -4q-10 -16 -24.5 -34.5t-37.5 -22.5q-18 -4 -24.5 4 t-1.5 20q-6 -6 -12.5 -11t-12.5 -9q-14 -8 -29.5 -4t-13.5 24q2 16 13.5 32t17.5 30q2 6 7 19.5t-9 11.5q-23 -4 -41.5 -29t-28.5 -41q-8 -10 -13 -23.5t-12 -25.5h-24l14 33l-2 -2q-8 -4 -20 -9h-19q-10 -12 -21.5 -16t-17.5 -4q-20 -8 -37 6q-16 14 -13 36.5zM2079 488.5 q0 -17.5 16 -17.5q12 0 26.5 18.5t23.5 40t9 39t-14 17.5q-16 0 -30.5 -18.5t-22.5 -40t-8 -39zM2171 793v311h45v-273h65v-38h-110zM2208 105.5q2 54.5 16 103.5q4 23 14.5 43t30.5 31q20 12 45 14t47 -6q25 -10 39.5 -30.5t20.5 -46.5t8 -52.5t2 -48.5l-70 -7q2 23 0 48.5 t-10 48.5q-6 16 -21.5 26.5t-29.5 -10.5q-12 -16 -14 -41.5t-5 -48.5q-2 -25 -2 -48.5v-45.5v-47.5t5 -46.5q0 -18 4 -45t22 -37q20 -12 32.5 3t16.5 40.5t5 51.5t1 36h-51v57h119v-252h-53l-2 68q-4 -23 -15.5 -45.5t-33.5 -28.5q-23 -6 -45.5 4t-36.5 27q-29 35 -33 86 t-4 92q-4 53 -2 107.5zM2286 1104h43q8 -39 15 -79t11 -81q2 41 10.5 80t16.5 80h43q-10 -43 -20.5 -87t-20.5 -87q-10 -33 -7 -68t3 -69h-47q0 35 1 69.5t-7 67.5q-10 43 -20.5 87t-20.5 87zM2415 485q8 16 23 9t7 -21q-8 -16 -23.5 -9t-6.5 21zM2435 819q0 12 7 19.5 t16.5 7.5t17.5 -7.5t8 -19.5t-8 -19t-17.5 -7t-16.5 7t-7 19zM2437 1104h45q0 -57 -2 -114.5t-6 -117.5h-29q-4 59 -6 116t-2 116zM2456 566q-2 5 2 14q8 14 22 7.5t6 -20.5q-4 -8 -10 -10t-12 1t-8 8z" />
<glyph unicode="4" d="M109 541h47q23 35 53.5 69.5t71.5 55.5q12 8 32.5 10t24.5 -21q4 -10 -1 -21t-9 -22q-10 -20 -19.5 -39.5t-19.5 -37.5q-6 -14 -18.5 -36t-6.5 -38q-16 -4 -20 4t-1 20.5t9 25.5t10 19l-86 -4q-10 -16 -18 -34.5t-11 -38.5q-16 -4 -19 5t0 23.5t9 27.5t10 17l-28 -2z M135 793v311h70q53 0 65 -53q8 -29 7 -66t-17 -65q-14 -20 -35.5 -22.5t-44.5 -2.5v-102h-45zM152 -481h2314v-45h-2314v45zM152 1374v45h2314v-45h-2314zM154 293h61q10 -104 17.5 -207.5t11.5 -208.5q6 78 11 158t15 158l13 100h79q10 -86 18.5 -170t14.5 -170l6 -76 q6 84 9.5 165t11.5 161l10 90h84q10 -104 17.5 -207.5t13.5 -208.5q6 78 11 158t13 158q4 25 6.5 49t6.5 51h82q10 -86 17 -170t15 -170l4 -76q6 84 10.5 165t12.5 161l8 90h86q10 -104 17.5 -207.5t11.5 -208.5q6 78 11 158t15 158l13 100h80q10 -86 18 -170t14 -170l7 -76 q6 84 9 165t11 161q4 23 5 45t3 45h62l-41 -500h-94q-10 98 -19.5 197.5t-13.5 199.5q-4 -74 -10.5 -148.5t-14.5 -147.5l-8 -101h-96l-23 281l-24 -281h-93q-10 98 -20 197.5t-14 199.5q-4 -74 -9.5 -148.5t-13.5 -147.5l-10 -101h-94l-25 287l-22 -287h-95 q-10 98 -19 196.5t-13 198.5q-2 -76 -8.5 -148.5t-14.5 -145.5l-12 -101h-92zM180 932q10 0 19.5 -1t15.5 7q10 10 11 28.5t1 32.5t-1 33t-11 29q-6 10 -15.5 9t-19.5 -1v-137zM182 541h86l27 55q2 6 8 16.5t10 21.5t5 19.5t-7 10.5q-16 4 -37.5 -14.5t-31.5 -28.5 q-33 -37 -60 -80zM293 793v311h113v-41h-68v-88h55v-45h-55v-94h68v-43h-113zM305 500q4 23 16.5 45t22.5 43q10 0 27 8q-6 -16 -12.5 -30.5t-14.5 -28.5q-2 -6 -8 -15.5t-10 -19.5t-4 -18.5t8 -10.5q18 -4 34.5 16.5t22.5 30.5q10 16 16.5 35.5t6.5 38.5q18 4 20 -10.5 t-2 -26.5q-8 -33 -37 -63q16 -4 30.5 6t22.5 24l15 23q10 16 24.5 28.5t32.5 16.5q16 4 32.5 -3t35.5 -1l-37 -70q-4 -6 -11.5 -20.5t1.5 -18.5q10 -8 22 4.5t23 26.5q4 10 10 20.5t12 20.5l17 37q16 0 30 8l-39 -78q-4 -6 -10 -19.5t2 -19.5q8 -8 20.5 3.5t20.5 25.5 q8 18 19.5 38.5t19.5 39.5q10 18 18.5 36.5t18.5 36.5q16 -4 29 7l-56 -113q-4 -10 -9 -20.5t-9 -20.5t-8 -25.5t12 -7.5q10 4 19.5 14.5t17.5 22.5q6 16 16 31q10 16 24.5 28.5t33.5 16.5q18 4 34.5 -3t34.5 -1q-10 -16 -18 -33.5t-19 -36.5q-4 -6 -10 -20.5t0 -18.5 q6 -6 13.5 -2t14.5 11.5t13 16.5l10 15l2 4l66 135q16 0 26 7q-10 -25 -20 -48.5t-27 -46.5q14 14 34 23.5t34 -12.5q12 -20 1 -47t-26 -43q12 -2 22.5 4t20.5 14q8 18 18.5 37.5t20.5 38.5l37 73q14 -4 27 7q-14 -29 -26.5 -56.5t-29.5 -56.5q-4 -10 -9 -20.5t-11 -20.5 q-2 -4 -4 -11t-2 -13.5t2 -9.5t12 1t21.5 16.5t17.5 24.5q6 27 25 45q6 6 19 15.5t28.5 13.5t28 1t16.5 -22q2 -16 -7.5 -30.5t-24.5 -23.5t-33.5 -14t-30.5 -5q-2 -12 6 -19.5t20 -7.5q27 0 49.5 14.5t34.5 36.5l8 -4q-16 -29 -46.5 -46t-63.5 -11t-33 37 q-8 -10 -16.5 -19.5t-18.5 -13.5q-14 -8 -29.5 -3t-11.5 25v5q-4 -4 -8 -5q-8 -6 -25 -6h-14q-4 0 -6 -4t-6 -4q-20 -12 -44 -10t-36 22q-14 -18 -35 -24q-18 -4 -25.5 6t-0.5 27q-10 -14 -28 -27.5t-36 -1.5q-14 8 -14 29q-12 -18 -29 -29q-16 -8 -30.5 -3t-12.5 21 q-14 -14 -23 -18q-16 -8 -31.5 -3t-11.5 23q-8 -8 -16 -14t-18 -10q-18 -4 -25.5 6t0.5 27h-2q-10 -14 -27.5 -27.5t-35.5 -1.5q-10 4 -12.5 13t-0.5 20q-10 -10 -20 -13q-8 -4 -27 -4q-10 0 -12 -2t-8 -6q-10 -6 -23.5 -10t-24 -2t-16.5 11t-2 26zM418 793v311h47h28.5 t26.5 -4q20 -10 26.5 -34t6.5 -42q2 -23 -2 -56.5t-29 -43.5l37 -131h-49l-27 125q-6 0 -11 1t-11 1v-127h-43zM460 484.5q1 -9.5 13 -9.5q14 0 26.5 12.5t21.5 28.5t16.5 33.5t13.5 30.5q-20 10 -41 -6.5t-31 -32.5q-2 -4 -8 -14.5t-9 -21.5t-2 -20.5zM461 950q8 0 16 -1 t15 3q12 10 14 26.5t2 31.5q0 12 -2 29.5t-14 25.5q-6 4 -13.5 4h-17.5v-119zM569 1018q-4 23 4.5 46t30.5 36q18 10 44 8t42 -18q18 -18 18.5 -40t0.5 -44q-12 0 -23.5 1t-21.5 1q0 12 1 25.5t-10 23.5q-18 16 -29.5 1.5t-13.5 -30.5q0 -23 15.5 -37t31.5 -26t28.5 -27.5 t17.5 -34.5q4 -23 0.5 -44t-14.5 -37.5t-28.5 -26t-41.5 -4.5q-41 8 -46.5 39.5t-3.5 64.5h41q0 -10 -1 -20.5t1 -20.5q4 -12 15.5 -20.5t23.5 2.5q10 8 12.5 25.5t-1.5 29.5q-4 16 -14.5 27.5t-24.5 19.5q-47 31 -54 80zM637 641q2 8 9 11t14.5 1t11.5 -8t-2 -14 q-6 -14 -21.5 -10t-11.5 20zM725 980q0 42 12 81q6 16 16.5 29.5t30.5 15.5q43 10 64 -27q16 -35 17 -76.5t1 -78.5q0 -18 -2 -42t-9 -43.5t-20 -33.5t-38 -14q-23 0 -36 10t-20.5 26.5t-9.5 36t-4 35.5q-2 39 -2 81zM736.5 484.5q1.5 -9.5 13.5 -9.5q14 0 26 12.5 t21.5 28.5t16.5 33.5t13 30.5q-23 10 -42 -6.5t-29 -32.5q-2 -4 -8.5 -14.5t-9.5 -21.5t-1.5 -20.5zM769 920.5q-1 -19.5 1 -40t8 -36t19 -15.5q12 0 17 15.5t7 36t1 40t-1 27.5t1 28.5t-1 41t-7 36t-17 15.5t-18.5 -15.5t-8.5 -36t-1 -41t1 -28.5t-1 -27.5zM870 483 q23 -16 43.5 0.5t30.5 32.5q2 4 8 14.5t8.5 21.5t0 19.5t-14.5 8.5q-14 0 -25.5 -10.5t-20.5 -26t-16 -32.5t-14 -28zM885 793v311h39q16 -53 31.5 -107.5t27.5 -109.5q-4 53 -5 108.5t-1 108.5h41v-311h-43q-14 53 -29.5 106t-27.5 109q4 -37 4 -73t4 -73v-69h-41z M1030 793l37 311h72l39 -311h-43l-11 75h-43l-8 -75h-43zM1071 -166q0 20 12.5 30.5t27.5 10.5t27.5 -10.5t12.5 -30.5t-12.5 -30.5t-27.5 -10.5t-27.5 10.5t-12.5 30.5zM1085 911h35q-4 37 -9 74t-7 74q-2 -23 -5 -47t-7 -51zM1092 508q23 0 50 19.5t27 43.5q0 16 -11 14.5 t-21 -7.5q-10 -8 -18.5 -19.5t-14.5 -21.5t-8 -16.5t-4 -12.5zM1174 -207l59 500h117l61 -500h-72l-14 119h-68l-16 -119h-67zM1188 793v311h45v-273h65v-38h-110zM1262 -18h59q-6 59 -16.5 119.5t-14.5 121.5q-2 -41 -7 -80t-9 -80q-4 -20 -6 -40.5t-6 -40.5zM1274 489 q0 16 9 31t15 31q12 18 19 37q20 0 31 8l-39 -78q-4 -6 -10.5 -19.5t-0.5 -19.5t14.5 -1t16.5 14.5t14.5 18.5t8.5 13l30 66q12 -2 29 6q-6 -12 -11 -21.5t-14 -19.5v-2q12 14 30 27.5t36 15.5q25 0 24 -18.5t-10 -34.5q-4 -8 -19 -29.5t-9 -32.5q4 -8 13 -3t17.5 14.5 t15.5 18.5t9 13l8 -4q-10 -14 -20.5 -28.5t-26.5 -24.5q-14 -8 -28.5 -4t-12.5 24q2 16 13.5 32t17.5 30q2 2 4 8t3 11t-1 9.5t-10 2.5q-23 -4 -40.5 -29t-27.5 -41l-24 -49h-25l8 18q-4 -4 -8 -7t-8 -5q-16 -8 -30.5 -3t-10.5 25zM1331 641q2 8 10.5 11t15.5 1t10 -8 t-1 -14q-8 -14 -23.5 -10t-11.5 20zM1365 905.5q1 28.5 1 52.5v146h45v-217q0 -10 -1 -20.5t3 -20.5t14.5 -15.5t20.5 5.5q10 10 11 27.5t1 29.5q2 25 1 49.5t-1 48.5v113h45v-146q0 -25 1 -53t-4 -54t-19 -43t-47 -17q-31 0 -46.5 17t-20.5 43t-4 54.5zM1444 -207v500h74 q23 0 45 1t43 -9q35 -16 45 -56.5t10 -74.5v-39t-5 -45.5t-15.5 -41t-28.5 -24.5l61 -211h-80l-43 199h-34v-199h-72zM1516 43q12 0 25 -1t24 7q18 16 22 41t4 45q0 23 -4 49.5t-20 42.5q-10 10 -24.5 9.5t-26.5 -0.5v-193zM1522 408l92 188h-31l8 12h29q6 16 16.5 32.5 t30.5 21.5q12 4 31 -3q4 -2 11 -9t1 -13q-10 -6 -14 1t-2 15q-23 8 -34 -11t-15 -34h28l-6 -12h-29l-90 -184q-10 0 -26 -4zM1524 895h45q0 -10 -2 -20.5t2 -20.5q4 -12 14 -20.5t23 2.5q12 8 14 25.5t-2 29.5q-4 16 -14.5 27.5t-24.5 19.5q-47 27 -55 80q-2 23 5 46t30 36 q20 10 44.5 8t41.5 -18q18 -18 17 -40t-1 -44q-10 0 -20.5 1t-20.5 1q0 12 1 25.5t-9 23.5q-18 16 -29.5 1.5t-13.5 -30.5q0 -23 14 -37t31 -26q35 -25 47 -62q4 -23 1 -44t-14.5 -37.5t-30 -26t-42.5 -4.5q-41 8 -46 39.5t-5 64.5zM1627 488.5q3 15.5 9 27.5l35 72 q12 0 29 8l-27 -55q-4 -8 -16 -30t-4 -30q12 -10 29.5 5.5t23.5 23.5t10 15t10 18l25 49q8 0 25 4q-8 -18 -17.5 -37.5t-19.5 -38.5q-4 -8 -10.5 -20.5t0.5 -20.5q8 -10 20 2.5t23 26.5q8 18 19 38.5t21 39.5q8 18 16.5 36.5t18.5 36.5q14 -4 29 7l-55 -113l-21 -41 q-4 -10 -7 -25.5t13 -7.5q16 6 31 27q8 20 19.5 40.5t21.5 39.5q8 18 16.5 36.5t18.5 36.5q14 -4 29 7l-56 -113l-20 -41q-2 -4 -4 -11t-3 -13.5t1 -9.5t12 1q14 4 24.5 18.5t16.5 26.5l8 -4q-10 -16 -20.5 -30.5t-26.5 -22.5q-14 -8 -28.5 -3t-12.5 21q-12 -12 -25 -18 q-14 -8 -28.5 -3t-12.5 23q-10 -10 -19 -18t-22 -8q-18 0 -20 12t4 25q-12 -14 -34 -28.5t-38 -4.5q-14 8 -11 23.5zM1681 793v311h111v-41h-66v-88h56v-45h-56v-94h66v-43h-111zM1704 -207v500h72v-500h-72zM1821 -166q0 20 12 30.5t27.5 10.5t28 -10.5t12.5 -30.5 t-12.5 -30.5t-28 -10.5t-27.5 10.5t-12 30.5zM1860 980q0 42 12 81q6 16 17.5 29.5t29.5 15.5q41 10 63 -27q18 -35 18.5 -76.5t0.5 -78.5q0 -18 -1 -42t-8 -43.5t-21.5 -33.5t-39.5 -14q-23 0 -36 10t-19 26.5t-9 36t-3 35.5q-4 39 -4 81zM1904 920.5q-1 -19.5 1 -40t8 -36 t18 -15.5t18.5 15.5t8.5 36t1 40t-1 27.5t1 28.5t-1 41t-8.5 36t-18.5 15.5t-18 -15.5t-8 -36t-1 -41t1 -28.5t-1 -27.5zM1939 408l95 188h-31l6 12h31q6 16 16 32.5t31 21.5q12 4 31 -3q4 -2 11 -9t-1 -13q-10 -6 -13.5 1t-0.5 15q-23 8 -34.5 -11t-15.5 -34h29l-6 -12h-29 l-90 -184q-8 0 -29 -4zM1946 -207v500h65q25 -88 50.5 -174t45.5 -176q-8 88 -9 175t-1 175h66v-500h-68q-25 86 -50.5 171t-43.5 171q4 -59 6 -115.5t6 -115.5v-111h-67zM2019 793v311h39q16 -53 32.5 -107.5t29.5 -109.5q-4 53 -5 108.5t-1 108.5h40v-311h-43 q-16 53 -31.5 106t-27.5 109q4 -37 5 -73t3 -73v-69h-41zM2055 505.5q3 22.5 11 41.5q10 18 29 33.5t43 15.5q20 0 29.5 -12.5t9.5 -28.5t-7 -33.5t-16 -29.5q27 0 41 22l37 76q10 -2 27 6q-6 -12 -11 -21.5t-14 -19.5v-2q12 14 29.5 27.5t36.5 15.5q25 0 23.5 -18.5 t-7.5 -34.5q-6 -8 -20.5 -29.5t-7.5 -32.5q4 -6 11 -4t14 10.5t14.5 16.5t11.5 14l39 78h-17l6 12h17l16 35q16 0 29 6l-21 -41h31l-8 -12h-29l-37 -76q-4 -8 -10 -20.5t-2 -20.5q6 -6 14.5 -1t17.5 14.5t15 18.5t8 13l9 -4q-10 -16 -24.5 -34.5t-37.5 -22.5q-18 -4 -24.5 4 t-1.5 20q-6 -6 -12.5 -11t-12.5 -9q-14 -8 -29.5 -4t-13.5 24q2 16 13.5 32t17.5 30q2 6 7 19.5t-9 11.5q-23 -4 -41.5 -29t-28.5 -41q-8 -10 -13 -23.5t-12 -25.5h-24l14 33l-2 -2q-8 -4 -20 -9h-19q-10 -12 -21.5 -16t-17.5 -4q-20 -8 -37 6q-16 14 -13 36.5zM2079 488.5 q0 -17.5 16 -17.5q12 0 26.5 18.5t23.5 40t9 39t-14 17.5q-16 0 -30.5 -18.5t-22.5 -40t-8 -39zM2171 793v311h45v-273h65v-38h-110zM2208 105.5q2 54.5 16 103.5q4 23 14.5 43t30.5 31q20 12 45 14t47 -6q25 -10 39.5 -30.5t20.5 -46.5t8 -52.5t2 -48.5l-70 -7q2 23 0 48.5 t-10 48.5q-6 16 -21.5 26.5t-29.5 -10.5q-12 -16 -14 -41.5t-5 -48.5q-2 -25 -2 -48.5v-45.5v-47.5t5 -46.5q0 -18 4 -45t22 -37q20 -12 32.5 3t16.5 40.5t5 51.5t1 36h-51v57h119v-252h-53l-2 68q-4 -23 -15.5 -45.5t-33.5 -28.5q-23 -6 -45.5 4t-36.5 27q-29 35 -33 86 t-4 92q-4 53 -2 107.5zM2286 1104h43q8 -39 15 -79t11 -81q2 41 10.5 80t16.5 80h43q-10 -43 -20.5 -87t-20.5 -87q-10 -33 -7 -68t3 -69h-47q0 35 1 69.5t-7 67.5q-10 43 -20.5 87t-20.5 87zM2415 485q8 16 23 9t7 -21q-8 -16 -23.5 -9t-6.5 21zM2435 819q0 12 7 19.5 t16.5 7.5t17.5 -7.5t8 -19.5t-8 -19t-17.5 -7t-16.5 7t-7 19zM2437 1104h45q0 -57 -2 -114.5t-6 -117.5h-29q-4 59 -6 116t-2 116zM2456 566q-2 5 2 14q8 14 22 7.5t6 -20.5q-4 -8 -10 -10t-12 1t-8 8z" />
<glyph unicode="5" d="M109 541h47q23 35 53.5 69.5t71.5 55.5q12 8 32.5 10t24.5 -21q4 -10 -1 -21t-9 -22q-10 -20 -19.5 -39.5t-19.5 -37.5q-6 -14 -18.5 -36t-6.5 -38q-16 -4 -20 4t-1 20.5t9 25.5t10 19l-86 -4q-10 -16 -18 -34.5t-11 -38.5q-16 -4 -19 5t0 23.5t9 27.5t10 17l-28 -2z M135 793v311h70q53 0 65 -53q8 -29 7 -66t-17 -65q-14 -20 -35.5 -22.5t-44.5 -2.5v-102h-45zM152 -481h2314v-45h-2314v45zM152 1374v45h2314v-45h-2314zM154 293h61q10 -104 17.5 -207.5t11.5 -208.5q6 78 11 158t15 158l13 100h79q10 -86 18.5 -170t14.5 -170l6 -76 q6 84 9.5 165t11.5 161l10 90h84q10 -104 17.5 -207.5t13.5 -208.5q6 78 11 158t13 158q4 25 6.5 49t6.5 51h82q10 -86 17 -170t15 -170l4 -76q6 84 10.5 165t12.5 161l8 90h86q10 -104 17.5 -207.5t11.5 -208.5q6 78 11 158t15 158l13 100h80q10 -86 18 -170t14 -170l7 -76 q6 84 9 165t11 161q4 23 5 45t3 45h62l-41 -500h-94q-10 98 -19.5 197.5t-13.5 199.5q-4 -74 -10.5 -148.5t-14.5 -147.5l-8 -101h-96l-23 281l-24 -281h-93q-10 98 -20 197.5t-14 199.5q-4 -74 -9.5 -148.5t-13.5 -147.5l-10 -101h-94l-25 287l-22 -287h-95 q-10 98 -19 196.5t-13 198.5q-2 -76 -8.5 -148.5t-14.5 -145.5l-12 -101h-92zM180 932q10 0 19.5 -1t15.5 7q10 10 11 28.5t1 32.5t-1 33t-11 29q-6 10 -15.5 9t-19.5 -1v-137zM182 541h86l27 55q2 6 8 16.5t10 21.5t5 19.5t-7 10.5q-16 4 -37.5 -14.5t-31.5 -28.5 q-33 -37 -60 -80zM293 793v311h113v-41h-68v-88h55v-45h-55v-94h68v-43h-113zM305 500q4 23 16.5 45t22.5 43q10 0 27 8q-6 -16 -12.5 -30.5t-14.5 -28.5q-2 -6 -8 -15.5t-10 -19.5t-4 -18.5t8 -10.5q18 -4 34.5 16.5t22.5 30.5q10 16 16.5 35.5t6.5 38.5q18 4 20 -10.5 t-2 -26.5q-8 -33 -37 -63q16 -4 30.5 6t22.5 24l15 23q10 16 24.5 28.5t32.5 16.5q16 4 32.5 -3t35.5 -1l-37 -70q-4 -6 -11.5 -20.5t1.5 -18.5q10 -8 22 4.5t23 26.5q4 10 10 20.5t12 20.5l17 37q16 0 30 8l-39 -78q-4 -6 -10 -19.5t2 -19.5q8 -8 20.5 3.5t20.5 25.5 q8 18 19.5 38.5t19.5 39.5q10 18 18.5 36.5t18.5 36.5q16 -4 29 7l-56 -113q-4 -10 -9 -20.5t-9 -20.5t-8 -25.5t12 -7.5q10 4 19.5 14.5t17.5 22.5q6 16 16 31q10 16 24.5 28.5t33.5 16.5q18 4 34.5 -3t34.5 -1q-10 -16 -18 -33.5t-19 -36.5q-4 -6 -10 -20.5t0 -18.5 q6 -6 13.5 -2t14.5 11.5t13 16.5l10 15l2 4l66 135q16 0 26 7q-10 -25 -20 -48.5t-27 -46.5q14 14 34 23.5t34 -12.5q12 -20 1 -47t-26 -43q12 -2 22.5 4t20.5 14q8 18 18.5 37.5t20.5 38.5l37 73q14 -4 27 7q-14 -29 -26.5 -56.5t-29.5 -56.5q-4 -10 -9 -20.5t-11 -20.5 q-2 -4 -4 -11t-2 -13.5t2 -9.5t12 1t21.5 16.5t17.5 24.5q6 27 25 45q6 6 19 15.5t28.5 13.5t28 1t16.5 -22q2 -16 -7.5 -30.5t-24.5 -23.5t-33.5 -14t-30.5 -5q-2 -12 6 -19.5t20 -7.5q27 0 49.5 14.5t34.5 36.5l8 -4q-16 -29 -46.5 -46t-63.5 -11t-33 37 q-8 -10 -16.5 -19.5t-18.5 -13.5q-14 -8 -29.5 -3t-11.5 25v5q-4 -4 -8 -5q-8 -6 -25 -6h-14q-4 0 -6 -4t-6 -4q-20 -12 -44 -10t-36 22q-14 -18 -35 -24q-18 -4 -25.5 6t-0.5 27q-10 -14 -28 -27.5t-36 -1.5q-14 8 -14 29q-12 -18 -29 -29q-16 -8 -30.5 -3t-12.5 21 q-14 -14 -23 -18q-16 -8 -31.5 -3t-11.5 23q-8 -8 -16 -14t-18 -10q-18 -4 -25.5 6t0.5 27h-2q-10 -14 -27.5 -27.5t-35.5 -1.5q-10 4 -12.5 13t-0.5 20q-10 -10 -20 -13q-8 -4 -27 -4q-10 0 -12 -2t-8 -6q-10 -6 -23.5 -10t-24 -2t-16.5 11t-2 26zM418 793v311h47h28.5 t26.5 -4q20 -10 26.5 -34t6.5 -42q2 -23 -2 -56.5t-29 -43.5l37 -131h-49l-27 125q-6 0 -11 1t-11 1v-127h-43zM460 484.5q1 -9.5 13 -9.5q14 0 26.5 12.5t21.5 28.5t16.5 33.5t13.5 30.5q-20 10 -41 -6.5t-31 -32.5q-2 -4 -8 -14.5t-9 -21.5t-2 -20.5zM461 950q8 0 16 -1 t15 3q12 10 14 26.5t2 31.5q0 12 -2 29.5t-14 25.5q-6 4 -13.5 4h-17.5v-119zM569 1018q-4 23 4.5 46t30.5 36q18 10 44 8t42 -18q18 -18 18.5 -40t0.5 -44q-12 0 -23.5 1t-21.5 1q0 12 1 25.5t-10 23.5q-18 16 -29.5 1.5t-13.5 -30.5q0 -23 15.5 -37t31.5 -26t28.5 -27.5 t17.5 -34.5q4 -23 0.5 -44t-14.5 -37.5t-28.5 -26t-41.5 -4.5q-41 8 -46.5 39.5t-3.5 64.5h41q0 -10 -1 -20.5t1 -20.5q4 -12 15.5 -20.5t23.5 2.5q10 8 12.5 25.5t-1.5 29.5q-4 16 -14.5 27.5t-24.5 19.5q-47 31 -54 80zM637 641q2 8 9 11t14.5 1t11.5 -8t-2 -14 q-6 -14 -21.5 -10t-11.5 20zM725 980q0 42 12 81q6 16 16.5 29.5t30.5 15.5q43 10 64 -27q16 -35 17 -76.5t1 -78.5q0 -18 -2 -42t-9 -43.5t-20 -33.5t-38 -14q-23 0 -36 10t-20.5 26.5t-9.5 36t-4 35.5q-2 39 -2 81zM736.5 484.5q1.5 -9.5 13.5 -9.5q14 0 26 12.5 t21.5 28.5t16.5 33.5t13 30.5q-23 10 -42 -6.5t-29 -32.5q-2 -4 -8.5 -14.5t-9.5 -21.5t-1.5 -20.5zM769 920.5q-1 -19.5 1 -40t8 -36t19 -15.5q12 0 17 15.5t7 36t1 40t-1 27.5t1 28.5t-1 41t-7 36t-17 15.5t-18.5 -15.5t-8.5 -36t-1 -41t1 -28.5t-1 -27.5zM870 483 q23 -16 43.5 0.5t30.5 32.5q2 4 8 14.5t8.5 21.5t0 19.5t-14.5 8.5q-14 0 -25.5 -10.5t-20.5 -26t-16 -32.5t-14 -28zM885 793v311h39q16 -53 31.5 -107.5t27.5 -109.5q-4 53 -5 108.5t-1 108.5h41v-311h-43q-14 53 -29.5 106t-27.5 109q4 -37 4 -73t4 -73v-69h-41z M1030 793l37 311h72l39 -311h-43l-11 75h-43l-8 -75h-43zM1071 -166q0 20 12.5 30.5t27.5 10.5t27.5 -10.5t12.5 -30.5t-12.5 -30.5t-27.5 -10.5t-27.5 10.5t-12.5 30.5zM1085 911h35q-4 37 -9 74t-7 74q-2 -23 -5 -47t-7 -51zM1092 508q23 0 50 19.5t27 43.5q0 16 -11 14.5 t-21 -7.5q-10 -8 -18.5 -19.5t-14.5 -21.5t-8 -16.5t-4 -12.5zM1174 -207l59 500h117l61 -500h-72l-14 119h-68l-16 -119h-67zM1188 793v311h45v-273h65v-38h-110zM1262 -18h59q-6 59 -16.5 119.5t-14.5 121.5q-2 -41 -7 -80t-9 -80q-4 -20 -6 -40.5t-6 -40.5zM1274 489 q0 16 9 31t15 31q12 18 19 37q20 0 31 8l-39 -78q-4 -6 -10.5 -19.5t-0.5 -19.5t14.5 -1t16.5 14.5t14.5 18.5t8.5 13l30 66q12 -2 29 6q-6 -12 -11 -21.5t-14 -19.5v-2q12 14 30 27.5t36 15.5q25 0 24 -18.5t-10 -34.5q-4 -8 -19 -29.5t-9 -32.5q4 -8 13 -3t17.5 14.5 t15.5 18.5t9 13l8 -4q-10 -14 -20.5 -28.5t-26.5 -24.5q-14 -8 -28.5 -4t-12.5 24q2 16 13.5 32t17.5 30q2 2 4 8t3 11t-1 9.5t-10 2.5q-23 -4 -40.5 -29t-27.5 -41l-24 -49h-25l8 18q-4 -4 -8 -7t-8 -5q-16 -8 -30.5 -3t-10.5 25zM1331 641q2 8 10.5 11t15.5 1t10 -8 t-1 -14q-8 -14 -23.5 -10t-11.5 20zM1365 905.5q1 28.5 1 52.5v146h45v-217q0 -10 -1 -20.5t3 -20.5t14.5 -15.5t20.5 5.5q10 10 11 27.5t1 29.5q2 25 1 49.5t-1 48.5v113h45v-146q0 -25 1 -53t-4 -54t-19 -43t-47 -17q-31 0 -46.5 17t-20.5 43t-4 54.5zM1444 -207v500h74 q23 0 45 1t43 -9q35 -16 45 -56.5t10 -74.5v-39t-5 -45.5t-15.5 -41t-28.5 -24.5l61 -211h-80l-43 199h-34v-199h-72zM1516 43q12 0 25 -1t24 7q18 16 22 41t4 45q0 23 -4 49.5t-20 42.5q-10 10 -24.5 9.5t-26.5 -0.5v-193zM1522 408l92 188h-31l8 12h29q6 16 16.5 32.5 t30.5 21.5q12 4 31 -3q4 -2 11 -9t1 -13q-10 -6 -14 1t-2 15q-23 8 -34 -11t-15 -34h28l-6 -12h-29l-90 -184q-10 0 -26 -4zM1524 895h45q0 -10 -2 -20.5t2 -20.5q4 -12 14 -20.5t23 2.5q12 8 14 25.5t-2 29.5q-4 16 -14.5 27.5t-24.5 19.5q-47 27 -55 80q-2 23 5 46t30 36 q20 10 44.5 8t41.5 -18q18 -18 17 -40t-1 -44q-10 0 -20.5 1t-20.5 1q0 12 1 25.5t-9 23.5q-18 16 -29.5 1.5t-13.5 -30.5q0 -23 14 -37t31 -26q35 -25 47 -62q4 -23 1 -44t-14.5 -37.5t-30 -26t-42.5 -4.5q-41 8 -46 39.5t-5 64.5zM1627 488.5q3 15.5 9 27.5l35 72 q12 0 29 8l-27 -55q-4 -8 -16 -30t-4 -30q12 -10 29.5 5.5t23.5 23.5t10 15t10 18l25 49q8 0 25 4q-8 -18 -17.5 -37.5t-19.5 -38.5q-4 -8 -10.5 -20.5t0.5 -20.5q8 -10 20 2.5t23 26.5q8 18 19 38.5t21 39.5q8 18 16.5 36.5t18.5 36.5q14 -4 29 7l-55 -113l-21 -41 q-4 -10 -7 -25.5t13 -7.5q16 6 31 27q8 20 19.5 40.5t21.5 39.5q8 18 16.5 36.5t18.5 36.5q14 -4 29 7l-56 -113l-20 -41q-2 -4 -4 -11t-3 -13.5t1 -9.5t12 1q14 4 24.5 18.5t16.5 26.5l8 -4q-10 -16 -20.5 -30.5t-26.5 -22.5q-14 -8 -28.5 -3t-12.5 21q-12 -12 -25 -18 q-14 -8 -28.5 -3t-12.5 23q-10 -10 -19 -18t-22 -8q-18 0 -20 12t4 25q-12 -14 -34 -28.5t-38 -4.5q-14 8 -11 23.5zM1681 793v311h111v-41h-66v-88h56v-45h-56v-94h66v-43h-111zM1704 -207v500h72v-500h-72zM1821 -166q0 20 12 30.5t27.5 10.5t28 -10.5t12.5 -30.5 t-12.5 -30.5t-28 -10.5t-27.5 10.5t-12 30.5zM1860 980q0 42 12 81q6 16 17.5 29.5t29.5 15.5q41 10 63 -27q18 -35 18.5 -76.5t0.5 -78.5q0 -18 -1 -42t-8 -43.5t-21.5 -33.5t-39.5 -14q-23 0 -36 10t-19 26.5t-9 36t-3 35.5q-4 39 -4 81zM1904 920.5q-1 -19.5 1 -40t8 -36 t18 -15.5t18.5 15.5t8.5 36t1 40t-1 27.5t1 28.5t-1 41t-8.5 36t-18.5 15.5t-18 -15.5t-8 -36t-1 -41t1 -28.5t-1 -27.5zM1939 408l95 188h-31l6 12h31q6 16 16 32.5t31 21.5q12 4 31 -3q4 -2 11 -9t-1 -13q-10 -6 -13.5 1t-0.5 15q-23 8 -34.5 -11t-15.5 -34h29l-6 -12h-29 l-90 -184q-8 0 -29 -4zM1946 -207v500h65q25 -88 50.5 -174t45.5 -176q-8 88 -9 175t-1 175h66v-500h-68q-25 86 -50.5 171t-43.5 171q4 -59 6 -115.5t6 -115.5v-111h-67zM2019 793v311h39q16 -53 32.5 -107.5t29.5 -109.5q-4 53 -5 108.5t-1 108.5h40v-311h-43 q-16 53 -31.5 106t-27.5 109q4 -37 5 -73t3 -73v-69h-41zM2055 505.5q3 22.5 11 41.5q10 18 29 33.5t43 15.5q20 0 29.5 -12.5t9.5 -28.5t-7 -33.5t-16 -29.5q27 0 41 22l37 76q10 -2 27 6q-6 -12 -11 -21.5t-14 -19.5v-2q12 14 29.5 27.5t36.5 15.5q25 0 23.5 -18.5 t-7.5 -34.5q-6 -8 -20.5 -29.5t-7.5 -32.5q4 -6 11 -4t14 10.5t14.5 16.5t11.5 14l39 78h-17l6 12h17l16 35q16 0 29 6l-21 -41h31l-8 -12h-29l-37 -76q-4 -8 -10 -20.5t-2 -20.5q6 -6 14.5 -1t17.5 14.5t15 18.5t8 13l9 -4q-10 -16 -24.5 -34.5t-37.5 -22.5q-18 -4 -24.5 4 t-1.5 20q-6 -6 -12.5 -11t-12.5 -9q-14 -8 -29.5 -4t-13.5 24q2 16 13.5 32t17.5 30q2 6 7 19.5t-9 11.5q-23 -4 -41.5 -29t-28.5 -41q-8 -10 -13 -23.5t-12 -25.5h-24l14 33l-2 -2q-8 -4 -20 -9h-19q-10 -12 -21.5 -16t-17.5 -4q-20 -8 -37 6q-16 14 -13 36.5zM2079 488.5 q0 -17.5 16 -17.5q12 0 26.5 18.5t23.5 40t9 39t-14 17.5q-16 0 -30.5 -18.5t-22.5 -40t-8 -39zM2171 793v311h45v-273h65v-38h-110zM2208 105.5q2 54.5 16 103.5q4 23 14.5 43t30.5 31q20 12 45 14t47 -6q25 -10 39.5 -30.5t20.5 -46.5t8 -52.5t2 -48.5l-70 -7q2 23 0 48.5 t-10 48.5q-6 16 -21.5 26.5t-29.5 -10.5q-12 -16 -14 -41.5t-5 -48.5q-2 -25 -2 -48.5v-45.5v-47.5t5 -46.5q0 -18 4 -45t22 -37q20 -12 32.5 3t16.5 40.5t5 51.5t1 36h-51v57h119v-252h-53l-2 68q-4 -23 -15.5 -45.5t-33.5 -28.5q-23 -6 -45.5 4t-36.5 27q-29 35 -33 86 t-4 92q-4 53 -2 107.5zM2286 1104h43q8 -39 15 -79t11 -81q2 41 10.5 80t16.5 80h43q-10 -43 -20.5 -87t-20.5 -87q-10 -33 -7 -68t3 -69h-47q0 35 1 69.5t-7 67.5q-10 43 -20.5 87t-20.5 87zM2415 485q8 16 23 9t7 -21q-8 -16 -23.5 -9t-6.5 21zM2435 819q0 12 7 19.5 t16.5 7.5t17.5 -7.5t8 -19.5t-8 -19t-17.5 -7t-16.5 7t-7 19zM2437 1104h45q0 -57 -2 -114.5t-6 -117.5h-29q-4 59 -6 116t-2 116zM2456 566q-2 5 2 14q8 14 22 7.5t6 -20.5q-4 -8 -10 -10t-12 1t-8 8z" />
<glyph unicode="6" d="M109 541h47q23 35 53.5 69.5t71.5 55.5q12 8 32.5 10t24.5 -21q4 -10 -1 -21t-9 -22q-10 -20 -19.5 -39.5t-19.5 -37.5q-6 -14 -18.5 -36t-6.5 -38q-16 -4 -20 4t-1 20.5t9 25.5t10 19l-86 -4q-10 -16 -18 -34.5t-11 -38.5q-16 -4 -19 5t0 23.5t9 27.5t10 17l-28 -2z M135 793v311h70q53 0 65 -53q8 -29 7 -66t-17 -65q-14 -20 -35.5 -22.5t-44.5 -2.5v-102h-45zM152 -481h2314v-45h-2314v45zM152 1374v45h2314v-45h-2314zM154 293h61q10 -104 17.5 -207.5t11.5 -208.5q6 78 11 158t15 158l13 100h79q10 -86 18.5 -170t14.5 -170l6 -76 q6 84 9.5 165t11.5 161l10 90h84q10 -104 17.5 -207.5t13.5 -208.5q6 78 11 158t13 158q4 25 6.5 49t6.5 51h82q10 -86 17 -170t15 -170l4 -76q6 84 10.5 165t12.5 161l8 90h86q10 -104 17.5 -207.5t11.5 -208.5q6 78 11 158t15 158l13 100h80q10 -86 18 -170t14 -170l7 -76 q6 84 9 165t11 161q4 23 5 45t3 45h62l-41 -500h-94q-10 98 -19.5 197.5t-13.5 199.5q-4 -74 -10.5 -148.5t-14.5 -147.5l-8 -101h-96l-23 281l-24 -281h-93q-10 98 -20 197.5t-14 199.5q-4 -74 -9.5 -148.5t-13.5 -147.5l-10 -101h-94l-25 287l-22 -287h-95 q-10 98 -19 196.5t-13 198.5q-2 -76 -8.5 -148.5t-14.5 -145.5l-12 -101h-92zM180 932q10 0 19.5 -1t15.5 7q10 10 11 28.5t1 32.5t-1 33t-11 29q-6 10 -15.5 9t-19.5 -1v-137zM182 541h86l27 55q2 6 8 16.5t10 21.5t5 19.5t-7 10.5q-16 4 -37.5 -14.5t-31.5 -28.5 q-33 -37 -60 -80zM293 793v311h113v-41h-68v-88h55v-45h-55v-94h68v-43h-113zM305 500q4 23 16.5 45t22.5 43q10 0 27 8q-6 -16 -12.5 -30.5t-14.5 -28.5q-2 -6 -8 -15.5t-10 -19.5t-4 -18.5t8 -10.5q18 -4 34.5 16.5t22.5 30.5q10 16 16.5 35.5t6.5 38.5q18 4 20 -10.5 t-2 -26.5q-8 -33 -37 -63q16 -4 30.5 6t22.5 24l15 23q10 16 24.5 28.5t32.5 16.5q16 4 32.5 -3t35.5 -1l-37 -70q-4 -6 -11.5 -20.5t1.5 -18.5q10 -8 22 4.5t23 26.5q4 10 10 20.5t12 20.5l17 37q16 0 30 8l-39 -78q-4 -6 -10 -19.5t2 -19.5q8 -8 20.5 3.5t20.5 25.5 q8 18 19.5 38.5t19.5 39.5q10 18 18.5 36.5t18.5 36.5q16 -4 29 7l-56 -113q-4 -10 -9 -20.5t-9 -20.5t-8 -25.5t12 -7.5q10 4 19.5 14.5t17.5 22.5q6 16 16 31q10 16 24.5 28.5t33.5 16.5q18 4 34.5 -3t34.5 -1q-10 -16 -18 -33.5t-19 -36.5q-4 -6 -10 -20.5t0 -18.5 q6 -6 13.5 -2t14.5 11.5t13 16.5l10 15l2 4l66 135q16 0 26 7q-10 -25 -20 -48.5t-27 -46.5q14 14 34 23.5t34 -12.5q12 -20 1 -47t-26 -43q12 -2 22.5 4t20.5 14q8 18 18.5 37.5t20.5 38.5l37 73q14 -4 27 7q-14 -29 -26.5 -56.5t-29.5 -56.5q-4 -10 -9 -20.5t-11 -20.5 q-2 -4 -4 -11t-2 -13.5t2 -9.5t12 1t21.5 16.5t17.5 24.5q6 27 25 45q6 6 19 15.5t28.5 13.5t28 1t16.5 -22q2 -16 -7.5 -30.5t-24.5 -23.5t-33.5 -14t-30.5 -5q-2 -12 6 -19.5t20 -7.5q27 0 49.5 14.5t34.5 36.5l8 -4q-16 -29 -46.5 -46t-63.5 -11t-33 37 q-8 -10 -16.5 -19.5t-18.5 -13.5q-14 -8 -29.5 -3t-11.5 25v5q-4 -4 -8 -5q-8 -6 -25 -6h-14q-4 0 -6 -4t-6 -4q-20 -12 -44 -10t-36 22q-14 -18 -35 -24q-18 -4 -25.5 6t-0.5 27q-10 -14 -28 -27.5t-36 -1.5q-14 8 -14 29q-12 -18 -29 -29q-16 -8 -30.5 -3t-12.5 21 q-14 -14 -23 -18q-16 -8 -31.5 -3t-11.5 23q-8 -8 -16 -14t-18 -10q-18 -4 -25.5 6t0.5 27h-2q-10 -14 -27.5 -27.5t-35.5 -1.5q-10 4 -12.5 13t-0.5 20q-10 -10 -20 -13q-8 -4 -27 -4q-10 0 -12 -2t-8 -6q-10 -6 -23.5 -10t-24 -2t-16.5 11t-2 26zM418 793v311h47h28.5 t26.5 -4q20 -10 26.5 -34t6.5 -42q2 -23 -2 -56.5t-29 -43.5l37 -131h-49l-27 125q-6 0 -11 1t-11 1v-127h-43zM460 484.5q1 -9.5 13 -9.5q14 0 26.5 12.5t21.5 28.5t16.5 33.5t13.5 30.5q-20 10 -41 -6.5t-31 -32.5q-2 -4 -8 -14.5t-9 -21.5t-2 -20.5zM461 950q8 0 16 -1 t15 3q12 10 14 26.5t2 31.5q0 12 -2 29.5t-14 25.5q-6 4 -13.5 4h-17.5v-119zM569 1018q-4 23 4.5 46t30.5 36q18 10 44 8t42 -18q18 -18 18.5 -40t0.5 -44q-12 0 -23.5 1t-21.5 1q0 12 1 25.5t-10 23.5q-18 16 -29.5 1.5t-13.5 -30.5q0 -23 15.5 -37t31.5 -26t28.5 -27.5 t17.5 -34.5q4 -23 0.5 -44t-14.5 -37.5t-28.5 -26t-41.5 -4.5q-41 8 -46.5 39.5t-3.5 64.5h41q0 -10 -1 -20.5t1 -20.5q4 -12 15.5 -20.5t23.5 2.5q10 8 12.5 25.5t-1.5 29.5q-4 16 -14.5 27.5t-24.5 19.5q-47 31 -54 80zM637 641q2 8 9 11t14.5 1t11.5 -8t-2 -14 q-6 -14 -21.5 -10t-11.5 20zM725 980q0 42 12 81q6 16 16.5 29.5t30.5 15.5q43 10 64 -27q16 -35 17 -76.5t1 -78.5q0 -18 -2 -42t-9 -43.5t-20 -33.5t-38 -14q-23 0 -36 10t-20.5 26.5t-9.5 36t-4 35.5q-2 39 -2 81zM736.5 484.5q1.5 -9.5 13.5 -9.5q14 0 26 12.5 t21.5 28.5t16.5 33.5t13 30.5q-23 10 -42 -6.5t-29 -32.5q-2 -4 -8.5 -14.5t-9.5 -21.5t-1.5 -20.5zM769 920.5q-1 -19.5 1 -40t8 -36t19 -15.5q12 0 17 15.5t7 36t1 40t-1 27.5t1 28.5t-1 41t-7 36t-17 15.5t-18.5 -15.5t-8.5 -36t-1 -41t1 -28.5t-1 -27.5zM870 483 q23 -16 43.5 0.5t30.5 32.5q2 4 8 14.5t8.5 21.5t0 19.5t-14.5 8.5q-14 0 -25.5 -10.5t-20.5 -26t-16 -32.5t-14 -28zM885 793v311h39q16 -53 31.5 -107.5t27.5 -109.5q-4 53 -5 108.5t-1 108.5h41v-311h-43q-14 53 -29.5 106t-27.5 109q4 -37 4 -73t4 -73v-69h-41z M1030 793l37 311h72l39 -311h-43l-11 75h-43l-8 -75h-43zM1071 -166q0 20 12.5 30.5t27.5 10.5t27.5 -10.5t12.5 -30.5t-12.5 -30.5t-27.5 -10.5t-27.5 10.5t-12.5 30.5zM1085 911h35q-4 37 -9 74t-7 74q-2 -23 -5 -47t-7 -51zM1092 508q23 0 50 19.5t27 43.5q0 16 -11 14.5 t-21 -7.5q-10 -8 -18.5 -19.5t-14.5 -21.5t-8 -16.5t-4 -12.5zM1174 -207l59 500h117l61 -500h-72l-14 119h-68l-16 -119h-67zM1188 793v311h45v-273h65v-38h-110zM1262 -18h59q-6 59 -16.5 119.5t-14.5 121.5q-2 -41 -7 -80t-9 -80q-4 -20 -6 -40.5t-6 -40.5zM1274 489 q0 16 9 31t15 31q12 18 19 37q20 0 31 8l-39 -78q-4 -6 -10.5 -19.5t-0.5 -19.5t14.5 -1t16.5 14.5t14.5 18.5t8.5 13l30 66q12 -2 29 6q-6 -12 -11 -21.5t-14 -19.5v-2q12 14 30 27.5t36 15.5q25 0 24 -18.5t-10 -34.5q-4 -8 -19 -29.5t-9 -32.5q4 -8 13 -3t17.5 14.5 t15.5 18.5t9 13l8 -4q-10 -14 -20.5 -28.5t-26.5 -24.5q-14 -8 -28.5 -4t-12.5 24q2 16 13.5 32t17.5 30q2 2 4 8t3 11t-1 9.5t-10 2.5q-23 -4 -40.5 -29t-27.5 -41l-24 -49h-25l8 18q-4 -4 -8 -7t-8 -5q-16 -8 -30.5 -3t-10.5 25zM1331 641q2 8 10.5 11t15.5 1t10 -8 t-1 -14q-8 -14 -23.5 -10t-11.5 20zM1365 905.5q1 28.5 1 52.5v146h45v-217q0 -10 -1 -20.5t3 -20.5t14.5 -15.5t20.5 5.5q10 10 11 27.5t1 29.5q2 25 1 49.5t-1 48.5v113h45v-146q0 -25 1 -53t-4 -54t-19 -43t-47 -17q-31 0 -46.5 17t-20.5 43t-4 54.5zM1444 -207v500h74 q23 0 45 1t43 -9q35 -16 45 -56.5t10 -74.5v-39t-5 -45.5t-15.5 -41t-28.5 -24.5l61 -211h-80l-43 199h-34v-199h-72zM1516 43q12 0 25 -1t24 7q18 16 22 41t4 45q0 23 -4 49.5t-20 42.5q-10 10 -24.5 9.5t-26.5 -0.5v-193zM1522 408l92 188h-31l8 12h29q6 16 16.5 32.5 t30.5 21.5q12 4 31 -3q4 -2 11 -9t1 -13q-10 -6 -14 1t-2 15q-23 8 -34 -11t-15 -34h28l-6 -12h-29l-90 -184q-10 0 -26 -4zM1524 895h45q0 -10 -2 -20.5t2 -20.5q4 -12 14 -20.5t23 2.5q12 8 14 25.5t-2 29.5q-4 16 -14.5 27.5t-24.5 19.5q-47 27 -55 80q-2 23 5 46t30 36 q20 10 44.5 8t41.5 -18q18 -18 17 -40t-1 -44q-10 0 -20.5 1t-20.5 1q0 12 1 25.5t-9 23.5q-18 16 -29.5 1.5t-13.5 -30.5q0 -23 14 -37t31 -26q35 -25 47 -62q4 -23 1 -44t-14.5 -37.5t-30 -26t-42.5 -4.5q-41 8 -46 39.5t-5 64.5zM1627 488.5q3 15.5 9 27.5l35 72 q12 0 29 8l-27 -55q-4 -8 -16 -30t-4 -30q12 -10 29.5 5.5t23.5 23.5t10 15t10 18l25 49q8 0 25 4q-8 -18 -17.5 -37.5t-19.5 -38.5q-4 -8 -10.5 -20.5t0.5 -20.5q8 -10 20 2.5t23 26.5q8 18 19 38.5t21 39.5q8 18 16.5 36.5t18.5 36.5q14 -4 29 7l-55 -113l-21 -41 q-4 -10 -7 -25.5t13 -7.5q16 6 31 27q8 20 19.5 40.5t21.5 39.5q8 18 16.5 36.5t18.5 36.5q14 -4 29 7l-56 -113l-20 -41q-2 -4 -4 -11t-3 -13.5t1 -9.5t12 1q14 4 24.5 18.5t16.5 26.5l8 -4q-10 -16 -20.5 -30.5t-26.5 -22.5q-14 -8 -28.5 -3t-12.5 21q-12 -12 -25 -18 q-14 -8 -28.5 -3t-12.5 23q-10 -10 -19 -18t-22 -8q-18 0 -20 12t4 25q-12 -14 -34 -28.5t-38 -4.5q-14 8 -11 23.5zM1681 793v311h111v-41h-66v-88h56v-45h-56v-94h66v-43h-111zM1704 -207v500h72v-500h-72zM1821 -166q0 20 12 30.5t27.5 10.5t28 -10.5t12.5 -30.5 t-12.5 -30.5t-28 -10.5t-27.5 10.5t-12 30.5zM1860 980q0 42 12 81q6 16 17.5 29.5t29.5 15.5q41 10 63 -27q18 -35 18.5 -76.5t0.5 -78.5q0 -18 -1 -42t-8 -43.5t-21.5 -33.5t-39.5 -14q-23 0 -36 10t-19 26.5t-9 36t-3 35.5q-4 39 -4 81zM1904 920.5q-1 -19.5 1 -40t8 -36 t18 -15.5t18.5 15.5t8.5 36t1 40t-1 27.5t1 28.5t-1 41t-8.5 36t-18.5 15.5t-18 -15.5t-8 -36t-1 -41t1 -28.5t-1 -27.5zM1939 408l95 188h-31l6 12h31q6 16 16 32.5t31 21.5q12 4 31 -3q4 -2 11 -9t-1 -13q-10 -6 -13.5 1t-0.5 15q-23 8 -34.5 -11t-15.5 -34h29l-6 -12h-29 l-90 -184q-8 0 -29 -4zM1946 -207v500h65q25 -88 50.5 -174t45.5 -176q-8 88 -9 175t-1 175h66v-500h-68q-25 86 -50.5 171t-43.5 171q4 -59 6 -115.5t6 -115.5v-111h-67zM2019 793v311h39q16 -53 32.5 -107.5t29.5 -109.5q-4 53 -5 108.5t-1 108.5h40v-311h-43 q-16 53 -31.5 106t-27.5 109q4 -37 5 -73t3 -73v-69h-41zM2055 505.5q3 22.5 11 41.5q10 18 29 33.5t43 15.5q20 0 29.5 -12.5t9.5 -28.5t-7 -33.5t-16 -29.5q27 0 41 22l37 76q10 -2 27 6q-6 -12 -11 -21.5t-14 -19.5v-2q12 14 29.5 27.5t36.5 15.5q25 0 23.5 -18.5 t-7.5 -34.5q-6 -8 -20.5 -29.5t-7.5 -32.5q4 -6 11 -4t14 10.5t14.5 16.5t11.5 14l39 78h-17l6 12h17l16 35q16 0 29 6l-21 -41h31l-8 -12h-29l-37 -76q-4 -8 -10 -20.5t-2 -20.5q6 -6 14.5 -1t17.5 14.5t15 18.5t8 13l9 -4q-10 -16 -24.5 -34.5t-37.5 -22.5q-18 -4 -24.5 4 t-1.5 20q-6 -6 -12.5 -11t-12.5 -9q-14 -8 -29.5 -4t-13.5 24q2 16 13.5 32t17.5 30q2 6 7 19.5t-9 11.5q-23 -4 -41.5 -29t-28.5 -41q-8 -10 -13 -23.5t-12 -25.5h-24l14 33l-2 -2q-8 -4 -20 -9h-19q-10 -12 -21.5 -16t-17.5 -4q-20 -8 -37 6q-16 14 -13 36.5zM2079 488.5 q0 -17.5 16 -17.5q12 0 26.5 18.5t23.5 40t9 39t-14 17.5q-16 0 -30.5 -18.5t-22.5 -40t-8 -39zM2171 793v311h45v-273h65v-38h-110zM2208 105.5q2 54.5 16 103.5q4 23 14.5 43t30.5 31q20 12 45 14t47 -6q25 -10 39.5 -30.5t20.5 -46.5t8 -52.5t2 -48.5l-70 -7q2 23 0 48.5 t-10 48.5q-6 16 -21.5 26.5t-29.5 -10.5q-12 -16 -14 -41.5t-5 -48.5q-2 -25 -2 -48.5v-45.5v-47.5t5 -46.5q0 -18 4 -45t22 -37q20 -12 32.5 3t16.5 40.5t5 51.5t1 36h-51v57h119v-252h-53l-2 68q-4 -23 -15.5 -45.5t-33.5 -28.5q-23 -6 -45.5 4t-36.5 27q-29 35 -33 86 t-4 92q-4 53 -2 107.5zM2286 1104h43q8 -39 15 -79t11 -81q2 41 10.5 80t16.5 80h43q-10 -43 -20.5 -87t-20.5 -87q-10 -33 -7 -68t3 -69h-47q0 35 1 69.5t-7 67.5q-10 43 -20.5 87t-20.5 87zM2415 485q8 16 23 9t7 -21q-8 -16 -23.5 -9t-6.5 21zM2435 819q0 12 7 19.5 t16.5 7.5t17.5 -7.5t8 -19.5t-8 -19t-17.5 -7t-16.5 7t-7 19zM2437 1104h45q0 -57 -2 -114.5t-6 -117.5h-29q-4 59 -6 116t-2 116zM2456 566q-2 5 2 14q8 14 22 7.5t6 -20.5q-4 -8 -10 -10t-12 1t-8 8z" />
<glyph unicode="7" d="M109 541h47q23 35 53.5 69.5t71.5 55.5q12 8 32.5 10t24.5 -21q4 -10 -1 -21t-9 -22q-10 -20 -19.5 -39.5t-19.5 -37.5q-6 -14 -18.5 -36t-6.5 -38q-16 -4 -20 4t-1 20.5t9 25.5t10 19l-86 -4q-10 -16 -18 -34.5t-11 -38.5q-16 -4 -19 5t0 23.5t9 27.5t10 17l-28 -2z M135 793v311h70q53 0 65 -53q8 -29 7 -66t-17 -65q-14 -20 -35.5 -22.5t-44.5 -2.5v-102h-45zM152 -481h2314v-45h-2314v45zM152 1374v45h2314v-45h-2314zM154 293h61q10 -104 17.5 -207.5t11.5 -208.5q6 78 11 158t15 158l13 100h79q10 -86 18.5 -170t14.5 -170l6 -76 q6 84 9.5 165t11.5 161l10 90h84q10 -104 17.5 -207.5t13.5 -208.5q6 78 11 158t13 158q4 25 6.5 49t6.5 51h82q10 -86 17 -170t15 -170l4 -76q6 84 10.5 165t12.5 161l8 90h86q10 -104 17.5 -207.5t11.5 -208.5q6 78 11 158t15 158l13 100h80q10 -86 18 -170t14 -170l7 -76 q6 84 9 165t11 161q4 23 5 45t3 45h62l-41 -500h-94q-10 98 -19.5 197.5t-13.5 199.5q-4 -74 -10.5 -148.5t-14.5 -147.5l-8 -101h-96l-23 281l-24 -281h-93q-10 98 -20 197.5t-14 199.5q-4 -74 -9.5 -148.5t-13.5 -147.5l-10 -101h-94l-25 287l-22 -287h-95 q-10 98 -19 196.5t-13 198.5q-2 -76 -8.5 -148.5t-14.5 -145.5l-12 -101h-92zM180 932q10 0 19.5 -1t15.5 7q10 10 11 28.5t1 32.5t-1 33t-11 29q-6 10 -15.5 9t-19.5 -1v-137zM182 541h86l27 55q2 6 8 16.5t10 21.5t5 19.5t-7 10.5q-16 4 -37.5 -14.5t-31.5 -28.5 q-33 -37 -60 -80zM293 793v311h113v-41h-68v-88h55v-45h-55v-94h68v-43h-113zM305 500q4 23 16.5 45t22.5 43q10 0 27 8q-6 -16 -12.5 -30.5t-14.5 -28.5q-2 -6 -8 -15.5t-10 -19.5t-4 -18.5t8 -10.5q18 -4 34.5 16.5t22.5 30.5q10 16 16.5 35.5t6.5 38.5q18 4 20 -10.5 t-2 -26.5q-8 -33 -37 -63q16 -4 30.5 6t22.5 24l15 23q10 16 24.5 28.5t32.5 16.5q16 4 32.5 -3t35.5 -1l-37 -70q-4 -6 -11.5 -20.5t1.5 -18.5q10 -8 22 4.5t23 26.5q4 10 10 20.5t12 20.5l17 37q16 0 30 8l-39 -78q-4 -6 -10 -19.5t2 -19.5q8 -8 20.5 3.5t20.5 25.5 q8 18 19.5 38.5t19.5 39.5q10 18 18.5 36.5t18.5 36.5q16 -4 29 7l-56 -113q-4 -10 -9 -20.5t-9 -20.5t-8 -25.5t12 -7.5q10 4 19.5 14.5t17.5 22.5q6 16 16 31q10 16 24.5 28.5t33.5 16.5q18 4 34.5 -3t34.5 -1q-10 -16 -18 -33.5t-19 -36.5q-4 -6 -10 -20.5t0 -18.5 q6 -6 13.5 -2t14.5 11.5t13 16.5l10 15l2 4l66 135q16 0 26 7q-10 -25 -20 -48.5t-27 -46.5q14 14 34 23.5t34 -12.5q12 -20 1 -47t-26 -43q12 -2 22.5 4t20.5 14q8 18 18.5 37.5t20.5 38.5l37 73q14 -4 27 7q-14 -29 -26.5 -56.5t-29.5 -56.5q-4 -10 -9 -20.5t-11 -20.5 q-2 -4 -4 -11t-2 -13.5t2 -9.5t12 1t21.5 16.5t17.5 24.5q6 27 25 45q6 6 19 15.5t28.5 13.5t28 1t16.5 -22q2 -16 -7.5 -30.5t-24.5 -23.5t-33.5 -14t-30.5 -5q-2 -12 6 -19.5t20 -7.5q27 0 49.5 14.5t34.5 36.5l8 -4q-16 -29 -46.5 -46t-63.5 -11t-33 37 q-8 -10 -16.5 -19.5t-18.5 -13.5q-14 -8 -29.5 -3t-11.5 25v5q-4 -4 -8 -5q-8 -6 -25 -6h-14q-4 0 -6 -4t-6 -4q-20 -12 -44 -10t-36 22q-14 -18 -35 -24q-18 -4 -25.5 6t-0.5 27q-10 -14 -28 -27.5t-36 -1.5q-14 8 -14 29q-12 -18 -29 -29q-16 -8 -30.5 -3t-12.5 21 q-14 -14 -23 -18q-16 -8 -31.5 -3t-11.5 23q-8 -8 -16 -14t-18 -10q-18 -4 -25.5 6t0.5 27h-2q-10 -14 -27.5 -27.5t-35.5 -1.5q-10 4 -12.5 13t-0.5 20q-10 -10 -20 -13q-8 -4 -27 -4q-10 0 -12 -2t-8 -6q-10 -6 -23.5 -10t-24 -2t-16.5 11t-2 26zM418 793v311h47h28.5 t26.5 -4q20 -10 26.5 -34t6.5 -42q2 -23 -2 -56.5t-29 -43.5l37 -131h-49l-27 125q-6 0 -11 1t-11 1v-127h-43zM460 484.5q1 -9.5 13 -9.5q14 0 26.5 12.5t21.5 28.5t16.5 33.5t13.5 30.5q-20 10 -41 -6.5t-31 -32.5q-2 -4 -8 -14.5t-9 -21.5t-2 -20.5zM461 950q8 0 16 -1 t15 3q12 10 14 26.5t2 31.5q0 12 -2 29.5t-14 25.5q-6 4 -13.5 4h-17.5v-119zM569 1018q-4 23 4.5 46t30.5 36q18 10 44 8t42 -18q18 -18 18.5 -40t0.5 -44q-12 0 -23.5 1t-21.5 1q0 12 1 25.5t-10 23.5q-18 16 -29.5 1.5t-13.5 -30.5q0 -23 15.5 -37t31.5 -26t28.5 -27.5 t17.5 -34.5q4 -23 0.5 -44t-14.5 -37.5t-28.5 -26t-41.5 -4.5q-41 8 -46.5 39.5t-3.5 64.5h41q0 -10 -1 -20.5t1 -20.5q4 -12 15.5 -20.5t23.5 2.5q10 8 12.5 25.5t-1.5 29.5q-4 16 -14.5 27.5t-24.5 19.5q-47 31 -54 80zM637 641q2 8 9 11t14.5 1t11.5 -8t-2 -14 q-6 -14 -21.5 -10t-11.5 20zM725 980q0 42 12 81q6 16 16.5 29.5t30.5 15.5q43 10 64 -27q16 -35 17 -76.5t1 -78.5q0 -18 -2 -42t-9 -43.5t-20 -33.5t-38 -14q-23 0 -36 10t-20.5 26.5t-9.5 36t-4 35.5q-2 39 -2 81zM736.5 484.5q1.5 -9.5 13.5 -9.5q14 0 26 12.5 t21.5 28.5t16.5 33.5t13 30.5q-23 10 -42 -6.5t-29 -32.5q-2 -4 -8.5 -14.5t-9.5 -21.5t-1.5 -20.5zM769 920.5q-1 -19.5 1 -40t8 -36t19 -15.5q12 0 17 15.5t7 36t1 40t-1 27.5t1 28.5t-1 41t-7 36t-17 15.5t-18.5 -15.5t-8.5 -36t-1 -41t1 -28.5t-1 -27.5zM870 483 q23 -16 43.5 0.5t30.5 32.5q2 4 8 14.5t8.5 21.5t0 19.5t-14.5 8.5q-14 0 -25.5 -10.5t-20.5 -26t-16 -32.5t-14 -28zM885 793v311h39q16 -53 31.5 -107.5t27.5 -109.5q-4 53 -5 108.5t-1 108.5h41v-311h-43q-14 53 -29.5 106t-27.5 109q4 -37 4 -73t4 -73v-69h-41z M1030 793l37 311h72l39 -311h-43l-11 75h-43l-8 -75h-43zM1071 -166q0 20 12.5 30.5t27.5 10.5t27.5 -10.5t12.5 -30.5t-12.5 -30.5t-27.5 -10.5t-27.5 10.5t-12.5 30.5zM1085 911h35q-4 37 -9 74t-7 74q-2 -23 -5 -47t-7 -51zM1092 508q23 0 50 19.5t27 43.5q0 16 -11 14.5 t-21 -7.5q-10 -8 -18.5 -19.5t-14.5 -21.5t-8 -16.5t-4 -12.5zM1174 -207l59 500h117l61 -500h-72l-14 119h-68l-16 -119h-67zM1188 793v311h45v-273h65v-38h-110zM1262 -18h59q-6 59 -16.5 119.5t-14.5 121.5q-2 -41 -7 -80t-9 -80q-4 -20 -6 -40.5t-6 -40.5zM1274 489 q0 16 9 31t15 31q12 18 19 37q20 0 31 8l-39 -78q-4 -6 -10.5 -19.5t-0.5 -19.5t14.5 -1t16.5 14.5t14.5 18.5t8.5 13l30 66q12 -2 29 6q-6 -12 -11 -21.5t-14 -19.5v-2q12 14 30 27.5t36 15.5q25 0 24 -18.5t-10 -34.5q-4 -8 -19 -29.5t-9 -32.5q4 -8 13 -3t17.5 14.5 t15.5 18.5t9 13l8 -4q-10 -14 -20.5 -28.5t-26.5 -24.5q-14 -8 -28.5 -4t-12.5 24q2 16 13.5 32t17.5 30q2 2 4 8t3 11t-1 9.5t-10 2.5q-23 -4 -40.5 -29t-27.5 -41l-24 -49h-25l8 18q-4 -4 -8 -7t-8 -5q-16 -8 -30.5 -3t-10.5 25zM1331 641q2 8 10.5 11t15.5 1t10 -8 t-1 -14q-8 -14 -23.5 -10t-11.5 20zM1365 905.5q1 28.5 1 52.5v146h45v-217q0 -10 -1 -20.5t3 -20.5t14.5 -15.5t20.5 5.5q10 10 11 27.5t1 29.5q2 25 1 49.5t-1 48.5v113h45v-146q0 -25 1 -53t-4 -54t-19 -43t-47 -17q-31 0 -46.5 17t-20.5 43t-4 54.5zM1444 -207v500h74 q23 0 45 1t43 -9q35 -16 45 -56.5t10 -74.5v-39t-5 -45.5t-15.5 -41t-28.5 -24.5l61 -211h-80l-43 199h-34v-199h-72zM1516 43q12 0 25 -1t24 7q18 16 22 41t4 45q0 23 -4 49.5t-20 42.5q-10 10 -24.5 9.5t-26.5 -0.5v-193zM1522 408l92 188h-31l8 12h29q6 16 16.5 32.5 t30.5 21.5q12 4 31 -3q4 -2 11 -9t1 -13q-10 -6 -14 1t-2 15q-23 8 -34 -11t-15 -34h28l-6 -12h-29l-90 -184q-10 0 -26 -4zM1524 895h45q0 -10 -2 -20.5t2 -20.5q4 -12 14 -20.5t23 2.5q12 8 14 25.5t-2 29.5q-4 16 -14.5 27.5t-24.5 19.5q-47 27 -55 80q-2 23 5 46t30 36 q20 10 44.5 8t41.5 -18q18 -18 17 -40t-1 -44q-10 0 -20.5 1t-20.5 1q0 12 1 25.5t-9 23.5q-18 16 -29.5 1.5t-13.5 -30.5q0 -23 14 -37t31 -26q35 -25 47 -62q4 -23 1 -44t-14.5 -37.5t-30 -26t-42.5 -4.5q-41 8 -46 39.5t-5 64.5zM1627 488.5q3 15.5 9 27.5l35 72 q12 0 29 8l-27 -55q-4 -8 -16 -30t-4 -30q12 -10 29.5 5.5t23.5 23.5t10 15t10 18l25 49q8 0 25 4q-8 -18 -17.5 -37.5t-19.5 -38.5q-4 -8 -10.5 -20.5t0.5 -20.5q8 -10 20 2.5t23 26.5q8 18 19 38.5t21 39.5q8 18 16.5 36.5t18.5 36.5q14 -4 29 7l-55 -113l-21 -41 q-4 -10 -7 -25.5t13 -7.5q16 6 31 27q8 20 19.5 40.5t21.5 39.5q8 18 16.5 36.5t18.5 36.5q14 -4 29 7l-56 -113l-20 -41q-2 -4 -4 -11t-3 -13.5t1 -9.5t12 1q14 4 24.5 18.5t16.5 26.5l8 -4q-10 -16 -20.5 -30.5t-26.5 -22.5q-14 -8 -28.5 -3t-12.5 21q-12 -12 -25 -18 q-14 -8 -28.5 -3t-12.5 23q-10 -10 -19 -18t-22 -8q-18 0 -20 12t4 25q-12 -14 -34 -28.5t-38 -4.5q-14 8 -11 23.5zM1681 793v311h111v-41h-66v-88h56v-45h-56v-94h66v-43h-111zM1704 -207v500h72v-500h-72zM1821 -166q0 20 12 30.5t27.5 10.5t28 -10.5t12.5 -30.5 t-12.5 -30.5t-28 -10.5t-27.5 10.5t-12 30.5zM1860 980q0 42 12 81q6 16 17.5 29.5t29.5 15.5q41 10 63 -27q18 -35 18.5 -76.5t0.5 -78.5q0 -18 -1 -42t-8 -43.5t-21.5 -33.5t-39.5 -14q-23 0 -36 10t-19 26.5t-9 36t-3 35.5q-4 39 -4 81zM1904 920.5q-1 -19.5 1 -40t8 -36 t18 -15.5t18.5 15.5t8.5 36t1 40t-1 27.5t1 28.5t-1 41t-8.5 36t-18.5 15.5t-18 -15.5t-8 -36t-1 -41t1 -28.5t-1 -27.5zM1939 408l95 188h-31l6 12h31q6 16 16 32.5t31 21.5q12 4 31 -3q4 -2 11 -9t-1 -13q-10 -6 -13.5 1t-0.5 15q-23 8 -34.5 -11t-15.5 -34h29l-6 -12h-29 l-90 -184q-8 0 -29 -4zM1946 -207v500h65q25 -88 50.5 -174t45.5 -176q-8 88 -9 175t-1 175h66v-500h-68q-25 86 -50.5 171t-43.5 171q4 -59 6 -115.5t6 -115.5v-111h-67zM2019 793v311h39q16 -53 32.5 -107.5t29.5 -109.5q-4 53 -5 108.5t-1 108.5h40v-311h-43 q-16 53 -31.5 106t-27.5 109q4 -37 5 -73t3 -73v-69h-41zM2055 505.5q3 22.5 11 41.5q10 18 29 33.5t43 15.5q20 0 29.5 -12.5t9.5 -28.5t-7 -33.5t-16 -29.5q27 0 41 22l37 76q10 -2 27 6q-6 -12 -11 -21.5t-14 -19.5v-2q12 14 29.5 27.5t36.5 15.5q25 0 23.5 -18.5 t-7.5 -34.5q-6 -8 -20.5 -29.5t-7.5 -32.5q4 -6 11 -4t14 10.5t14.5 16.5t11.5 14l39 78h-17l6 12h17l16 35q16 0 29 6l-21 -41h31l-8 -12h-29l-37 -76q-4 -8 -10 -20.5t-2 -20.5q6 -6 14.5 -1t17.5 14.5t15 18.5t8 13l9 -4q-10 -16 -24.5 -34.5t-37.5 -22.5q-18 -4 -24.5 4 t-1.5 20q-6 -6 -12.5 -11t-12.5 -9q-14 -8 -29.5 -4t-13.5 24q2 16 13.5 32t17.5 30q2 6 7 19.5t-9 11.5q-23 -4 -41.5 -29t-28.5 -41q-8 -10 -13 -23.5t-12 -25.5h-24l14 33l-2 -2q-8 -4 -20 -9h-19q-10 -12 -21.5 -16t-17.5 -4q-20 -8 -37 6q-16 14 -13 36.5zM2079 488.5 q0 -17.5 16 -17.5q12 0 26.5 18.5t23.5 40t9 39t-14 17.5q-16 0 -30.5 -18.5t-22.5 -40t-8 -39zM2171 793v311h45v-273h65v-38h-110zM2208 105.5q2 54.5 16 103.5q4 23 14.5 43t30.5 31q20 12 45 14t47 -6q25 -10 39.5 -30.5t20.5 -46.5t8 -52.5t2 -48.5l-70 -7q2 23 0 48.5 t-10 48.5q-6 16 -21.5 26.5t-29.5 -10.5q-12 -16 -14 -41.5t-5 -48.5q-2 -25 -2 -48.5v-45.5v-47.5t5 -46.5q0 -18 4 -45t22 -37q20 -12 32.5 3t16.5 40.5t5 51.5t1 36h-51v57h119v-252h-53l-2 68q-4 -23 -15.5 -45.5t-33.5 -28.5q-23 -6 -45.5 4t-36.5 27q-29 35 -33 86 t-4 92q-4 53 -2 107.5zM2286 1104h43q8 -39 15 -79t11 -81q2 41 10.5 80t16.5 80h43q-10 -43 -20.5 -87t-20.5 -87q-10 -33 -7 -68t3 -69h-47q0 35 1 69.5t-7 67.5q-10 43 -20.5 87t-20.5 87zM2415 485q8 16 23 9t7 -21q-8 -16 -23.5 -9t-6.5 21zM2435 819q0 12 7 19.5 t16.5 7.5t17.5 -7.5t8 -19.5t-8 -19t-17.5 -7t-16.5 7t-7 19zM2437 1104h45q0 -57 -2 -114.5t-6 -117.5h-29q-4 59 -6 116t-2 116zM2456 566q-2 5 2 14q8 14 22 7.5t6 -20.5q-4 -8 -10 -10t-12 1t-8 8z" />
<glyph unicode="8" d="M109 541h47q23 35 53.5 69.5t71.5 55.5q12 8 32.5 10t24.5 -21q4 -10 -1 -21t-9 -22q-10 -20 -19.5 -39.5t-19.5 -37.5q-6 -14 -18.5 -36t-6.5 -38q-16 -4 -20 4t-1 20.5t9 25.5t10 19l-86 -4q-10 -16 -18 -34.5t-11 -38.5q-16 -4 -19 5t0 23.5t9 27.5t10 17l-28 -2z M135 793v311h70q53 0 65 -53q8 -29 7 -66t-17 -65q-14 -20 -35.5 -22.5t-44.5 -2.5v-102h-45zM152 -481h2314v-45h-2314v45zM152 1374v45h2314v-45h-2314zM154 293h61q10 -104 17.5 -207.5t11.5 -208.5q6 78 11 158t15 158l13 100h79q10 -86 18.5 -170t14.5 -170l6 -76 q6 84 9.5 165t11.5 161l10 90h84q10 -104 17.5 -207.5t13.5 -208.5q6 78 11 158t13 158q4 25 6.5 49t6.5 51h82q10 -86 17 -170t15 -170l4 -76q6 84 10.5 165t12.5 161l8 90h86q10 -104 17.5 -207.5t11.5 -208.5q6 78 11 158t15 158l13 100h80q10 -86 18 -170t14 -170l7 -76 q6 84 9 165t11 161q4 23 5 45t3 45h62l-41 -500h-94q-10 98 -19.5 197.5t-13.5 199.5q-4 -74 -10.5 -148.5t-14.5 -147.5l-8 -101h-96l-23 281l-24 -281h-93q-10 98 -20 197.5t-14 199.5q-4 -74 -9.5 -148.5t-13.5 -147.5l-10 -101h-94l-25 287l-22 -287h-95 q-10 98 -19 196.5t-13 198.5q-2 -76 -8.5 -148.5t-14.5 -145.5l-12 -101h-92zM180 932q10 0 19.5 -1t15.5 7q10 10 11 28.5t1 32.5t-1 33t-11 29q-6 10 -15.5 9t-19.5 -1v-137zM182 541h86l27 55q2 6 8 16.5t10 21.5t5 19.5t-7 10.5q-16 4 -37.5 -14.5t-31.5 -28.5 q-33 -37 -60 -80zM293 793v311h113v-41h-68v-88h55v-45h-55v-94h68v-43h-113zM305 500q4 23 16.5 45t22.5 43q10 0 27 8q-6 -16 -12.5 -30.5t-14.5 -28.5q-2 -6 -8 -15.5t-10 -19.5t-4 -18.5t8 -10.5q18 -4 34.5 16.5t22.5 30.5q10 16 16.5 35.5t6.5 38.5q18 4 20 -10.5 t-2 -26.5q-8 -33 -37 -63q16 -4 30.5 6t22.5 24l15 23q10 16 24.5 28.5t32.5 16.5q16 4 32.5 -3t35.5 -1l-37 -70q-4 -6 -11.5 -20.5t1.5 -18.5q10 -8 22 4.5t23 26.5q4 10 10 20.5t12 20.5l17 37q16 0 30 8l-39 -78q-4 -6 -10 -19.5t2 -19.5q8 -8 20.5 3.5t20.5 25.5 q8 18 19.5 38.5t19.5 39.5q10 18 18.5 36.5t18.5 36.5q16 -4 29 7l-56 -113q-4 -10 -9 -20.5t-9 -20.5t-8 -25.5t12 -7.5q10 4 19.5 14.5t17.5 22.5q6 16 16 31q10 16 24.5 28.5t33.5 16.5q18 4 34.5 -3t34.5 -1q-10 -16 -18 -33.5t-19 -36.5q-4 -6 -10 -20.5t0 -18.5 q6 -6 13.5 -2t14.5 11.5t13 16.5l10 15l2 4l66 135q16 0 26 7q-10 -25 -20 -48.5t-27 -46.5q14 14 34 23.5t34 -12.5q12 -20 1 -47t-26 -43q12 -2 22.5 4t20.5 14q8 18 18.5 37.5t20.5 38.5l37 73q14 -4 27 7q-14 -29 -26.5 -56.5t-29.5 -56.5q-4 -10 -9 -20.5t-11 -20.5 q-2 -4 -4 -11t-2 -13.5t2 -9.5t12 1t21.5 16.5t17.5 24.5q6 27 25 45q6 6 19 15.5t28.5 13.5t28 1t16.5 -22q2 -16 -7.5 -30.5t-24.5 -23.5t-33.5 -14t-30.5 -5q-2 -12 6 -19.5t20 -7.5q27 0 49.5 14.5t34.5 36.5l8 -4q-16 -29 -46.5 -46t-63.5 -11t-33 37 q-8 -10 -16.5 -19.5t-18.5 -13.5q-14 -8 -29.5 -3t-11.5 25v5q-4 -4 -8 -5q-8 -6 -25 -6h-14q-4 0 -6 -4t-6 -4q-20 -12 -44 -10t-36 22q-14 -18 -35 -24q-18 -4 -25.5 6t-0.5 27q-10 -14 -28 -27.5t-36 -1.5q-14 8 -14 29q-12 -18 -29 -29q-16 -8 -30.5 -3t-12.5 21 q-14 -14 -23 -18q-16 -8 -31.5 -3t-11.5 23q-8 -8 -16 -14t-18 -10q-18 -4 -25.5 6t0.5 27h-2q-10 -14 -27.5 -27.5t-35.5 -1.5q-10 4 -12.5 13t-0.5 20q-10 -10 -20 -13q-8 -4 -27 -4q-10 0 -12 -2t-8 -6q-10 -6 -23.5 -10t-24 -2t-16.5 11t-2 26zM418 793v311h47h28.5 t26.5 -4q20 -10 26.5 -34t6.5 -42q2 -23 -2 -56.5t-29 -43.5l37 -131h-49l-27 125q-6 0 -11 1t-11 1v-127h-43zM460 484.5q1 -9.5 13 -9.5q14 0 26.5 12.5t21.5 28.5t16.5 33.5t13.5 30.5q-20 10 -41 -6.5t-31 -32.5q-2 -4 -8 -14.5t-9 -21.5t-2 -20.5zM461 950q8 0 16 -1 t15 3q12 10 14 26.5t2 31.5q0 12 -2 29.5t-14 25.5q-6 4 -13.5 4h-17.5v-119zM569 1018q-4 23 4.5 46t30.5 36q18 10 44 8t42 -18q18 -18 18.5 -40t0.5 -44q-12 0 -23.5 1t-21.5 1q0 12 1 25.5t-10 23.5q-18 16 -29.5 1.5t-13.5 -30.5q0 -23 15.5 -37t31.5 -26t28.5 -27.5 t17.5 -34.5q4 -23 0.5 -44t-14.5 -37.5t-28.5 -26t-41.5 -4.5q-41 8 -46.5 39.5t-3.5 64.5h41q0 -10 -1 -20.5t1 -20.5q4 -12 15.5 -20.5t23.5 2.5q10 8 12.5 25.5t-1.5 29.5q-4 16 -14.5 27.5t-24.5 19.5q-47 31 -54 80zM637 641q2 8 9 11t14.5 1t11.5 -8t-2 -14 q-6 -14 -21.5 -10t-11.5 20zM725 980q0 42 12 81q6 16 16.5 29.5t30.5 15.5q43 10 64 -27q16 -35 17 -76.5t1 -78.5q0 -18 -2 -42t-9 -43.5t-20 -33.5t-38 -14q-23 0 -36 10t-20.5 26.5t-9.5 36t-4 35.5q-2 39 -2 81zM736.5 484.5q1.5 -9.5 13.5 -9.5q14 0 26 12.5 t21.5 28.5t16.5 33.5t13 30.5q-23 10 -42 -6.5t-29 -32.5q-2 -4 -8.5 -14.5t-9.5 -21.5t-1.5 -20.5zM769 920.5q-1 -19.5 1 -40t8 -36t19 -15.5q12 0 17 15.5t7 36t1 40t-1 27.5t1 28.5t-1 41t-7 36t-17 15.5t-18.5 -15.5t-8.5 -36t-1 -41t1 -28.5t-1 -27.5zM870 483 q23 -16 43.5 0.5t30.5 32.5q2 4 8 14.5t8.5 21.5t0 19.5t-14.5 8.5q-14 0 -25.5 -10.5t-20.5 -26t-16 -32.5t-14 -28zM885 793v311h39q16 -53 31.5 -107.5t27.5 -109.5q-4 53 -5 108.5t-1 108.5h41v-311h-43q-14 53 -29.5 106t-27.5 109q4 -37 4 -73t4 -73v-69h-41z M1030 793l37 311h72l39 -311h-43l-11 75h-43l-8 -75h-43zM1071 -166q0 20 12.5 30.5t27.5 10.5t27.5 -10.5t12.5 -30.5t-12.5 -30.5t-27.5 -10.5t-27.5 10.5t-12.5 30.5zM1085 911h35q-4 37 -9 74t-7 74q-2 -23 -5 -47t-7 -51zM1092 508q23 0 50 19.5t27 43.5q0 16 -11 14.5 t-21 -7.5q-10 -8 -18.5 -19.5t-14.5 -21.5t-8 -16.5t-4 -12.5zM1174 -207l59 500h117l61 -500h-72l-14 119h-68l-16 -119h-67zM1188 793v311h45v-273h65v-38h-110zM1262 -18h59q-6 59 -16.5 119.5t-14.5 121.5q-2 -41 -7 -80t-9 -80q-4 -20 -6 -40.5t-6 -40.5zM1274 489 q0 16 9 31t15 31q12 18 19 37q20 0 31 8l-39 -78q-4 -6 -10.5 -19.5t-0.5 -19.5t14.5 -1t16.5 14.5t14.5 18.5t8.5 13l30 66q12 -2 29 6q-6 -12 -11 -21.5t-14 -19.5v-2q12 14 30 27.5t36 15.5q25 0 24 -18.5t-10 -34.5q-4 -8 -19 -29.5t-9 -32.5q4 -8 13 -3t17.5 14.5 t15.5 18.5t9 13l8 -4q-10 -14 -20.5 -28.5t-26.5 -24.5q-14 -8 -28.5 -4t-12.5 24q2 16 13.5 32t17.5 30q2 2 4 8t3 11t-1 9.5t-10 2.5q-23 -4 -40.5 -29t-27.5 -41l-24 -49h-25l8 18q-4 -4 -8 -7t-8 -5q-16 -8 -30.5 -3t-10.5 25zM1331 641q2 8 10.5 11t15.5 1t10 -8 t-1 -14q-8 -14 -23.5 -10t-11.5 20zM1365 905.5q1 28.5 1 52.5v146h45v-217q0 -10 -1 -20.5t3 -20.5t14.5 -15.5t20.5 5.5q10 10 11 27.5t1 29.5q2 25 1 49.5t-1 48.5v113h45v-146q0 -25 1 -53t-4 -54t-19 -43t-47 -17q-31 0 -46.5 17t-20.5 43t-4 54.5zM1444 -207v500h74 q23 0 45 1t43 -9q35 -16 45 -56.5t10 -74.5v-39t-5 -45.5t-15.5 -41t-28.5 -24.5l61 -211h-80l-43 199h-34v-199h-72zM1516 43q12 0 25 -1t24 7q18 16 22 41t4 45q0 23 -4 49.5t-20 42.5q-10 10 -24.5 9.5t-26.5 -0.5v-193zM1522 408l92 188h-31l8 12h29q6 16 16.5 32.5 t30.5 21.5q12 4 31 -3q4 -2 11 -9t1 -13q-10 -6 -14 1t-2 15q-23 8 -34 -11t-15 -34h28l-6 -12h-29l-90 -184q-10 0 -26 -4zM1524 895h45q0 -10 -2 -20.5t2 -20.5q4 -12 14 -20.5t23 2.5q12 8 14 25.5t-2 29.5q-4 16 -14.5 27.5t-24.5 19.5q-47 27 -55 80q-2 23 5 46t30 36 q20 10 44.5 8t41.5 -18q18 -18 17 -40t-1 -44q-10 0 -20.5 1t-20.5 1q0 12 1 25.5t-9 23.5q-18 16 -29.5 1.5t-13.5 -30.5q0 -23 14 -37t31 -26q35 -25 47 -62q4 -23 1 -44t-14.5 -37.5t-30 -26t-42.5 -4.5q-41 8 -46 39.5t-5 64.5zM1627 488.5q3 15.5 9 27.5l35 72 q12 0 29 8l-27 -55q-4 -8 -16 -30t-4 -30q12 -10 29.5 5.5t23.5 23.5t10 15t10 18l25 49q8 0 25 4q-8 -18 -17.5 -37.5t-19.5 -38.5q-4 -8 -10.5 -20.5t0.5 -20.5q8 -10 20 2.5t23 26.5q8 18 19 38.5t21 39.5q8 18 16.5 36.5t18.5 36.5q14 -4 29 7l-55 -113l-21 -41 q-4 -10 -7 -25.5t13 -7.5q16 6 31 27q8 20 19.5 40.5t21.5 39.5q8 18 16.5 36.5t18.5 36.5q14 -4 29 7l-56 -113l-20 -41q-2 -4 -4 -11t-3 -13.5t1 -9.5t12 1q14 4 24.5 18.5t16.5 26.5l8 -4q-10 -16 -20.5 -30.5t-26.5 -22.5q-14 -8 -28.5 -3t-12.5 21q-12 -12 -25 -18 q-14 -8 -28.5 -3t-12.5 23q-10 -10 -19 -18t-22 -8q-18 0 -20 12t4 25q-12 -14 -34 -28.5t-38 -4.5q-14 8 -11 23.5zM1681 793v311h111v-41h-66v-88h56v-45h-56v-94h66v-43h-111zM1704 -207v500h72v-500h-72zM1821 -166q0 20 12 30.5t27.5 10.5t28 -10.5t12.5 -30.5 t-12.5 -30.5t-28 -10.5t-27.5 10.5t-12 30.5zM1860 980q0 42 12 81q6 16 17.5 29.5t29.5 15.5q41 10 63 -27q18 -35 18.5 -76.5t0.5 -78.5q0 -18 -1 -42t-8 -43.5t-21.5 -33.5t-39.5 -14q-23 0 -36 10t-19 26.5t-9 36t-3 35.5q-4 39 -4 81zM1904 920.5q-1 -19.5 1 -40t8 -36 t18 -15.5t18.5 15.5t8.5 36t1 40t-1 27.5t1 28.5t-1 41t-8.5 36t-18.5 15.5t-18 -15.5t-8 -36t-1 -41t1 -28.5t-1 -27.5zM1939 408l95 188h-31l6 12h31q6 16 16 32.5t31 21.5q12 4 31 -3q4 -2 11 -9t-1 -13q-10 -6 -13.5 1t-0.5 15q-23 8 -34.5 -11t-15.5 -34h29l-6 -12h-29 l-90 -184q-8 0 -29 -4zM1946 -207v500h65q25 -88 50.5 -174t45.5 -176q-8 88 -9 175t-1 175h66v-500h-68q-25 86 -50.5 171t-43.5 171q4 -59 6 -115.5t6 -115.5v-111h-67zM2019 793v311h39q16 -53 32.5 -107.5t29.5 -109.5q-4 53 -5 108.5t-1 108.5h40v-311h-43 q-16 53 -31.5 106t-27.5 109q4 -37 5 -73t3 -73v-69h-41zM2055 505.5q3 22.5 11 41.5q10 18 29 33.5t43 15.5q20 0 29.5 -12.5t9.5 -28.5t-7 -33.5t-16 -29.5q27 0 41 22l37 76q10 -2 27 6q-6 -12 -11 -21.5t-14 -19.5v-2q12 14 29.5 27.5t36.5 15.5q25 0 23.5 -18.5 t-7.5 -34.5q-6 -8 -20.5 -29.5t-7.5 -32.5q4 -6 11 -4t14 10.5t14.5 16.5t11.5 14l39 78h-17l6 12h17l16 35q16 0 29 6l-21 -41h31l-8 -12h-29l-37 -76q-4 -8 -10 -20.5t-2 -20.5q6 -6 14.5 -1t17.5 14.5t15 18.5t8 13l9 -4q-10 -16 -24.5 -34.5t-37.5 -22.5q-18 -4 -24.5 4 t-1.5 20q-6 -6 -12.5 -11t-12.5 -9q-14 -8 -29.5 -4t-13.5 24q2 16 13.5 32t17.5 30q2 6 7 19.5t-9 11.5q-23 -4 -41.5 -29t-28.5 -41q-8 -10 -13 -23.5t-12 -25.5h-24l14 33l-2 -2q-8 -4 -20 -9h-19q-10 -12 -21.5 -16t-17.5 -4q-20 -8 -37 6q-16 14 -13 36.5zM2079 488.5 q0 -17.5 16 -17.5q12 0 26.5 18.5t23.5 40t9 39t-14 17.5q-16 0 -30.5 -18.5t-22.5 -40t-8 -39zM2171 793v311h45v-273h65v-38h-110zM2208 105.5q2 54.5 16 103.5q4 23 14.5 43t30.5 31q20 12 45 14t47 -6q25 -10 39.5 -30.5t20.5 -46.5t8 -52.5t2 -48.5l-70 -7q2 23 0 48.5 t-10 48.5q-6 16 -21.5 26.5t-29.5 -10.5q-12 -16 -14 -41.5t-5 -48.5q-2 -25 -2 -48.5v-45.5v-47.5t5 -46.5q0 -18 4 -45t22 -37q20 -12 32.5 3t16.5 40.5t5 51.5t1 36h-51v57h119v-252h-53l-2 68q-4 -23 -15.5 -45.5t-33.5 -28.5q-23 -6 -45.5 4t-36.5 27q-29 35 -33 86 t-4 92q-4 53 -2 107.5zM2286 1104h43q8 -39 15 -79t11 -81q2 41 10.5 80t16.5 80h43q-10 -43 -20.5 -87t-20.5 -87q-10 -33 -7 -68t3 -69h-47q0 35 1 69.5t-7 67.5q-10 43 -20.5 87t-20.5 87zM2415 485q8 16 23 9t7 -21q-8 -16 -23.5 -9t-6.5 21zM2435 819q0 12 7 19.5 t16.5 7.5t17.5 -7.5t8 -19.5t-8 -19t-17.5 -7t-16.5 7t-7 19zM2437 1104h45q0 -57 -2 -114.5t-6 -117.5h-29q-4 59 -6 116t-2 116zM2456 566q-2 5 2 14q8 14 22 7.5t6 -20.5q-4 -8 -10 -10t-12 1t-8 8z" />
<glyph unicode="9" d="M109 541h47q23 35 53.5 69.5t71.5 55.5q12 8 32.5 10t24.5 -21q4 -10 -1 -21t-9 -22q-10 -20 -19.5 -39.5t-19.5 -37.5q-6 -14 -18.5 -36t-6.5 -38q-16 -4 -20 4t-1 20.5t9 25.5t10 19l-86 -4q-10 -16 -18 -34.5t-11 -38.5q-16 -4 -19 5t0 23.5t9 27.5t10 17l-28 -2z M135 793v311h70q53 0 65 -53q8 -29 7 -66t-17 -65q-14 -20 -35.5 -22.5t-44.5 -2.5v-102h-45zM152 -481h2314v-45h-2314v45zM152 1374v45h2314v-45h-2314zM154 293h61q10 -104 17.5 -207.5t11.5 -208.5q6 78 11 158t15 158l13 100h79q10 -86 18.5 -170t14.5 -170l6 -76 q6 84 9.5 165t11.5 161l10 90h84q10 -104 17.5 -207.5t13.5 -208.5q6 78 11 158t13 158q4 25 6.5 49t6.5 51h82q10 -86 17 -170t15 -170l4 -76q6 84 10.5 165t12.5 161l8 90h86q10 -104 17.5 -207.5t11.5 -208.5q6 78 11 158t15 158l13 100h80q10 -86 18 -170t14 -170l7 -76 q6 84 9 165t11 161q4 23 5 45t3 45h62l-41 -500h-94q-10 98 -19.5 197.5t-13.5 199.5q-4 -74 -10.5 -148.5t-14.5 -147.5l-8 -101h-96l-23 281l-24 -281h-93q-10 98 -20 197.5t-14 199.5q-4 -74 -9.5 -148.5t-13.5 -147.5l-10 -101h-94l-25 287l-22 -287h-95 q-10 98 -19 196.5t-13 198.5q-2 -76 -8.5 -148.5t-14.5 -145.5l-12 -101h-92zM180 932q10 0 19.5 -1t15.5 7q10 10 11 28.5t1 32.5t-1 33t-11 29q-6 10 -15.5 9t-19.5 -1v-137zM182 541h86l27 55q2 6 8 16.5t10 21.5t5 19.5t-7 10.5q-16 4 -37.5 -14.5t-31.5 -28.5 q-33 -37 -60 -80zM293 793v311h113v-41h-68v-88h55v-45h-55v-94h68v-43h-113zM305 500q4 23 16.5 45t22.5 43q10 0 27 8q-6 -16 -12.5 -30.5t-14.5 -28.5q-2 -6 -8 -15.5t-10 -19.5t-4 -18.5t8 -10.5q18 -4 34.5 16.5t22.5 30.5q10 16 16.5 35.5t6.5 38.5q18 4 20 -10.5 t-2 -26.5q-8 -33 -37 -63q16 -4 30.5 6t22.5 24l15 23q10 16 24.5 28.5t32.5 16.5q16 4 32.5 -3t35.5 -1l-37 -70q-4 -6 -11.5 -20.5t1.5 -18.5q10 -8 22 4.5t23 26.5q4 10 10 20.5t12 20.5l17 37q16 0 30 8l-39 -78q-4 -6 -10 -19.5t2 -19.5q8 -8 20.5 3.5t20.5 25.5 q8 18 19.5 38.5t19.5 39.5q10 18 18.5 36.5t18.5 36.5q16 -4 29 7l-56 -113q-4 -10 -9 -20.5t-9 -20.5t-8 -25.5t12 -7.5q10 4 19.5 14.5t17.5 22.5q6 16 16 31q10 16 24.5 28.5t33.5 16.5q18 4 34.5 -3t34.5 -1q-10 -16 -18 -33.5t-19 -36.5q-4 -6 -10 -20.5t0 -18.5 q6 -6 13.5 -2t14.5 11.5t13 16.5l10 15l2 4l66 135q16 0 26 7q-10 -25 -20 -48.5t-27 -46.5q14 14 34 23.5t34 -12.5q12 -20 1 -47t-26 -43q12 -2 22.5 4t20.5 14q8 18 18.5 37.5t20.5 38.5l37 73q14 -4 27 7q-14 -29 -26.5 -56.5t-29.5 -56.5q-4 -10 -9 -20.5t-11 -20.5 q-2 -4 -4 -11t-2 -13.5t2 -9.5t12 1t21.5 16.5t17.5 24.5q6 27 25 45q6 6 19 15.5t28.5 13.5t28 1t16.5 -22q2 -16 -7.5 -30.5t-24.5 -23.5t-33.5 -14t-30.5 -5q-2 -12 6 -19.5t20 -7.5q27 0 49.5 14.5t34.5 36.5l8 -4q-16 -29 -46.5 -46t-63.5 -11t-33 37 q-8 -10 -16.5 -19.5t-18.5 -13.5q-14 -8 -29.5 -3t-11.5 25v5q-4 -4 -8 -5q-8 -6 -25 -6h-14q-4 0 -6 -4t-6 -4q-20 -12 -44 -10t-36 22q-14 -18 -35 -24q-18 -4 -25.5 6t-0.5 27q-10 -14 -28 -27.5t-36 -1.5q-14 8 -14 29q-12 -18 -29 -29q-16 -8 -30.5 -3t-12.5 21 q-14 -14 -23 -18q-16 -8 -31.5 -3t-11.5 23q-8 -8 -16 -14t-18 -10q-18 -4 -25.5 6t0.5 27h-2q-10 -14 -27.5 -27.5t-35.5 -1.5q-10 4 -12.5 13t-0.5 20q-10 -10 -20 -13q-8 -4 -27 -4q-10 0 -12 -2t-8 -6q-10 -6 -23.5 -10t-24 -2t-16.5 11t-2 26zM418 793v311h47h28.5 t26.5 -4q20 -10 26.5 -34t6.5 -42q2 -23 -2 -56.5t-29 -43.5l37 -131h-49l-27 125q-6 0 -11 1t-11 1v-127h-43zM460 484.5q1 -9.5 13 -9.5q14 0 26.5 12.5t21.5 28.5t16.5 33.5t13.5 30.5q-20 10 -41 -6.5t-31 -32.5q-2 -4 -8 -14.5t-9 -21.5t-2 -20.5zM461 950q8 0 16 -1 t15 3q12 10 14 26.5t2 31.5q0 12 -2 29.5t-14 25.5q-6 4 -13.5 4h-17.5v-119zM569 1018q-4 23 4.5 46t30.5 36q18 10 44 8t42 -18q18 -18 18.5 -40t0.5 -44q-12 0 -23.5 1t-21.5 1q0 12 1 25.5t-10 23.5q-18 16 -29.5 1.5t-13.5 -30.5q0 -23 15.5 -37t31.5 -26t28.5 -27.5 t17.5 -34.5q4 -23 0.5 -44t-14.5 -37.5t-28.5 -26t-41.5 -4.5q-41 8 -46.5 39.5t-3.5 64.5h41q0 -10 -1 -20.5t1 -20.5q4 -12 15.5 -20.5t23.5 2.5q10 8 12.5 25.5t-1.5 29.5q-4 16 -14.5 27.5t-24.5 19.5q-47 31 -54 80zM637 641q2 8 9 11t14.5 1t11.5 -8t-2 -14 q-6 -14 -21.5 -10t-11.5 20zM725 980q0 42 12 81q6 16 16.5 29.5t30.5 15.5q43 10 64 -27q16 -35 17 -76.5t1 -78.5q0 -18 -2 -42t-9 -43.5t-20 -33.5t-38 -14q-23 0 -36 10t-20.5 26.5t-9.5 36t-4 35.5q-2 39 -2 81zM736.5 484.5q1.5 -9.5 13.5 -9.5q14 0 26 12.5 t21.5 28.5t16.5 33.5t13 30.5q-23 10 -42 -6.5t-29 -32.5q-2 -4 -8.5 -14.5t-9.5 -21.5t-1.5 -20.5zM769 920.5q-1 -19.5 1 -40t8 -36t19 -15.5q12 0 17 15.5t7 36t1 40t-1 27.5t1 28.5t-1 41t-7 36t-17 15.5t-18.5 -15.5t-8.5 -36t-1 -41t1 -28.5t-1 -27.5zM870 483 q23 -16 43.5 0.5t30.5 32.5q2 4 8 14.5t8.5 21.5t0 19.5t-14.5 8.5q-14 0 -25.5 -10.5t-20.5 -26t-16 -32.5t-14 -28zM885 793v311h39q16 -53 31.5 -107.5t27.5 -109.5q-4 53 -5 108.5t-1 108.5h41v-311h-43q-14 53 -29.5 106t-27.5 109q4 -37 4 -73t4 -73v-69h-41z M1030 793l37 311h72l39 -311h-43l-11 75h-43l-8 -75h-43zM1071 -166q0 20 12.5 30.5t27.5 10.5t27.5 -10.5t12.5 -30.5t-12.5 -30.5t-27.5 -10.5t-27.5 10.5t-12.5 30.5zM1085 911h35q-4 37 -9 74t-7 74q-2 -23 -5 -47t-7 -51zM1092 508q23 0 50 19.5t27 43.5q0 16 -11 14.5 t-21 -7.5q-10 -8 -18.5 -19.5t-14.5 -21.5t-8 -16.5t-4 -12.5zM1174 -207l59 500h117l61 -500h-72l-14 119h-68l-16 -119h-67zM1188 793v311h45v-273h65v-38h-110zM1262 -18h59q-6 59 -16.5 119.5t-14.5 121.5q-2 -41 -7 -80t-9 -80q-4 -20 -6 -40.5t-6 -40.5zM1274 489 q0 16 9 31t15 31q12 18 19 37q20 0 31 8l-39 -78q-4 -6 -10.5 -19.5t-0.5 -19.5t14.5 -1t16.5 14.5t14.5 18.5t8.5 13l30 66q12 -2 29 6q-6 -12 -11 -21.5t-14 -19.5v-2q12 14 30 27.5t36 15.5q25 0 24 -18.5t-10 -34.5q-4 -8 -19 -29.5t-9 -32.5q4 -8 13 -3t17.5 14.5 t15.5 18.5t9 13l8 -4q-10 -14 -20.5 -28.5t-26.5 -24.5q-14 -8 -28.5 -4t-12.5 24q2 16 13.5 32t17.5 30q2 2 4 8t3 11t-1 9.5t-10 2.5q-23 -4 -40.5 -29t-27.5 -41l-24 -49h-25l8 18q-4 -4 -8 -7t-8 -5q-16 -8 -30.5 -3t-10.5 25zM1331 641q2 8 10.5 11t15.5 1t10 -8 t-1 -14q-8 -14 -23.5 -10t-11.5 20zM1365 905.5q1 28.5 1 52.5v146h45v-217q0 -10 -1 -20.5t3 -20.5t14.5 -15.5t20.5 5.5q10 10 11 27.5t1 29.5q2 25 1 49.5t-1 48.5v113h45v-146q0 -25 1 -53t-4 -54t-19 -43t-47 -17q-31 0 -46.5 17t-20.5 43t-4 54.5zM1444 -207v500h74 q23 0 45 1t43 -9q35 -16 45 -56.5t10 -74.5v-39t-5 -45.5t-15.5 -41t-28.5 -24.5l61 -211h-80l-43 199h-34v-199h-72zM1516 43q12 0 25 -1t24 7q18 16 22 41t4 45q0 23 -4 49.5t-20 42.5q-10 10 -24.5 9.5t-26.5 -0.5v-193zM1522 408l92 188h-31l8 12h29q6 16 16.5 32.5 t30.5 21.5q12 4 31 -3q4 -2 11 -9t1 -13q-10 -6 -14 1t-2 15q-23 8 -34 -11t-15 -34h28l-6 -12h-29l-90 -184q-10 0 -26 -4zM1524 895h45q0 -10 -2 -20.5t2 -20.5q4 -12 14 -20.5t23 2.5q12 8 14 25.5t-2 29.5q-4 16 -14.5 27.5t-24.5 19.5q-47 27 -55 80q-2 23 5 46t30 36 q20 10 44.5 8t41.5 -18q18 -18 17 -40t-1 -44q-10 0 -20.5 1t-20.5 1q0 12 1 25.5t-9 23.5q-18 16 -29.5 1.5t-13.5 -30.5q0 -23 14 -37t31 -26q35 -25 47 -62q4 -23 1 -44t-14.5 -37.5t-30 -26t-42.5 -4.5q-41 8 -46 39.5t-5 64.5zM1627 488.5q3 15.5 9 27.5l35 72 q12 0 29 8l-27 -55q-4 -8 -16 -30t-4 -30q12 -10 29.5 5.5t23.5 23.5t10 15t10 18l25 49q8 0 25 4q-8 -18 -17.5 -37.5t-19.5 -38.5q-4 -8 -10.5 -20.5t0.5 -20.5q8 -10 20 2.5t23 26.5q8 18 19 38.5t21 39.5q8 18 16.5 36.5t18.5 36.5q14 -4 29 7l-55 -113l-21 -41 q-4 -10 -7 -25.5t13 -7.5q16 6 31 27q8 20 19.5 40.5t21.5 39.5q8 18 16.5 36.5t18.5 36.5q14 -4 29 7l-56 -113l-20 -41q-2 -4 -4 -11t-3 -13.5t1 -9.5t12 1q14 4 24.5 18.5t16.5 26.5l8 -4q-10 -16 -20.5 -30.5t-26.5 -22.5q-14 -8 -28.5 -3t-12.5 21q-12 -12 -25 -18 q-14 -8 -28.5 -3t-12.5 23q-10 -10 -19 -18t-22 -8q-18 0 -20 12t4 25q-12 -14 -34 -28.5t-38 -4.5q-14 8 -11 23.5zM1681 793v311h111v-41h-66v-88h56v-45h-56v-94h66v-43h-111zM1704 -207v500h72v-500h-72zM1821 -166q0 20 12 30.5t27.5 10.5t28 -10.5t12.5 -30.5 t-12.5 -30.5t-28 -10.5t-27.5 10.5t-12 30.5zM1860 980q0 42 12 81q6 16 17.5 29.5t29.5 15.5q41 10 63 -27q18 -35 18.5 -76.5t0.5 -78.5q0 -18 -1 -42t-8 -43.5t-21.5 -33.5t-39.5 -14q-23 0 -36 10t-19 26.5t-9 36t-3 35.5q-4 39 -4 81zM1904 920.5q-1 -19.5 1 -40t8 -36 t18 -15.5t18.5 15.5t8.5 36t1 40t-1 27.5t1 28.5t-1 41t-8.5 36t-18.5 15.5t-18 -15.5t-8 -36t-1 -41t1 -28.5t-1 -27.5zM1939 408l95 188h-31l6 12h31q6 16 16 32.5t31 21.5q12 4 31 -3q4 -2 11 -9t-1 -13q-10 -6 -13.5 1t-0.5 15q-23 8 -34.5 -11t-15.5 -34h29l-6 -12h-29 l-90 -184q-8 0 -29 -4zM1946 -207v500h65q25 -88 50.5 -174t45.5 -176q-8 88 -9 175t-1 175h66v-500h-68q-25 86 -50.5 171t-43.5 171q4 -59 6 -115.5t6 -115.5v-111h-67zM2019 793v311h39q16 -53 32.5 -107.5t29.5 -109.5q-4 53 -5 108.5t-1 108.5h40v-311h-43 q-16 53 -31.5 106t-27.5 109q4 -37 5 -73t3 -73v-69h-41zM2055 505.5q3 22.5 11 41.5q10 18 29 33.5t43 15.5q20 0 29.5 -12.5t9.5 -28.5t-7 -33.5t-16 -29.5q27 0 41 22l37 76q10 -2 27 6q-6 -12 -11 -21.5t-14 -19.5v-2q12 14 29.5 27.5t36.5 15.5q25 0 23.5 -18.5 t-7.5 -34.5q-6 -8 -20.5 -29.5t-7.5 -32.5q4 -6 11 -4t14 10.5t14.5 16.5t11.5 14l39 78h-17l6 12h17l16 35q16 0 29 6l-21 -41h31l-8 -12h-29l-37 -76q-4 -8 -10 -20.5t-2 -20.5q6 -6 14.5 -1t17.5 14.5t15 18.5t8 13l9 -4q-10 -16 -24.5 -34.5t-37.5 -22.5q-18 -4 -24.5 4 t-1.5 20q-6 -6 -12.5 -11t-12.5 -9q-14 -8 -29.5 -4t-13.5 24q2 16 13.5 32t17.5 30q2 6 7 19.5t-9 11.5q-23 -4 -41.5 -29t-28.5 -41q-8 -10 -13 -23.5t-12 -25.5h-24l14 33l-2 -2q-8 -4 -20 -9h-19q-10 -12 -21.5 -16t-17.5 -4q-20 -8 -37 6q-16 14 -13 36.5zM2079 488.5 q0 -17.5 16 -17.5q12 0 26.5 18.5t23.5 40t9 39t-14 17.5q-16 0 -30.5 -18.5t-22.5 -40t-8 -39zM2171 793v311h45v-273h65v-38h-110zM2208 105.5q2 54.5 16 103.5q4 23 14.5 43t30.5 31q20 12 45 14t47 -6q25 -10 39.5 -30.5t20.5 -46.5t8 -52.5t2 -48.5l-70 -7q2 23 0 48.5 t-10 48.5q-6 16 -21.5 26.5t-29.5 -10.5q-12 -16 -14 -41.5t-5 -48.5q-2 -25 -2 -48.5v-45.5v-47.5t5 -46.5q0 -18 4 -45t22 -37q20 -12 32.5 3t16.5 40.5t5 51.5t1 36h-51v57h119v-252h-53l-2 68q-4 -23 -15.5 -45.5t-33.5 -28.5q-23 -6 -45.5 4t-36.5 27q-29 35 -33 86 t-4 92q-4 53 -2 107.5zM2286 1104h43q8 -39 15 -79t11 -81q2 41 10.5 80t16.5 80h43q-10 -43 -20.5 -87t-20.5 -87q-10 -33 -7 -68t3 -69h-47q0 35 1 69.5t-7 67.5q-10 43 -20.5 87t-20.5 87zM2415 485q8 16 23 9t7 -21q-8 -16 -23.5 -9t-6.5 21zM2435 819q0 12 7 19.5 t16.5 7.5t17.5 -7.5t8 -19.5t-8 -19t-17.5 -7t-16.5 7t-7 19zM2437 1104h45q0 -57 -2 -114.5t-6 -117.5h-29q-4 59 -6 116t-2 116zM2456 566q-2 5 2 14q8 14 22 7.5t6 -20.5q-4 -8 -10 -10t-12 1t-8 8z" />
<glyph unicode=":" horiz-adv-x="612" d="M38 70.5q-11 40.5 11 81.5q23 39 67 52t79 -5q41 -23 52 -61t-9 -75q-23 -41 -65 -56t-83 3q-41 20 -52 60.5zM297 654q-10 40 12 81q23 39 66 52.5t78 -5.5q41 -23 52 -60.5t-9 -74.5q-23 -41 -65 -56.5t-83 3.5q-41 20 -51 60z" />
<glyph unicode=";" horiz-adv-x="612" d="M-70 -100q29 10 59.5 32.5t43.5 57.5q8 20 9 45.5t3 51.5t9 50.5t30 44.5q25 23 54.5 26t52 -13.5t30.5 -50t-10 -83.5q-18 -49 -52 -83.5t-73 -55t-80 -27t-76 4.5zM297 654q-10 40 12 81q23 39 66 52.5t78 -5.5q41 -23 52 -60.5t-9 -74.5q-23 -41 -65 -56.5t-83 3.5 q-41 20 -51 60z" />
<glyph unicode="&#x3c;" horiz-adv-x="882" d="M225 414l19 71l563 342l39 -45l-477 -352l196 -369l-43 -18z" />
<glyph unicode="=" horiz-adv-x="851" d="M145 446l48 101h536l-39 -101h-545zM248 672l47 100h536l-38 -100h-545z" />
<glyph unicode="&#x3e;" horiz-adv-x="882" d="M57 88l512 401l-231 320l43 18l344 -317l-18 -72l-611 -395z" />
<glyph unicode="?" horiz-adv-x="880" d="M38 70.5q-11 40.5 11 81.5q23 39 67 52t79 -5q41 -23 52 -61t-9 -75q-23 -41 -65 -56t-83 3q-41 20 -52 60.5zM193 360q14 88 83.5 142.5t160.5 99.5t184.5 93t154.5 124q55 70 67.5 133.5t-6 114.5t-60.5 84t-95 39q-78 10 -138.5 -8.5t-98 -52t-53 -77.5t-6.5 -84 t44 -72t98 -40q2 -18 -9 -34.5t-32.5 -28t-52.5 -12.5t-67 14q-57 20 -84 64t-27 96.5t26.5 106.5t77 97t124 68.5t167.5 19.5q139 -10 217 -65.5t104.5 -132t6 -160.5t-77.5 -150q-49 -55 -113.5 -93t-134 -65.5t-138.5 -50t-126 -46t-97 -53.5t-50 -71h-49z" />
<glyph unicode="@" horiz-adv-x="1398" d="M80 202.5q-6 110.5 33 233.5q37 125 120.5 236.5t196.5 194.5t243 131.5t263 48.5q127 0 218 -47.5t137 -129.5t44 -192.5t-59 -235.5q-31 -70 -80 -141.5t-107.5 -128.5t-122 -91t-126.5 -26q-66 8 -95.5 52.5t-7.5 130.5q-27 -43 -62.5 -78t-75.5 -59.5t-79 -38 t-71 -13.5q-84 0 -116 53.5t-24 134t52.5 175t113 175.5t156.5 134t186 53q49 0 90 -11t66 -28l139 39l-227 -481q-43 -92 -21.5 -129t77.5 -18.5t132 92t141 204.5q61 123 64.5 225.5t-39.5 176.5t-126 115.5t-195 41.5q-111 0 -229 -46t-221 -123.5t-182 -180t-112 -215.5 q-35 -111 -32 -210t44 -174t119 -119t193 -44q45 0 90 8.5t90 26.5l22 -45q-117 -47 -225 -47q-121 0 -208 48t-134 130t-53 192.5zM443.5 168q11.5 -43 62.5 -43q29 0 68.5 27.5t80.5 69.5t79 93.5t63 98.5l137 278q-10 8 -31.5 13.5t-44.5 5.5q-66 0 -132.5 -43 t-121.5 -108.5t-97 -141.5t-58.5 -141.5t-5 -108.5z" />
<glyph unicode="A" horiz-adv-x="1218" d="M-31 489h291q92 147 214 294t253 263.5t261 190.5t237 74q80 0 118.5 -31t46.5 -82q2 -15 2 -31q0 -39 -14 -85q-18 -66 -51 -134l-348 -731q-41 -84 -49 -131q-3 -16 -2 -30q0 -29 10 -54q-27 -7 -50 -7q-20 0 -38 5q-39 10 -55 39q-10 24 -10 52q0 20 5 43 q13 54 52 132l76 158l-543 -21q-27 -47 -50.5 -96t-43.5 -96q-29 -72 -46.5 -139.5t-21.5 -126.5q-25 -7 -45 -7q-25 0 -42 11q-30 20 -39 58q-5 20 -5 44q0 21 4 44q8 50 25 98q16 47 39.5 99t54.5 105l-162 -6zM424 489h526l234 482q25 51 46 99t30.5 85t1.5 61.5 t-41 30.5q-10 2 -21 2q-50 0 -126 -44q-94 -54 -206 -158.5t-229 -248t-215 -309.5z" />
<glyph unicode="B" horiz-adv-x="1333" d="M68 316q-3 23 -3 45q0 44 13 83q18 57 50 95.5t70 56.5q36 17 74 17h4q40 -1 78 -21q-49 -35 -85 -79t-60 -124q-8 -27 -7 -61.5t13 -73.5t38 -76t69 -65l489 1009q9 -1 19 -1q24 1 57 7q47 10 96 25l-201 -416l64 -10q37 -5 72 -5q42 0 80 7q70 12 124 44t91.5 81 t56.5 113q11 40 11 75q1 64 -35 112q-56 76 -197 101q-58 11 -117 11q-26 0 -52 -2q-85 -7 -162 -38.5t-143.5 -88t-113.5 -136.5q-75 -133 -75 -258q0 -17 1 -34h-7q-42 -1 -70 23q-30 26 -42 71q-5 21 -4 44q0 27 6 59q12 58 54 124q49 80 125.5 140.5t172.5 97.5t212 49 q46 5 95 5q73 0 150 -11q106 -16 177 -53t111 -86q39 -48 51 -105q5 -27 6 -54q0 -30 -7 -61q-25 -111 -107.5 -178t-201.5 -98l-86 2l4 -8q68 -14 113 -50t67 -86q21 -48 20 -105v-5q-1 -59 -26 -119q-41 -102 -126 -173t-192.5 -109.5t-225.5 -44.5q-24 -1 -49 -2 q-93 0 -181 20q-115 23 -190.5 74t-116.5 113.5t-51 132.5zM330 109q31 -20 70.5 -35t91.5 -21q42 -5 82 -5q55 0 106 10q88 16 158.5 54t123 96t82.5 128q23 53 23 107v9q-2 58 -29.5 106t-82 80t-134.5 38q-20 2 -36.5 2h-32.5l-260 -541h-11q-28 0 -66 -8 q-46 -10 -85 -20z" />
<glyph unicode="C" horiz-adv-x="923" d="M70 404q8 122 63 268q55 143 144.5 267t198 212t232.5 132q88 31 176 31q36 0 72 -5q59 -12 98 -47q40 -36 57 -88q12 -36 12 -78q0 -20 -3 -42q-8 -68 -45 -147q-39 -80 -87 -127q-48 -46 -95 -64q-28 -11 -54 -11q-17 1 -32 5q-39 12 -59 48q72 39 123 97t85 130 q23 43 34 86q9 34 9 63q0 8 -1 16q-3 36 -20 61.5t-50 37.5q-21 7 -46 7q-40 0 -90 -18q-83 -28 -173.5 -101.5t-178.5 -190.5t-151 -274q-55 -141 -65 -248q-3 -34 -4 -65q0 -65 16 -115q22 -74 72 -113t116 -45q14 -1 28 -1q84 0 164 41q94 48 164 114v-74 q-86 -86 -187 -126t-187 -40q-115 0 -193 50t-115 140q-30 74 -30 169q0 22 2 45z" />
<glyph unicode="D" horiz-adv-x="1392" d="M46 306q-4 28 -4 54q0 39 9 74q14 55 46 94t71 59.5t83 22.5h8q40 0 79 -18q-47 -33 -85 -80t-58 -127q-10 -35 -10 -71q0 -20 3 -42q9 -58 44.5 -104.5t100 -78.5t161.5 -34q10 0 21 -1q108 0 203 39q105 42 193 121t161 189.5t128 241.5q50 117 64 221q6 44 6 84 q0 54 -12 100q-20 80 -74 134.5t-142 72.5q-49 9 -98 9q-34 0 -68 -4q-84 -11 -161.5 -44.5t-142 -88t-105.5 -128.5q-49 -86 -65 -172q-10 -50 -10 -88q0 -28 5 -49q-9 -1 -17 -1q-30 -1 -58 17q-34 22 -50 68q-8 25 -8 56q0 26 6 54q12 64 60 142q53 84 133 145.5 t178 98.5t210 47q37 3 75 3q76 0 153 -13q127 -23 205 -88.5t110 -162.5q23 -70 23 -154q0 -32 -4 -65q-12 -122 -67 -257q-66 -158 -165.5 -277t-220 -194.5t-256.5 -105.5q-80 -18 -163 -18q-57 0 -115 9q-121 16 -200 64.5t-124 112t-56 133.5zM319 106l492 1016 q9 -1 19 -1q24 1 58 7q48 10 95 25l-491 -1016q-18 0 -41 -3t-46.5 -7t-46 -10t-39.5 -11z" />
<glyph unicode="E" horiz-adv-x="1046" d="M80 268q-5 27 -6 55q0 59 24 121q33 90 96.5 155t142.5 107t166 61t167 19l82 -14v12l-107 35q-71 41 -99 127q-13 42 -14 83q0 44 15 87q27 72 80 119t120.5 70.5t145.5 25.5q8 0 16 1q70 0 138 -17q63 -16 105 -52t62 -81q19 -43 18 -91q0 -53 -20 -100 q-25 -59 -62.5 -89t-74.5 -36q-12 -2 -23 -2q-24 0 -44 8q-30 12 -39 35q37 23 65.5 55.5t44.5 79.5q18 43 18 84q1 22 -5 44q-14 62 -74 85q-41 19 -89 19h-2q-47 0 -91 -20q-45 -20 -83 -57.5t-59 -92.5q-13 -38 -14 -78q0 -8 1 -15q3 -48 27.5 -91t70.5 -79t118 -57 l43 -45q-42 3 -83 3q-73 0 -141 -9q-108 -14 -199 -52t-158.5 -100.5t-102.5 -154.5q-18 -46 -18 -93q0 -13 2 -27q6 -60 40.5 -109.5t97 -80t152.5 -32.5h14q46 0 96 12q58 14 113.5 35t102.5 49.5t78 59.5v-74q-31 -29 -78 -57.5t-103.5 -52t-120 -39t-126.5 -17.5 q-23 -2 -44 -2q-90 0 -164 28q-91 34 -146.5 96t-71.5 146z" />
<glyph unicode="F" horiz-adv-x="993" d="M64 244q6 56 36 108q18 37 47 57.5t60 25.5t58.5 -6t43.5 -40q-16 -10 -34.5 -28.5t-30.5 -41.5q-25 -41 -38 -83q-12 -39 -12 -76v-5q1 -38 16 -68t50 -42q24 -9 48 -9q36 0 72 21q60 35 103 131l209 428l-516 -20l-74 98h629l146 299q29 61 54 95t54 47l45 8v10 q-92 4 -187 15.5t-185 12.5h-9q-85 -1 -159 -17q-78 -18 -136 -68q-18 18 -23 43.5t0 50t20.5 47.5t39.5 37q49 33 132 38q31 2 63 2q56 0 118 -6q98 -8 199 -21t191 -17q88 45 162 45q23 0 44 -4q37 -8 53.5 -27.5t13.5 -42t-27.5 -43t-67.5 -31.5q-39 -8 -86 -11t-86 -5 l-219 -457h348v-55l-383 -16l-197 -412q-41 -86 -90 -139.5t-103.5 -78t-111.5 -24.5t-115 19q-61 20 -100 60t-55 90q-12 36 -12 75q0 15 2 31z" />
<glyph unicode="G" horiz-adv-x="962" d="M60 408q14 122 73 264q63 154 157.5 282.5t204 217t229.5 126.5q71 22 141 22q49 0 98 -11q49 -10 84.5 -42t52.5 -81q12 -36 12 -82q0 -17 -2 -35q-6 -68 -39 -149q-31 -78 -75 -126.5t-89 -67.5q-33 -14 -63 -14q-11 0 -22 2q-40 7 -62 38q53 35 97 92t79 125 q48 103 48 173v12q-5 73 -56 95q-20 8 -45 8q-38 0 -86 -19q-80 -30 -168 -104.5t-175 -191.5t-155 -270q-97 -227 -97 -371q0 -32 5 -61q27 -152 162 -162q9 -1 18 -1q36 0 71 13q44 16 85 51l186 387q33 0 83 9.5t89 21.5l-346 -721q-31 0 -82 -10t-90 -21l94 199l70 66 q-49 -37 -98.5 -54.5t-94.5 -17.5q-111 0 -181.5 51t-98.5 143q-18 61 -18 136q0 37 4 78z" />
<glyph unicode="H" horiz-adv-x="1224" d="M18 578h351l254 534q25 53 46 75.5t48 37.5l41 12v8q-61 -2 -111.5 -13t-93.5 -33.5t-84 -59.5t-84 -90q-23 20 -31 47.5t-3 58.5t24.5 60.5t54.5 52.5q46 31 104 41q42 7 83 7l33 -1q58 -4 108.5 -21.5t79.5 -44.5l-316 -671h467l344 714q10 -1 22 -1q25 -1 57 5 q48 8 79 15l-514 -1094q-41 -84 -51 -131q-4 -18 -5 -34q0 -27 11 -50q-29 -9 -56 -9q-18 0 -35 4q-44 9 -61 50q-10 25 -6 53.5t15.5 57t24.5 56.5t26 52l118 246l-475 -18l-231 -494h-11q-30 0 -72 -9q-50 -11 -89 -22l246 518l-234 -8z" />
<glyph unicode="I" horiz-adv-x="641" d="M138 100.5q3 28.5 12.5 57t23 56t25.5 52.5q82 168 141 292t103 214t72 149.5t46.5 98.5t27.5 60.5t15 33.5q23 51 48.5 75.5t47.5 35.5l41 12v8q-61 -4 -108 -13t-89 -30.5t-84 -58.5t-91 -94q-23 20 -32 47.5t-4 57.5t25.5 59.5t55.5 54.5q46 33 106 44q44 8 86 8 q15 0 31 -1q57 -4 107.5 -23.5t78.5 -46.5l-485 -1032q-42 -84 -52 -131q-4 -18 -4 -34q0 -27 11 -50q-26 -9 -53 -9q-16 0 -32 3q-44 8 -63 51q-10 25 -7 53.5z" />
<glyph unicode="J" horiz-adv-x="989" d="M24 206q5 68 37 138q55 111 133 142q28 11 57 11l99 -34q-45 -25 -89 -76t-77 -117q-34 -75 -34 -137q0 -25 6 -48q18 -81 88 -103q34 -11 68 -11q9 0 17 1q42 3 87 34t90 90.5t94 153.5l424 872q37 82 86 103l37 10v8q-62 7 -139 7h-20q-89 -1 -180 -19.5t-176 -57 t-145 -108.5q-23 18 -30.5 44t-3.5 53.5t20 54t45 47.5q47 33 138 51q87 17 185 17h11q104 -1 207.5 -20.5t175.5 -60.5l-487 -1034q-100 -209 -238 -279q-80 -40 -165 -40q-63 0 -128 22q-63 20 -108.5 63.5t-66.5 99.5q-18 46 -18 100v23z" />
<glyph unicode="K" horiz-adv-x="1136" d="M80 -31l543 1143q25 53 46 75.5t48 37.5l41 12v8q-61 -2 -111.5 -13t-93.5 -33.5t-84 -59.5t-84 -90q-23 20 -31 47.5t-3 58.5t24.5 60.5t54.5 52.5q46 31 104 41q42 7 83 7l33 -1q58 -4 108.5 -21.5t79.5 -44.5l-248 -526q44 -5 83 -5q35 0 67 4q66 9 117.5 40t94.5 86 t82 137q16 35 33.5 77t40 82t50.5 75.5t65 58.5q51 35 107 37h12q49 0 85 -15v-45q-35 -4 -60.5 -16t-57.5 -49q-49 -53 -83 -129t-73 -164q-47 -106 -121 -159.5t-166 -71.5l-75 -4l8 -9q94 -12 135 -96q24 -43 24 -103v-16q-4 -70 -28 -166q-20 -74 -24 -118 q-2 -19 -2 -35q0 -21 3 -35q6 -25 21.5 -32t36.5 -7v-43q-34 -10 -68 -10q-19 0 -39 3q-54 9 -78 44q-35 45 -35 122t43 218q19 64 19 114q0 65 -34 107q-57 68 -193 68h-15l-313 -668h-11q-30 0 -72 -9q-50 -11 -89 -22z" />
<glyph unicode="L" horiz-adv-x="1224" d="M18.5 62q-10.5 28 3 54.5t47 49t83.5 29.5q31 6 61 6q22 1 43 -3q49 -8 82 -24q47 82 87 192.5t79 229.5t83 235.5t101 210.5q74 119 172 188.5t209 80.5q24 2 46 3q71 0 123 -25q68 -32 102 -93q31 -56 32 -132q0 -8 -1 -14q-3 -84 -46 -178q-35 -72 -76 -112 q-41 -42 -81 -56q-24 -9 -46 -8q-14 0 -28 4q-34 10 -56 37q43 29 88 84.5t74 132.5q18 48 28 96q7 36 7 68q0 10 -1 19q-3 39 -23.5 67.5t-59.5 40.5q-22 7 -46 7q-12 0 -25 -2q-38 -5 -77.5 -26.5t-77.5 -58.5t-69 -88q-47 -80 -88 -186.5t-82 -216t-82 -213t-84 -176.5 q-49 -76 -104 -119v-4q0 -2 2 -4q29 10 60.5 16t70.5 10q14 1 30 1q31 0 65 -5q52 -8 106.5 -18t103.5 -20.5t86 -10.5q51 0 96 10.5t86 42.5q-2 -78 -53 -122t-127 -54q-25 -5 -56 -5q-23 0 -50 3q-51 6 -107.5 17.5t-118 22.5t-124 19.5t-126.5 8.5q-29 -25 -65.5 -41.5 t-75.5 -24.5q-31 -6 -63 -6h-16q-40 2 -74 16q-37 16 -47.5 44z" />
<glyph unicode="M" horiz-adv-x="1421" d="M27 -31l538 1141q25 49 46.5 73.5t50.5 41.5l43 12v8q-53 -4 -97.5 -10t-87.5 -26.5t-88 -58.5t-100 -101q-23 18 -32 47.5t-3 60.5t25.5 60.5t54.5 50.5q45 31 105 43q42 8 82 8q17 0 34 -1q57 -5 107.5 -23.5t78.5 -45.5l37 -37l-59 -723l-57 -106l2 -2l804 911 q12 -2 28 -2q23 0 55 4q52 6 96 17l-514 -1094q-42 -84 -52 -131q-4 -19 -4 -36q0 -26 10 -48q-25 -9 -51 -9q-15 0 -31 3q-42 8 -61 49q-10 22 -10 48q1 27 11 57q20 60 50 116l310 647l106 189l-8 2l-125 -160l-608 -743h-123l98 895l-10 -2l-80 -220l-412 -874 q-41 -2 -79.5 -10t-79.5 -21z" />
<glyph unicode="N" horiz-adv-x="1216" d="M29 -31l540 1141q23 49 44.5 73.5t52.5 41.5l41 12v8q-53 -4 -97.5 -10t-87.5 -26.5t-88 -58.5t-100 -101q-23 18 -32 47.5t-3 60.5t25.5 60.5t54.5 50.5q47 31 105 43q41 8 83 8q17 0 34 -1q58 -5 107.5 -23.5t77.5 -45.5l39 -39l33 -811l-20 -166l8 -8 q92 217 157.5 375t109.5 268.5t68.5 182t34.5 116.5q10 41 10 66q0 28 -9 51q31 11 60 11q15 0 29 -3q42 -8 60 -47q10 -23 10 -50.5t-6 -57t-16.5 -58t-22.5 -53.5l-493 -1026h-109l-27 1118l-63 -178l-442 -940q-43 -2 -85 -10t-83 -21z" />
<glyph unicode="O" horiz-adv-x="1095" d="M78 207q-8 41 -9 90q-1 61 13 134q24 130 96 286q59 133 142 245.5t180.5 192.5t203.5 122q89 35 181 35q17 0 35 -1q88 -6 145 -58.5t77 -139.5q11 -46 11 -101q-1 -49 -9 -106q-18 -120 -77 -263q-78 -182 -172 -308t-193 -202q-98 -75 -197 -107q-88 -28 -166 -28h-20 q-100 6 -161.5 60.5t-79.5 148.5zM206 204q5 -72 35.5 -104t71.5 -39q11 -2 24 -1q31 0 73 10q60 14 137.5 77.5t168.5 189.5t189 341q69 148 93 254q20 86 19 147q0 15 -1 29q-6 70 -37 104.5t-76 38.5h-9q-33 0 -83 -13q-57 -15 -131 -72.5t-161 -170t-179 -303.5 q-80 -178 -110 -297q-25 -102 -25 -169q0 -12 1 -22z" />
<glyph unicode="P" horiz-adv-x="1171" d="M72 -31l557 1153q33 0 82 8.5t90 22.5l-355 -731q72 -25 158 -25t172 38t162 118t125 213q35 94 38 177v16q-1 73 -25 133q-28 66 -82 108.5t-132 54.5q-44 8 -89 8q-36 0 -73 -5q-84 -11 -161.5 -44.5t-143 -88t-106.5 -124.5q-43 -76 -61 -143q-15 -55 -15 -120v-29 q-6 -1 -12 -1q-33 0 -59 20q-30 22 -44 62q-10 29 -10 64q0 12 1 26q5 52 36 107q41 76 113.5 145.5t171 116.5t221.5 65q56 8 117 9q72 0 149 -12q131 -23 210 -85t113 -142q31 -72 31 -155v-19q-4 -94 -39 -185q-49 -129 -135 -217t-191.5 -133t-225.5 -46h-5 q-117 0 -231 44l-180 -373q-39 -2 -87 -11t-85 -20z" />
<glyph unicode="Q" horiz-adv-x="1112" d="M62 242q-2 16 -2 32q0 90 30 195q35 125 90 248q57 129 138 240.5t176.5 193.5t203.5 125q90 36 186 36q18 0 36 -1q88 -6 144 -58.5t78 -139.5q11 -48 11 -106q0 -47 -7 -101q-18 -120 -79 -263q-39 -96 -90 -179t-106.5 -150.5t-109.5 -118t-102 -78.5 q39 -86 85.5 -138.5t117.5 -56.5q-23 -47 -64 -70q-31 -18 -68 -18q-12 0 -25 2q-59 10 -106.5 68.5t-72.5 156.5q-29 -23 -82 -45q-45 -19 -103 -19q-11 0 -22 1q-133 6 -192 73.5t-65 170.5zM166 213l6 -6q27 88 86 142t126 63q13 2 26 2q53 0 106 -32q64 -40 105 -138 q86 80 155.5 191.5t128.5 242.5q61 137 88 240q24 94 24 160v14q-3 71 -32 110t-78 47q-15 3 -31 3q-34 0 -76 -14q-63 -21 -136.5 -86t-155.5 -176.5t-166 -283.5q-12 -27 -36.5 -81t-51.5 -121.5t-51.5 -141.5t-36.5 -135zM218 150.5q5 -27.5 20.5 -49t37.5 -31.5 q31 -12 64 -12q2 -1 3 -1q32 0 61 9q30 10 58 26.5t46 34.5q-14 82 -47 125t-70 55q-19 6 -38 6q-18 0 -35 -5q-37 -11 -60 -36q-27 -31 -36 -62.5t-4 -59z" />
<glyph unicode="R" horiz-adv-x="1130" d="M72 -31l557 1153q33 0 82 8.5t90 22.5l-228 -471q16 -4 34 -5t32 -3q36 -5 71 -6q44 0 82 9q70 15 124.5 51t92.5 88t56 116q10 38 10 76q0 16 -2 32q-6 52 -33.5 96t-77 75.5t-118.5 43.5q-58 11 -116 11q-25 0 -51 -2q-83 -7 -159 -38.5t-140.5 -88t-111.5 -136.5 q-75 -132 -74 -255q0 -19 1 -37h-7q-43 -1 -71 23q-31 26 -41 71q-5 21 -5 44q1 27 7 59q12 58 53 124q101 162 293 239q132 53 296 53q75 0 156 -11q106 -16 177 -59.5t111 -99.5t52 -120q5 -30 5 -58q0 -32 -7 -63q-25 -111 -108.5 -185.5t-202.5 -104.5l-113 2l7 -9 q47 -6 82.5 -31.5t56.5 -66.5q22 -39 22 -86q0 -10 -2 -22q-6 -60 -30 -156q-18 -74 -23 -116t3.5 -62.5t24 -24.5t36.5 -4v-43q-34 -10 -68 -10q-19 0 -39 3q-54 9 -78 44q-16 20 -25.5 46t-9.5 60.5t9.5 82.5t29.5 118q21 69 21 119q0 65 -34 101q-56 60 -207 59h-19 l-301 -625q-39 -2 -87 -11t-85 -20z" />
<glyph unicode="S" horiz-adv-x="1083" d="M41 392v13q0 61 16 119q29 104 86.5 171t116.5 83q23 6 48 6q17 0 35 -3q44 -7 67 -33q-70 -35 -123.5 -96.5t-85.5 -159.5q-17 -59 -21 -118q-1 -11 -1 -23q-1 -47 11 -90q14 -54 46 -98t86 -73q51 -29 109 -35q19 -2 38 -2q39 1 77 9q58 12 108.5 42.5t84.5 77.5 q63 88 63 177q0 21 -4 41q-18 110 -96 214q-106 142 -124 272q-4 29 -3 57q0 98 48 187q33 63 85 105.5t114 62.5q58 19 120 18h6q66 -1 127 -24q63 -25 101 -66.5t52 -89.5q9 -34 9 -69q0 -15 -2 -31q-6 -51 -31 -96q-25 -47 -60.5 -70.5t-70.5 -27.5q-7 -1 -14 -1 q-27 0 -49 12q-28 15 -41 48q41 23 72.5 52.5t52.5 72.5q14 29 17 59.5t-3 60.5t-24.5 54.5t-47.5 38.5q-35 18 -78 18t-85 -15t-78.5 -47t-57.5 -81q-23 -53 -23 -115q0 -31 6 -63q18 -98 109 -215q61 -78 88 -158q24 -70 23 -136v-19q-4 -76 -37 -147t-90 -128 q-53 -59 -125 -93t-148 -44q-33 -4 -67 -4q-43 0 -87 7q-77 13 -140 50q-70 39 -114 94.5t-66.5 118t-24.5 130.5z" />
<glyph unicode="T" horiz-adv-x="989" d="M36 255q7 58 38 112q20 37 49 59.5t59.5 27.5t58.5 -6t44 -40q-16 -10 -43 -40t-43 -61q-41 -79 -41 -149v-12q4 -76 69 -103q25 -9 49 -9q38 0 75 22q61 36 104 132l393 805q29 61 54.5 95t53.5 47l45 8v10q-92 4 -187 15.5t-184 12.5h-10q-84 -1 -158 -17 q-79 -18 -136 -68q-18 18 -23.5 43.5t-0.5 50t20.5 47.5t39.5 37q48 33 132 38q31 2 64 2q56 0 117 -6q97 -8 198.5 -21t191.5 -17q88 45 163 45q23 0 44 -4q37 -8 53 -27.5t13 -42t-27.5 -43t-67.5 -31.5q-39 -8 -86 -11t-86 -5l-450 -940q-41 -86 -90.5 -139.5t-103.5 -78 t-111.5 -24.5t-114.5 19q-61 20 -100.5 62t-55.5 94q-11 37 -11 76q0 17 2 35z" />
<glyph unicode="U" horiz-adv-x="1105" d="M74 298q18 114 100 284q43 86 104.5 181t132 182t143.5 161t136 119l41 12v8q-53 -4 -98 -11t-88 -26.5t-88 -57.5t-99 -101q-23 18 -31 44.5t-2.5 57.5t25 61.5t53.5 55.5q45 31 107 41q45 7 90 7l36 -1q62 -4 115.5 -24.5t82.5 -51.5q-61 -53 -133 -130t-140.5 -167 t-130 -185t-102.5 -186q-51 -109 -76 -199q-25 -92 -26 -156v-5q0 -60 20 -92q16 -27 46 -26q7 0 15 1q66 10 157 82t185 178.5t182.5 232.5t147.5 247l225 458q12 -2 27 -2q22 0 50 4q46 6 81 17l-514 -1094q-42 -84 -52 -131q-4 -18 -4 -34q0 -27 11 -50q-26 -8 -53 -8 q-16 0 -33 3q-45 7 -62 48q-8 20 -8 41q1 15 5 31q10 37 26 71l86 164l84 137l-4 9l-66 -86q-160 -211 -295 -305.5t-235 -106.5q-10 -1 -19 -1q-43 -1 -83 21q-50 26 -70 96q-11 36 -11 84q0 44 9 98z" />
<glyph unicode="V" horiz-adv-x="1118" d="M40 106q-2 14 -2 30q0 40 14 88q18 66 50 132l363 756q25 53 46 75.5t48 37.5l41 12v8q-61 -2 -111.5 -13t-93.5 -33.5t-84 -59.5t-84 -90q-23 20 -31 47.5t-2.5 58.5t25 60.5t53.5 52.5q46 31 104 41q42 7 83 7l33 -1q58 -4 108.5 -21.5t79.5 -44.5l-434 -915 q-25 -53 -46.5 -100.5t-30.5 -84t-1 -61.5t41 -31q11 -3 23 -3q38 0 88 22q68 30 148.5 92.5t170.5 154t176 204t165 242.5t138 269q31 70 48.5 137.5t19.5 129.5q24 6 43 6q27 1 44 -11q30 -20 39 -58q5 -20 5 -44q0 -21 -4 -45q-8 -51 -25 -96q-37 -106 -106.5 -226 t-159.5 -239t-195.5 -226.5t-213 -190.5t-213 -132t-195.5 -49q-80 0 -119 30t-46 82z" />
<glyph unicode="W" horiz-adv-x="1519" d="M68 298q18 114 100 284q43 86 104.5 181t132 182t143.5 161t136 119l41 12v8q-53 -4 -98 -11t-88 -26.5t-88 -57.5t-99 -101q-23 18 -31 44.5t-2.5 57.5t24.5 61.5t54 55.5q45 31 107 41q45 7 90 7l36 -1q62 -4 115.5 -24.5t81.5 -51.5q-61 -53 -133.5 -131t-144.5 -169 t-135.5 -187.5t-104.5 -186.5q-51 -109 -75.5 -200t-25.5 -155v-6q0 -60 20 -92q17 -26 48 -26q7 0 15 2q66 10 136.5 80t140 173t137 227t126.5 245l230 465q12 -2 26 -2q21 0 49 4q46 6 83 16l-490 -1028q-42 -88 -42 -141q0 -51 40 -57h9q54 0 142 64q94 70 202 199.5 t217.5 310.5t197.5 394q29 72 47.5 138.5t20.5 128.5q24 6 43 6q26 1 44 -11q30 -20 38 -58q5 -20 6 -44q0 -21 -4 -45q-8 -51 -25 -96q-39 -109 -101.5 -229.5t-142.5 -238.5t-171 -225.5t-185 -189.5t-186.5 -130t-171.5 -48q-47 0 -74 18t-39 48q-10 25 -10 55v10 q2 35 14 70q6 27 12 46t14.5 38.5t18.5 40t25 49.5l-11 4q-104 -180 -212.5 -275.5t-202.5 -99.5q-7 -1 -14 -1q-46 -1 -88 23q-50 26 -70 94q-11 35 -11 84q0 44 9 98z" />
<glyph unicode="X" horiz-adv-x="1140" d="M33 22q-5 19 -5 43t5 54q18 94 74.5 185t139.5 169t188.5 137.5t219.5 89.5q-78 39 -94 119q-5 24 -5 51q0 62 26 140q23 70 64.5 127t88.5 88l43 12v8q-55 -4 -102 -11t-93 -27.5t-93.5 -58.5t-98.5 -99q-23 18 -31 45.5t-4 58.5t23.5 60.5t56.5 54.5q46 33 108 43 q39 6 78 6l46 -2q62 -6 116 -26.5t82 -47.5q-47 -66 -80.5 -123t-50.5 -106q-43 -124 -43 -192v-6q2 -69 43 -85q13 -4 28 -3q24 0 53 8q48 16 100.5 51.5t103.5 89t91 119.5q39 67 63 145q20 67 21 135q0 12 -1 24q18 8 44 10.5t48.5 -7t37.5 -33t17 -66.5 q0 -68 -31.5 -144.5t-92 -147t-144.5 -129t-188 -89.5q78 -35 85 -126q1 -7 0 -15q0 -88 -71 -229q-68 -127 -70 -201v-7q0 -69 37 -112q-40 -14 -73 -14q-19 0 -36 4q-46 14 -67 55q-15 31 -15 75q-1 22 3 46q12 74 72 186q41 80 61 134.5t21.5 89t-16 53t-50.5 26.5 q-15 5 -33 5q-29 0 -67 -13q-60 -20 -126.5 -66t-133 -114t-118.5 -150.5t-84 -178.5q-30 -90 -30 -183v-12q-29 -10 -58.5 -6t-51 24.5t-31.5 58.5z" />
<glyph unicode="Y" horiz-adv-x="901" d="M135 -31l262 555l64 13q-23 4 -43.5 8t-34.5 12q-41 27 -60.5 69t-22.5 93q-1 12 -1 24q0 40 8 83q10 57 31 112q14 45 38.5 90t51.5 84t54.5 67.5t52.5 45.5l43 12v8q-55 -4 -102.5 -11t-93.5 -27.5t-93 -58.5t-99 -99q-23 18 -30.5 45.5t-3.5 58.5t23.5 60.5t56.5 54.5 q45 33 108 43q39 6 77 6q24 0 47 -2q62 -6 115.5 -26.5t82.5 -47.5q-47 -66 -96.5 -145.5t-77.5 -155.5q-27 -63 -43.5 -122.5t-21.5 -107.5q-2 -17 -2 -32q0 -28 6 -49q9 -33 34 -41q9 -3 20 -3q28 0 65 19q52 25 112.5 76t121 124t108.5 154.5t76 169.5q25 78 25 150v20 q18 8 44 10.5t48.5 -7t38 -33t17.5 -66.5q0 -68 -43 -167t-116 -196.5t-169 -177t-201 -110.5q-25 -10 -53 -12l-252 -539h-11q-30 0 -72 -9q-50 -11 -89 -22z" />
<glyph unicode="Z" horiz-adv-x="1019" d="M4 45l1110 1161l-8 6q-35 -33 -91.5 -58.5t-107.5 -29.5q-27 -3 -52 -3q-21 0 -41 2q-44 5 -85 12.5t-83 14.5t-87 7q-78 0 -129 -22.5t-72 -51.5q-6 24 -6 48q0 14 2 29q6 38 29 71t60.5 54.5t91.5 25.5q17 1 35 1q56 0 116 -14q78 -20 161 -34q65 -11 135 -12 q19 0 39 1q91 4 193 58l43 -43q-215 -233 -417 -451q-86 -92 -180.5 -189.5t-184.5 -188.5t-175 -172t-153 -140l7 -6q43 29 82.5 50.5t91.5 25.5h18q34 1 71 -5q48 -8 99 -18t101.5 -19.5t93.5 -9.5q98 0 182 54q-2 -33 -17.5 -68t-47 -64.5t-79 -48t-110.5 -18.5 q-70 0 -138.5 17.5t-140.5 28.5q-47 7 -97 7q-27 0 -54 -2q-78 -6 -168 -51z" />
<glyph unicode="[" horiz-adv-x="702" d="M-39 -205l744 1516h362l-23 -58h-239l-686 -1400h237l-22 -58h-373z" />
<glyph unicode="\" horiz-adv-x="761" d="M250 1311h69l148 -1516h-72z" />
<glyph unicode="]" horiz-adv-x="702" d="M-260 -205l22 58h240l684 1400h-235l22 58h373l-744 -1516h-362z" />
<glyph unicode="^" horiz-adv-x="718" d="M131 776l395 305h72l162 -317l-58 -39l-190 223l-350 -209z" />
<glyph unicode="_" horiz-adv-x="686" d="M-203 -170l47 100h648l-39 -100h-656z" />
<glyph unicode="`" horiz-adv-x="851" d="M205 1257q74 51 125 25q23 -14 39 -58t32.5 -99.5t38 -114t54.5 -99.5q-45 -18 -82 -10t-71 50t-66.5 116.5t-69.5 189.5z" />
<glyph unicode="a" horiz-adv-x="892" d="M-30 160q-2 19 -2 39q0 59 20 129q28 94 98 196q72 104 148.5 170t151.5 96q68 27 132 26h12q70 -3 125 -34q38 -22 89 -22h6q54 2 110 26l-248 -483q-49 -103 -52 -155v-8q0 -44 34 -44q59 0 141 70t170 221l49 -29q-111 -168 -214 -264t-214 -96q-54 0 -86 40 q-29 36 -28 88v13l30 70h-6l-22 -33q-53 -76 -122 -126t-153 -50q-72 0 -115.5 44t-53.5 116zM106 196v-10q0 -44 18 -70q20 -28 58 -28q70 0 159 83t171 245l152 303q-41 22 -91 22q-7 -1 -13 -1q-58 -4 -118.5 -34t-121 -88.5t-111.5 -142.5q-53 -86 -77 -156.5 t-26 -122.5z" />
<glyph unicode="b" horiz-adv-x="862" d="M-88 193l502 1026q9 -1 20 -1q27 0 61 7q48 10 91 24l-234 -479l-82 -106l4 -5l56 58q39 41 98 71.5t115 30.5q74 0 123 -38q49 -37 64 -105q6 -28 6 -60q0 -46 -12 -102q-22 -94 -89 -207q-20 -33 -40 -61.5t-42 -52.5q20 -4 40 -3q65 0 133 38q89 51 148 159l50 -29 q-86 -141 -201 -194q-83 -38 -168 -38q-32 0 -63 5q-112 -95 -222 -113q-35 -6 -67 -6q-68 0 -123 25q-39 16 -89 55t-79 101zM39 127q48 -36 108 -36h3q62 1 126 32t124.5 90t105.5 143q90 165 90 267v9q-4 104 -94 103h-4q-70 1 -151 -73q-83 -76 -173 -261z" />
<glyph unicode="c" horiz-adv-x="780" d="M-20 293q12 90 73 194q53 96 120 163t139 107q70 40 142 55q47 10 90 10q23 0 44 -3q53 -6 85 -32.5t45 -64.5q10 -29 10 -62q0 -10 -1 -20q-4 -44 -22 -87q-23 -51 -51.5 -90t-63.5 -63q-35 -22 -74 -30q-13 -2 -26 -3l-52 10q14 20 32.5 47t36 54.5t34 54t26.5 47.5 q36 75 36 117q0 6 -1 11q-6 42 -41 52q-11 3 -22 3q-23 -1 -52 -11q-43 -16 -92 -53t-100 -98.5t-100 -147.5t-65 -158q-8 -38 -8 -70q0 -29 7 -53q14 -51 57 -80t111 -29q57 0 124.5 18.5t133.5 58.5t127 101.5t109 145.5l49 -29q-45 -78 -107.5 -144.5t-138.5 -113.5 t-160 -73.5t-172 -26.5q-98 0 -166.5 37t-97.5 101q-21 46 -21 106q0 23 3 49z" />
<glyph unicode="d" horiz-adv-x="890" d="M-30 152q-4 23 -5 49q-1 53 17 115q26 92 94 196q68 100 143.5 171t154.5 105q71 31 141 32q9 0 17 -1q78 -4 150 -53l215 440q8 -1 17 -1q29 -1 69 9q53 12 104 35q-16 -31 -56 -109.5t-91 -181t-108.5 -215t-106.5 -211t-84 -168t-43 -83.5q-42 -82 -42 -130v-7 q3 -48 42 -48q57 0 134 68.5t171 222.5l49 -29q-39 -57 -85 -120.5t-100 -116.5t-112.5 -88t-122.5 -35q-56 0 -90 39q-29 33 -29 84q0 9 1 18l26 56h-6l-18 -27q-61 -88 -129 -128t-144 -40q-72 0 -116.5 41t-56.5 111zM126 112q24 -26 64 -26q86 0 164 92t170 273l135 264 q-49 29 -103 29h-8q-58 -2 -117.5 -36t-119 -95.5t-112.5 -149.5q-53 -85 -76 -155q-22 -67 -22 -115q0 -53 25 -81z" />
<glyph unicode="e" horiz-adv-x="794" d="M-16 299q10 88 65 188q53 96 120 164t137 108t142 54q46 9 89 9q25 0 49 -3q49 -6 81.5 -31.5t46.5 -64.5q10 -28 11 -60q0 -13 -2 -28q-6 -49 -35 -100q-39 -72 -100.5 -129.5t-137 -97.5t-158.5 -60q-69 -16 -137 -16q-14 0 -28 1v-7q0 -75 42 -118q44 -45 122 -45 q55 0 123.5 18.5t139.5 58.5t137.5 101.5t113.5 145.5l49 -29q-43 -76 -108.5 -141t-143.5 -113.5t-167 -76t-179 -27.5q-96 0 -161.5 39t-93.5 105q-20 48 -20 109q0 22 3 46zM133 279q61 2 121.5 23.5t116 58t103.5 89t85 115.5q42 72 42 122q0 7 -1 15q-8 54 -49 60 q-8 2 -16 2q-22 0 -51 -12q-40 -16 -87 -53t-98 -98.5t-100 -147.5q-53 -94 -66 -174z" />
<glyph unicode="f" horiz-adv-x="378" d="M-346 -336l567 1155h-180l45 80h172q47 129 105.5 207t146.5 117q50 22 109 22q9 0 17 -1q69 -3 122 -32q57 -33 68 -75q2 -12 2 -22q0 -25 -19 -38q-16 -10 -35.5 -10t-35 11.5t-23.5 35t0 57.5q-23 10 -50 10q-28 0 -61 -11q-63 -21 -112 -97q-25 -39 -44.5 -86 t-35.5 -88h184l-43 -80h-180l-545 -1124h-12q-27 0 -67 -6q-50 -8 -95 -25z" />
<glyph unicode="g" horiz-adv-x="845" d="M-135 -122.5q6 20.5 24 30.5t39 5t35 -22.5t23 -46.5q4 -16 4 -36q0 -14 -2 -29q25 -18 60 -19q3 -1 6 -1q33 0 68 17q38 19 76 57t66 97l98 195l62 86h-8l-21 -21q-41 -41 -103 -74q-51 -27 -110 -27q-11 0 -22 1q-57 2 -101.5 39t-60.5 99q-8 29 -8 64q0 37 9 80 q17 83 83 181q63 96 137 156.5t147 86.5q64 24 126 24q9 0 18 -1q70 -4 127 -35q46 -25 89 -25q6 0 13 1q49 4 109 28l-373 -729q-23 -47 -44 -83.5t-40 -69.5q63 45 131 103.5t131.5 122t116.5 129t88 126.5l49 -27q-49 -80 -130 -170t-169 -170.5t-173 -144t-142 -92.5 q-37 -33 -88 -59q-25 -12 -57.5 -18.5t-66.5 -6.5t-67.5 7.5t-60.5 23.5q-37 20 -58.5 47.5t-28.5 53.5t-1 46.5zM130 265q5 -44 29.5 -67.5t63.5 -23.5q72 0 149 68.5t148 208.5l131 264q-57 37 -120 37q-49 0 -102 -22q-120 -52 -222 -224q-47 -74 -65 -136 q-13 -47 -13 -85q0 -10 1 -20z" />
<glyph unicode="h" horiz-adv-x="870" d="M-176 0l582 1219q10 -1 21 -1q65 0 151 31l-277 -577l-82 -107l6 -6q59 74 118.5 124t115 81t104.5 44q42 11 77 11h11q49 -2 78 -27.5t39 -68.5q4 -20 5 -40q1 -47 -23 -99q-32 -74 -91 -172q-93 -154 -115 -236q-7 -24 -6 -42q0 -40 37 -40q33 0 72 25.5t81 67.5 t82 94.5t73 105.5l49 -29q-122 -174 -222 -268q-95 -90 -196 -90h-8q-53 2 -90 43q-32 35 -32 94q0 9 1 19q4 53 36 115.5t79 140.5q113 186 120 260q1 6 1 11q0 50 -48 50q-10 0 -22 -2q-27 -4 -79 -36.5t-118.5 -98.5t-139.5 -166t-142 -237l-92 -193h-156z" />
<glyph unicode="i" horiz-adv-x="405" d="M-76 170q8 66 50 148.5t89 179.5l142 282h12q33 0 73 8q48 10 89 31l-256 -516q-50 -106 -50 -157q0 -50 46 -50q59 0 134 70t163 221l49 -29q-49 -76 -96 -141t-96.5 -114.5t-105.5 -77t-126 -27.5q-51 0 -90 43q-30 33 -30 91q0 18 3 38zM294 1048q-3 12 -3 25 q0 28 16 57q23 42 67 54q18 5 35 5q25 0 48 -11q41 -23 53 -62q4 -14 5 -27q0 -25 -15 -51q-23 -43 -67 -58q-19 -6 -37 -6q-24 0 -46 11q-45 23 -56 63z" />
<glyph unicode="j" horiz-adv-x="364" d="M-578.5 -144.5q5.5 21.5 23.5 29.5t35.5 3t32 -22.5t21.5 -44t5 -59.5q25 -10 55.5 -5t65.5 33t76 84t88 151l381 755h10q29 0 70 8q49 11 94 31l-381 -760q-23 -45 -43.5 -81.5t-42.5 -69.5q61 45 127.5 101.5t130 120t118 129t89.5 128.5l49 -27q-51 -84 -131 -173 t-167 -168.5t-169 -141t-137 -86.5l-37 -31q-31 -25 -67.5 -41t-75.5 -21q-20 -2 -38.5 -2t-36.5 2q-36 5 -65 21q-33 16 -52 41t-26.5 49.5t-2 46zM294 1048q-3 12 -3 25q0 28 16 57q23 41 67 54q18 5 35 5q25 0 48 -11q41 -23 53 -62q5 -14 5 -27q0 -26 -15 -51 q-23 -43 -67 -58q-19 -6 -37 -6q-24 0 -46 11q-45 23 -56 63z" />
<glyph unicode="k" horiz-adv-x="804" d="M-176 0l582 1219q9 -1 20 -1q24 0 56 6q48 9 96 25l-392 -817l-67 -63l4 -7q72 61 163 117t171 111t133 110.5t53 114.5q20 6 42 6t40 -7t29.5 -23.5t11.5 -42.5q0 -37 -27.5 -75t-75 -70t-113 -58.5t-144.5 -42.5l-17 -10q10 1 20 1q47 -1 83 -17q44 -20 57 -58 q6 -21 6 -40q0 -14 -3 -26q-7 -30 -22.5 -60t-33 -59.5t-27.5 -60.5q-10 -35 3 -57.5t44 -18.5q31 2 69 25.5t76.5 62.5t78.5 91.5t77 111.5l49 -29q-55 -80 -107 -145.5t-102.5 -113.5t-100.5 -73.5t-105 -25.5q-70 0 -106 41q-28 32 -28 82q0 14 2 29q6 43 23.5 77.5 t34 63.5t27 52.5t2.5 45.5q-8 25 -43 27h-6q-33 0 -77 -20q-48 -22 -98.5 -63.5t-91.5 -103.5l-110 -231h-156z" />
<glyph unicode="l" horiz-adv-x="403" d="M-78 170q10 66 52 148.5t89 179.5l351 712h10q32 0 74 10q49 12 90 29l-465 -946q-43 -89 -50 -143q-1 -9 -2 -16q0 -40 31 -48q25 -8 60 8.5t77 53.5t87 94t90 135l49 -29q-57 -86 -107.5 -152.5t-99.5 -112.5t-99 -70.5t-106 -24.5q-63 0 -104 45q-31 34 -31 88 q0 18 4 39z" />
<glyph unicode="m" horiz-adv-x="1312" d="M-176 0l377 788q10 -1 22 -1q27 1 58 7q45 10 92 25l-74 -149l-78 -99l6 -10q57 72 115.5 122t112 81t102.5 44q42 11 77 12q5 0 11 -1q59 -2 87 -38t28 -95l-49 -74l4 -6q107 121 207 169q96 46 166 46h6q49 -2 77.5 -27.5t38.5 -70.5q2 -17 3 -34q1 -53 -23 -107 q-30 -72 -88 -170q-90 -150 -114 -234q-7 -26 -7 -44q0 -40 37 -40q33 0 71.5 25.5t80.5 67.5t82 94.5t73 105.5l49 -29q-123 -174 -222 -268q-95 -90 -195 -90h-9q-53 2 -90 43q-32 35 -32 94q0 9 1 19q4 53 36 115.5t77 140.5q113 186 121 260q1 7 1 13q0 49 -47 48 q-10 0 -22 -2q-23 -4 -57.5 -23.5t-78.5 -56.5t-95 -95t-105 -138q-4 -4 -4 -6q-2 -2 -2 -4l-196 -408h-156l195 412q27 51 56.5 110.5t44.5 108.5q10 32 10 56q0 13 -3 23q-6 23 -38 23q-9 0 -19 -2q-27 -4 -77 -36.5t-113.5 -95t-135.5 -159t-139 -229.5l-100 -211h-156z " />
<glyph unicode="n" horiz-adv-x="870" d="M-176 0l377 788q10 -1 22 -1q27 1 58 7q45 10 92 25l-74 -149l-78 -101l4 -8q59 72 118.5 122t115 81t104.5 44q42 11 77 11h11q49 -2 78 -27.5t39 -68.5q4 -20 5 -40q1 -47 -23 -99q-32 -74 -91 -172q-93 -154 -115 -236q-7 -24 -6 -42q0 -40 37 -40q33 0 72 25.5 t81 67.5t82 94.5t73 105.5l49 -29q-122 -174 -222 -268q-95 -90 -196 -90h-8q-53 2 -90 43q-32 35 -32 94q0 9 1 19q4 53 36 115.5t79 140.5q113 186 120 260q1 6 1 11q0 50 -48 50q-10 0 -22 -2q-27 -4 -78 -36.5t-115.5 -95t-137.5 -159t-140 -229.5l-100 -211h-156z" />
<glyph unicode="o" horiz-adv-x="870" d="M-17 267q3 83 44 184q35 86 87 154.5t113.5 116.5t127.5 72.5t134 24.5q84 0 139.5 -33.5t81.5 -91.5q23 -51 23 -118q0 -8 -1 -16q-3 -77 -34 -163q-23 -61 -49 -113.5t-59 -93.5q6 0 11 -1q73 1 147 49q80 52 135 149l49 -29q-78 -131 -184 -186q-90 -47 -183 -47 q-17 0 -33 2q-133 -129 -307 -129q-78 0 -134 32q-55 34 -83 94q-25 55 -25 127v16zM119 166q4 -51 26.5 -80t61.5 -29q86 0 174 93.5t162 263.5q59 134 59 223q0 17 -2 32q-14 95 -90 95q-84 0 -169 -89t-157 -247q-37 -78 -53 -144q-13 -53 -13 -97q0 -11 1 -21z" />
<glyph unicode="p" horiz-adv-x="866" d="M-336 -317l539 1105h12q31 0 70 8q47 11 86 23l-31 -69l-84 -105l4 -4l51 49q20 27 55 53.5t77 47t86 28.5q20 4 39 4q24 0 48 -6q49 -8 83 -47t43 -104q2 -18 2 -36q0 -54 -18 -120q-24 -90 -91 -203q-18 -33 -39 -60.5t-43 -51.5q22 -5 44 -5q64 0 131 38 q91 51 151 159l49 -29q-86 -141 -202 -194q-84 -38 -168 -38l-64 5q-117 -104 -251 -127q-37 -7 -73 -7q-92 0 -174 44l-168 -340q-10 1 -21 1q-26 0 -57 -4q-43 -5 -86 -15zM20 92q35 -16 90 -19h11q50 0 109 23q65 25 136.5 86.5t139.5 173.5q94 158 99 258v17 q0 86 -48 104q-16 7 -35 7q-22 0 -47 -9q-47 -16 -99 -60t-104.5 -112.5t-97.5 -159.5z" />
<glyph unicode="q" horiz-adv-x="868" d="M-26 169q-4 22 -4 46q0 51 16 111q22 88 88 186q135 205 292 274q75 34 150 34q80 0 158 -38q42 -21 80 -21q4 0 8 1q41 2 88 26l-426 -874q51 43 111.5 94t123 110.5t120 126t102.5 142.5l49 -27q-45 -74 -106.5 -144.5t-126 -134t-126 -118.5t-106.5 -94h76l-43 -80 h-133l-43 -88q-8 1 -18 1q-24 0 -58 -4q-47 -5 -84 -15l51 106h-217l45 80h211l72 147l112 172h-10l-39 -51q-55 -74 -121 -111q-45 -25 -99 -25q-23 0 -48 5q-59 8 -97 51t-48 112zM104 216v-10q0 -41 16 -69q17 -31 50 -39q12 -3 24 -3q59 0 133 65q89 78 171 239l170 334 q-44 18 -94 18q-6 0 -12 -1q-58 -2 -119.5 -35t-125 -95.5t-120.5 -156.5q-45 -74 -68 -136.5t-25 -110.5z" />
<glyph unicode="r" horiz-adv-x="679" d="M-10 346q33 61 59.5 109.5t49 92.5t43 90t42.5 103q-23 6 -33 26.5t-10 45.5h119q60 12 112 13h8q47 0 83 -11q39 -12 63.5 -39.5t30.5 -73.5q2 -14 2 -28q0 -58 -33 -122q-41 -80 -92 -173q-98 -175 -98 -242q0 -32 22 -39q10 -4 21 -4q25 0 61 18q52 26 92 70 q18 18 35 37t35.5 42.5t40 53t51.5 72.5l49 -29q-45 -57 -90 -121.5t-114 -130.5q-27 -25 -61 -48t-71.5 -38.5t-75.5 -19.5q-8 -1 -17 -1q-29 0 -54 11q-48 20 -66 62q-14 32 -14 70q0 11 1 22q5 51 30 110.5t57 118.5q27 47 55.5 91t50 84t34 73t8.5 59q-8 46 -60 52 q-13 1 -25 2q-40 0 -85 -13q-12 -41 -38 -99t-55.5 -117.5t-60.5 -115t-55 -90.5z" />
<glyph unicode="s" horiz-adv-x="753" d="M-22.5 108.5q-2.5 28.5 11 50t36.5 27.5q25 6 43 -6t28 -36.5t12 -58.5v-12q0 -28 -6 -59q42 -15 79 -15q50 -1 91 27q70 48 82 138q1 12 1 23q-1 45 -19 87q-24 52 -54 101t-56 96q-25 44 -25 87v7l18 53l-6 3q-16 -31 -38.5 -71t-47.5 -82t-48.5 -81t-43.5 -68l-47 27 q39 66 81 131.5t78 130.5q31 55 68 99.5t83 74.5t106 46q53 14 118 14h17q43 0 74.5 -14.5t49 -34t19.5 -41t-12 -35.5q-16 -14 -36 -13t-40.5 13t-37.5 31.5t-26 39.5h-13q-27 0 -53 -6q-32 -8 -58.5 -26.5t-45 -46t-20.5 -60.5q-2 -13 -2 -25q0 -29 10 -57 q14 -39 37 -76.5t48.5 -76.5t44.5 -82q18 -42 22 -92q1 -8 0 -17q0 -43 -17 -92q-8 -23 -27.5 -43t-29.5 -29l4 -8q45 25 95 65t96.5 86t84 95t60.5 90l49 -29q-35 -59 -90 -124.5t-119.5 -123t-130 -100.5t-121.5 -55q-58 -20 -117 -20q-21 1 -43 3q-82 10 -135 46 q-41 31 -60 63.5t-21.5 61z" />
<glyph unicode="t" horiz-adv-x="405" d="M-80 170q10 66 54 148.5t92 179.5l157 321h-102l45 80h96l107 217h11q32 0 74 10q50 12 89 29l-127 -256h188l-43 -80h-184l-252 -516q-49 -103 -55 -155q-1 -7 -1 -13q0 -39 37 -39q55 0 140.5 72t171.5 219l49 -29q-43 -61 -90 -125.5t-101.5 -117t-116 -85 t-130.5 -32.5q-55 0 -90 43q-24 30 -24 79q0 23 5 50z" />
<glyph unicode="u" horiz-adv-x="872" d="M-70 178q4 58 37 127l236 475q41 0 87 11.5t87 27.5l-258 -520q-40 -79 -41 -130q0 -7 1 -11q5 -52 54 -58q8 -1 17 -1q28 1 62 15q44 20 90 58.5t92 92.5t85 118l53 115l154 307q10 -1 22 -1q24 0 53 3q44 4 87 12l-256 -516q-48 -102 -48 -156q0 -51 40 -57q5 -1 10 -1 q49 1 121 69q80 76 170 229l49 -29q-59 -90 -111.5 -157.5t-101.5 -112.5t-98.5 -66.5t-106.5 -21.5q-53 0 -86 41q-26 32 -26 78q0 12 2 26l6 29l41 72h-2q-94 -121 -191.5 -182.5t-175.5 -63.5q-49 0 -86 20q-36 21 -54 61q-14 33 -15 77q0 9 1 20z" />
<glyph unicode="v" horiz-adv-x="813" d="M-54 204q7 68 48 154l209 422h10q28 0 67 8q46 10 93 31l-246 -493q-33 -68 -47 -114q-12 -40 -12 -69v-8q2 -31 16 -46t39 -19q9 -2 19 -2q33 0 76 26q56 34 116.5 97t116 152t92.5 194q23 63 39 137t16 137q27 8 49 8q62 0 82 -60q9 -26 9 -60q0 -69 -38 -169 q-33 -86 -86 -173t-122 -160q25 -6 52 -6q18 0 37 3q46 7 90 31.5t84 65.5t70 96l49 -29q-88 -145 -208 -197q-82 -36 -164 -36q-37 0 -74 8q-72 -61 -150.5 -99t-158.5 -38q-57 0 -99.5 24.5t-61.5 70.5q-14 34 -14 79q0 16 2 34z" />
<glyph unicode="w" horiz-adv-x="1173" d="M-71 178q5 58 38 127l236 475q41 0 84 11.5t84 27.5l-258 -520q-42 -81 -42 -133v-10q5 -54 52 -58q5 -1 10 -1q29 1 57 19q34 22 68.5 60.5t70.5 92t72 114.5l197 397h10q28 0 67 8q46 10 93 31l-246 -493q-66 -134 -66 -191t48 -65q6 -1 12 -1q32 1 75 27 q52 32 108.5 95t109.5 152t94 194q23 63 40.5 138t21.5 138q24 6 43 6q24 0 40 -8q32 -14 42 -52q6 -21 7 -48q0 -23 -4 -49q-10 -58 -36 -132q-33 -86 -83 -174t-116 -161q22 -5 44 -5q20 0 42 4q45 9 89 33.5t83 64.5t70 95l49 -29q-86 -143 -205 -196q-84 -37 -166 -37 q-34 0 -67 6q-68 -61 -143.5 -98t-153.5 -37q-80 0 -125 47q-40 41 -40 116q0 10 1 21q-66 -90 -129.5 -135t-130.5 -45q-49 0 -84 20q-36 21 -52 61q-13 31 -12 72q0 12 1 25z" />
<glyph unicode="x" horiz-adv-x="804" d="M-68 0q-9 27 -9 55q1 31 11 59q20 56 60.5 103t93.5 86t102 64q31 14 57.5 25t49.5 20q6 49 13 96t12 90q3 30 3 55q-1 53 -13 79q-14 30 -51 30q-10 0 -21 -2q-6 -41 -30 -102.5t-54.5 -125t-62.5 -121t-56 -92.5l-47 27q37 68 66.5 124t55 110.5t49 112.5t48.5 130 q51 13 91 13q52 0 86 -21q62 -37 69 -158q1 -14 1 -28q0 -28 -3 -59q-4 -46 -9 -95q80 43 131.5 96.5t80 107.5t34.5 102q3 21 3 38q0 23 -5 41q23 8 49.5 10t48 -6t36 -28.5t14.5 -57.5q-2 -49 -31 -101t-81 -101.5t-125 -92.5t-161 -73q-6 -63 -9 -122q-1 -18 -1 -34 q0 -39 5 -71q7 -47 27 -73q18 -25 53 -24h5q31 0 68 24.5t74.5 65.5t77.5 95.5t79 115.5l49 -29q-63 -88 -126.5 -175t-141.5 -140q-39 -27 -81 -37q-26 -6 -51 -6q-15 0 -30 2q-39 6 -70.5 30.5t-52.5 67.5q-23 49 -25 115q-1 19 -1 39q0 48 4 98q-18 -8 -34.5 -16 t-31.5 -14q-86 -47 -124 -109.5t-42 -124.5q-1 -11 -1 -21q0 -70 36 -120q-23 -12 -47 -15.5t-47 4t-41 23.5t-27 41z" />
<glyph unicode="y" horiz-adv-x="831" d="M-144.5 -163q-5.5 30 4 51.5t25.5 27.5q10 4 20 4q27 0 48 -33q27 -42 27 -110v-10q31 -16 66 -19h10q31 0 63 14q37 17 73.5 57t69.5 107l129 264l60 80h-7q-94 -106 -192 -160q-91 -51 -157 -51h-9q-96 4 -126 84q-9 24 -9 55q0 68 47 167l205 415h11q30 0 69 8 q47 11 94 31l-227 -461q-44 -98 -44 -145v-6q3 -47 44 -51q5 -1 10 -1q23 0 56 14q42 17 91 54t100.5 90.5t94.5 120.5l186 371q8 -1 18 -1q24 0 58 4q47 5 86 11l-430 -858l-31 -55q59 45 125 102.5t127 119.5t114.5 129t88.5 130l49 -27q-53 -84 -132 -176t-164 -173 t-166 -141t-134 -83q-76 -74 -165 -99q-27 -7 -54 -7q-64 0 -131 40q-43 25 -64.5 55.5t-27 60.5z" />
<glyph unicode="z" horiz-adv-x="782" d="M-98 49l811 666l-6 10q-31 -23 -58.5 -39t-68.5 -24q-13 -3 -28 -3q-19 0 -41 5q-38 8 -76 19t-77 17q-12 2 -23 1q-26 0 -48 -9q-31 -10 -59.5 -48t-57.5 -90t-62.5 -114.5t-72.5 -120.5l-47 27q39 57 75.5 135t79.5 149.5t96.5 125t125.5 63.5q28 3 53 3q37 0 67 -7 q50 -13 101 -25q47 -12 101 -12q5 0 9 1q58 1 144 40l22 -57l-792 -645l8 -6q27 18 64.5 39.5t84.5 25.5h18q30 0 55 -5q32 -7 61.5 -18.5t59.5 -20.5t66 -9q43 0 86 22.5t83 60.5t76 85t63 96l49 -29q-39 -57 -81 -120.5t-94.5 -115.5t-116 -87t-142.5 -35q-70 0 -121 17.5 t-101 28.5q-33 7 -70 7q-20 0 -42 -2q-60 -6 -150 -51z" />
<glyph unicode="{" horiz-adv-x="741" d="M167 41q-9 72 20.5 148.5t95.5 152.5q25 27 45 60.5t28.5 65.5t1 57.5t-33.5 37.5l18 47q39 0 64.5 15.5t41 40t23.5 57.5t12 70q16 113 56.5 197.5t111 147t174 104.5t246.5 69l14 -43q-109 -25 -185.5 -63t-128.5 -91t-80.5 -126t-41.5 -169q-6 -41 -13 -80 t-28.5 -72.5t-62.5 -60t-115 -43.5q39 -16 55.5 -42.5t16.5 -59.5t-15.5 -68t-42.5 -67q-133 -164 -141 -282t107 -220l-41 -29q-94 49 -143.5 111.5t-58.5 134.5z" />
<glyph unicode="|" horiz-adv-x="702" d="M-35 -205l744 1516h100l-741 -1516h-103z" />
<glyph unicode="}" horiz-adv-x="741" d="M-164 -162q109 25 185.5 63t129 91t81 125.5t40.5 169.5q6 39 13.5 79t29 73.5t62.5 60t115 43.5q-39 16 -55.5 42.5t-16.5 59.5t15.5 68t41.5 67q131 164 140.5 282t-105.5 220l41 29q94 -49 143 -111.5t58.5 -134.5t-21.5 -148.5t-94 -152.5q-25 -29 -45.5 -61.5 t-28.5 -64.5t-2 -57.5t35 -37.5l-18 -47q-41 0 -66 -15.5t-40 -40t-23.5 -57.5t-12.5 -70q-16 -113 -56 -197.5t-110.5 -147t-174 -104.5t-247.5 -69z" />
<glyph unicode="~" horiz-adv-x="1019" d="M117 322q39 76 93 130t114.5 76.5t122 6t116.5 -83.5q47 -57 97.5 -55.5t91.5 26.5q49 29 94 82l47 -39q-66 -76 -125 -126t-115.5 -66.5t-110 2t-104.5 79.5q-53 61 -104 57.5t-90 -32.5q-47 -35 -86 -98z" />
<glyph unicode="&#xa1;" horiz-adv-x="733" d="M-33 -108.5q4 26.5 33 49.5q90 70 168 154.5t141.5 177t113.5 187.5t85 181q29 -31 24.5 -96.5t-32 -148.5t-73.5 -173t-102.5 -171t-119 -142.5t-121.5 -85.5q-37 -14 -65.5 -6t-42 27.5t-9.5 46zM548 926.5q-11 37.5 9 74.5q23 41 65 56.5t83 -2.5q41 -20 52 -60.5 t-12 -81.5q-23 -39 -66.5 -52t-78.5 5q-41 23 -52 60.5z" />
<glyph unicode="&#xa2;" horiz-adv-x="1019" d="M109.5 478q5.5 77 37.5 157q41 104 109 190t150.5 146.5t178 92.5t191.5 30l68 135h86l-70 -146h6q74 -16 112 -57t50 -95t1 -116.5t-38.5 -120t-66.5 -103.5t-83 -69.5t-89 -17.5t-84 53q57 23 115.5 86.5t92 137t30.5 141t-70 102.5q-4 0 -5 2l-397 -815q14 -4 27.5 -6 t30.5 -2q98 -8 191 40t165 113v-73q-86 -86 -187.5 -126t-187.5 -40q-43 0 -82 6l-78 -162h-88l88 180q-74 27 -121 78t-67.5 116.5t-15 142.5zM266.5 388.5q20.5 -99.5 95.5 -146.5l390 798q-53 -2 -115 -26.5t-122 -74.5t-115.5 -126t-94.5 -178q-59 -147 -38.5 -246.5z " />
<glyph unicode="&#xa3;" horiz-adv-x="1224" d="M18.5 62q-10.5 28 3 54.5t47 49t83.5 29.5q55 10 105 2.5t81 -23.5q37 66 66.5 133.5t56.5 138.5h-193l47 101h181q12 31 23 61.5t26 63.5h-174l47 100h170q31 61 67 123q74 119 172.5 188.5t208.5 79.5q100 10 169 -21.5t102.5 -93t31.5 -145.5t-45 -178 q-35 -72 -75.5 -113t-80.5 -55t-76 -5t-56 38q43 29 88 84t73 133q18 49 27.5 96t6.5 86t-23.5 67.5t-59.5 41.5q-33 10 -70.5 5t-77.5 -26.5t-77 -58.5t-68 -88q-23 -39 -43 -78t-39 -80h252l-39 -100h-258l-53 -125h248l-39 -101h-252q-18 -41 -38.5 -80.5t-43.5 -76.5 q-25 -39 -51.5 -71t-52.5 -52v-4q0 -2 2 -4q29 10 58.5 15t70.5 9q43 2 96 -5t106.5 -17t103.5 -19.5t87 -9.5q51 0 96 10.5t86 42.5q-2 -78 -53 -122t-127 -54q-43 -8 -106 -2q-51 6 -107.5 17.5t-118 22.5t-124 19.5t-126.5 8.5q-29 -25 -65.5 -41.5t-75.5 -24.5t-79 -6 t-74 16q-37 16 -47.5 44z" />
<glyph unicode="&#xa4;" horiz-adv-x="837" d="M37 199l178 123q-14 35 -14 75q0 84 53 142l-37 63l96 55l37 -61q31 10 64 10q78 0 135 -51l149 102l88 -63l-178 -123q15 -39 15 -74q0 -43 -17.5 -82t-46.5 -67l35 -55l-90 -60l-37 60q-25 -8 -53 -9q-84 0 -144 56l-147 -103zM256 395q0 -63 43 -109t113 -46 q61 0 107 46t46 109q0 70 -46 112t-107 42q-70 0 -113 -42t-43 -112z" />
<glyph unicode="&#xa5;" horiz-adv-x="901" d="M-2 57l47 101h180l62 125h-187l47 100h189l20 43l60 12q-45 2 -74 21q-82 51 -93 137t27 197q14 45 39 90t51.5 84t54.5 67.5t52 44.5l43 13v8q-53 -4 -101 -11.5t-94.5 -28t-93.5 -58t-98 -99.5q-23 18 -31 46t-4 57.5t23.5 60.5t56.5 55q47 33 109.5 43.5t125 4 t114.5 -27t81 -46.5q-47 -66 -96 -146t-78 -155q-51 -129 -53 -208t47 -98q33 -12 84 10.5t108.5 68.5t116 113t104.5 143.5t72.5 161.5t24.5 167q18 8 44 10t47.5 -7t37.5 -33.5t16 -67.5q0 -68 -40 -159t-108.5 -179t-160.5 -161t-197 -103q-25 -10 -55 -13l-26 -57h192 l-39 -100h-203l-59 -125h199l-39 -101h-209l-27 -57q-33 2 -83 -9t-89 -22l43 88h-180z" />
<glyph unicode="&#xa6;" horiz-adv-x="702" d="M23 -219l225 731h102l-225 -731h-102zM317 735l199 643h100l-198 -643h-101z" />
<glyph unicode="&#xa7;" horiz-adv-x="956" d="M63 86q-6 53 7.5 105.5t41 93.5t68.5 63.5t92 18.5q-16 -12 -31.5 -36t-26.5 -55.5t-17.5 -69.5t-3.5 -77q4 -94 59 -128t119 3q51 31 79.5 81t22.5 128t-52 188.5t-145 262.5l254 245q-35 113 14.5 214.5t176.5 154.5q55 23 113.5 28t107.5 -12.5t83 -57.5t40 -108 q6 -51 -8.5 -98t-43 -82t-69.5 -53t-92 -12q37 25 59.5 82t22.5 137q0 51 -16.5 84t-43 50t-60.5 16t-66 -17q-70 -35 -89.5 -96.5t-2 -142.5t66.5 -179t119 -209l-260 -248q37 -135 -14.5 -244.5t-180.5 -162.5q-59 -25 -115.5 -29t-100.5 12.5t-72.5 54.5t-35.5 95z M406 717l159 -295l142 133l-158 297z" />
<glyph unicode="&#xa8;" horiz-adv-x="948" d="M189.5 1048.5q-11.5 36.5 11.5 77.5q20 39 62 51.5t81 -3.5q39 -23 50 -60t-9 -74q-23 -41 -64.5 -55t-78.5 4q-41 23 -52.5 59.5zM490.5 1048.5q-11.5 36.5 13.5 77.5q20 39 62 51.5t79 -3.5q39 -23 50 -60t-9 -74q-20 -41 -63 -55t-80 4q-41 23 -52.5 59.5z" />
<glyph unicode="&#xa9;" horiz-adv-x="1755" d="M176 468q12 140 77.5 277t180.5 248q117 111 255 170.5t277.5 65.5t267.5 -43t224 -154q96 -104 137 -237t29 -274.5t-76.5 -279t-181.5 -247.5q-117 -113 -254 -172.5t-276.5 -63.5t-267.5 46.5t-226 154.5q-96 102 -137 235.5t-29 273.5zM234.5 470 q-11.5 -130 25.5 -252t127 -216q90 -96 209 -142t247 -41t255 58t233 158q106 102 165.5 228t71 256t-26.5 252t-126 218t-205.5 141.5t-245.5 41t-257.5 -59t-235.5 -158.5q-106 -102 -165.5 -228t-71 -256zM451 309q0 94 43 201q45 117 120.5 209t167.5 153.5t195.5 86 t204.5 4.5q90 -18 124.5 -82t28.5 -141.5t-43 -156.5t-89 -131.5t-110.5 -63.5t-105.5 46q37 14 75 48t70.5 79t57 95.5t31 97.5t-8 86t-57.5 61q-49 23 -117.5 11.5t-142.5 -59.5t-143.5 -134t-118.5 -209q-41 -98 -43 -177t23.5 -135.5t75.5 -88t118 -35.5q94 -6 182 39 t156 108v-71q-82 -82 -178.5 -119t-178.5 -37q-109 0 -183.5 41t-114 110.5t-39.5 163.5z" />
<glyph unicode="&#xaa;" horiz-adv-x="972" d="M323.5 707.5q-6.5 50.5 12 115.5t67.5 135q49 74 102.5 119t105 65.5t98.5 17.5t86 -23q29 -16 66.5 -14.5t74.5 18.5q-16 -31 -42 -81t-51.5 -100.5t-47 -93.5l-29.5 -59q-68 -143 -12 -143q41 0 97 48t118 152l32 -18q-78 -117 -147.5 -183.5t-146.5 -66.5 q-37 0 -59.5 27.5t-20.5 70.5l22 47h-4l-16 -22q-35 -51 -83 -86t-106 -35q-49 0 -79.5 29.5t-37 80zM416.5 733q1.5 -74 52.5 -74q47 0 109.5 57.5t117.5 168.5l105 209q-63 35 -152.5 -8.5t-161.5 -159.5q-72 -119 -70.5 -193z" />
<glyph unicode="&#xab;" horiz-adv-x="1193" d="M225 414l19 71l563 342l39 -45l-477 -352l196 -369l-43 -18zM557 414l18 71l564 342l39 -45l-478 -352l197 -369l-43 -18z" />
<glyph unicode="&#xac;" horiz-adv-x="851" d="M115 360l47 101h559l-141 -324h-105l96 223h-456z" />
<glyph unicode="&#xad;" horiz-adv-x="686" d="M115 360l47 101h401l-39 -101h-409z" />
<glyph unicode="&#xae;" horiz-adv-x="1755" d="M176 468q12 140 77.5 277t180.5 248q117 111 255 170.5t277.5 65.5t267.5 -43t224 -154q96 -104 137 -237t29 -274.5t-76.5 -279t-181.5 -247.5q-117 -113 -254 -172.5t-276.5 -63.5t-267.5 46.5t-226 154.5q-96 102 -137 235.5t-29 273.5zM234.5 470 q-11.5 -130 25.5 -252t127 -216l28.5 -28.5t30.5 -26.5l449 930q29 0 69 7t74 19l-186 -387q14 -4 27.5 -5t25.5 -3q135 -16 227.5 46t120.5 167q27 92 -18 168t-162 98q-139 29 -268 -23.5t-207 -185.5q-72 -125 -59 -239q-39 -2 -64.5 18.5t-35 57t1 86t42.5 102.5 q84 133 243 196.5t372 34.5q88 -14 146.5 -50t91 -82t41.5 -97t-1 -100q-20 -92 -88.5 -154t-167.5 -86l-90 2l4 -6q35 -6 65.5 -26.5t47.5 -55.5q23 -41 18.5 -89t-26.5 -126q-16 -61 -18.5 -96t3.5 -52.5t19.5 -20.5t30.5 -3v-35q-45 -16 -88.5 -7t-65.5 38 q-14 16 -21.5 36.5t-7.5 49t7.5 69t25.5 97.5q41 127 -10 179t-187 50l-247 -514q-27 -2 -60 -6t-61 -12q92 -70 203.5 -98.5t228.5 -16.5t230.5 65.5t209.5 147.5q106 102 165.5 228t71 256t-26.5 252t-126 218t-205.5 141.5t-245.5 41t-257 -58.5t-236 -159 q-106 -102 -165.5 -228t-71 -256z" />
<glyph unicode="&#xaf;" horiz-adv-x="716" d="M43 1016l47 100h572l-39 -100h-580z" />
<glyph unicode="&#xb0;" horiz-adv-x="550" d="M213 930q0 92 60.5 150.5t152.5 58.5q41 0 79 -15.5t66.5 -43t46 -66.5t17.5 -84q0 -43 -17.5 -81t-46 -67.5t-66.5 -47t-79 -17.5q-47 0 -86 17.5t-66.5 47t-44 67.5t-16.5 81zM272 928q0 -59 42 -105.5t110 -46.5q29 0 56.5 12.5t48 34t32.5 48t12 57.5q0 68 -45 108.5 t-104 40.5q-68 0 -110 -41t-42 -108z" />
<glyph unicode="&#xb1;" horiz-adv-x="851" d="M55 156l47 100h537l-39 -100h-545zM199 565l47 101h217l96 223h109l-99 -223h213l-39 -101h-219l-94 -217h-104l94 217h-221z" />
<glyph unicode="&#xb2;" horiz-adv-x="876" d="M121 432q61 100 137 174t150.5 131.5t143.5 106.5t118 102q35 39 52 80t17 76t-16 58.5t-49 29.5q-61 8 -118.5 -37t-90.5 -109q-50 -108 -27 -174q-35 -6 -58.5 7.5t-32.5 41t-4 65.5t28 81q47 92 138 137t185 29q57 -10 90 -44t41.5 -80t-6 -99.5t-53.5 -102.5 q-51 -66 -112.5 -107.5t-132 -82.5t-146.5 -93.5t-154 -140.5l4 -2q27 16 59.5 30.5t75.5 18.5q29 4 57.5 -1t58.5 -12t57.5 -14t54.5 -7q49 0 90 30q-4 -53 -41 -83.5t-100 -30.5q-49 0 -93.5 12t-90.5 19.5t-96 3t-114 -34.5z" />
<glyph unicode="&#xb3;" horiz-adv-x="1009" d="M244 581.5q-6 51.5 14 108.5q20 55 69.5 85t108.5 7q-20 -14 -39.5 -42.5t-34.5 -67.5q-16 -47 -14 -87t16.5 -71t40 -49.5t54.5 -20.5q45 -4 85 13.5t70.5 48.5t49 73t22.5 87q2 29 -2 58.5t-18.5 52t-39 37.5t-65.5 17v31q53 -4 97 10.5t77 39t54.5 59.5t29.5 73 q16 61 -5 107.5t-93 48.5q-66 2 -121 -40t-78 -107q-14 -41 -11 -72.5t11 -54.5q-29 -4 -52.5 5t-38.5 28.5t-17 49t12 64.5q33 78 112.5 121t182.5 39q115 -4 165 -58.5t44 -121.5q-4 -51 -30 -90t-64.5 -65t-87 -41t-99.5 -19l2 -2h60q47 -16 68.5 -63.5t19.5 -100.5 q-4 -55 -29 -105.5t-69 -87.5t-103 -58.5t-131 -17.5q-61 2 -109.5 27t-78 62.5t-35.5 89z" />
<glyph unicode="&#xb4;" horiz-adv-x="813" d="M184 926q33 23 77 60.5t89 80.5t87 86t71 78q31 37 62.5 45t50 -6.5t19.5 -46t-28 -74.5q-47 -68 -105 -117t-118.5 -78.5t-114 -37t-90.5 9.5z" />
<glyph unicode="&#xb5;" horiz-adv-x="872" d="M-360 -315l389 745l174 350q41 0 87 11.5t87 27.5l-258 -520q-45 -88 -40 -140.5t54 -58.5q35 -6 79 13.5t90 58.5t92 93t85 118l53 115l154 307q31 -2 75 2t87 12l-256 -516q-47 -100 -48 -153.5t40 -59.5q51 -8 131 67.5t170 229.5l49 -29q-59 -90 -111.5 -157.5 t-101.5 -112.5t-98.5 -66.5t-106.5 -21.5q-53 0 -86 41t-24 104l6 29l41 72h-2q-94 -121 -191.5 -182.5t-175.5 -63.5q-63 0 -105 35t-49 100l-186 -450h-104z" />
<glyph unicode="&#xb6;" horiz-adv-x="937" d="M39 -178l436 911q-57 12 -86.5 60.5t-19.5 109.5q12 72 71.5 122t130.5 50h424l-606 -1253h-102l559 1153h-154l-555 -1153h-98z" />
<glyph unicode="&#xb7;" horiz-adv-x="651" d="M233.5 544q-12.5 44 14.5 91q23 43 72 57.5t92 -6.5q43 -25 56.5 -66.5t-9.5 -82.5q-27 -47 -74 -63.5t-92 3.5q-47 23 -59.5 67z" />
<glyph unicode="&#xb8;" horiz-adv-x="313" d="M27 -395q68 -16 121 -13.5t89.5 20t56 45.5t19.5 58q2 59 -54 88t-179 13v45l244 190l65 -14l-203 -170q131 16 199 -28t66 -120q0 -49 -30 -89t-84 -63.5t-132 -26.5t-178 22v43z" />
<glyph unicode="&#xb9;" horiz-adv-x="559" d="M139 408l363 741l-43 -2l20 43l176 39l-405 -821h-111z" />
<glyph unicode="&#xba;" horiz-adv-x="993" d="M214 686q9 78 44 160q33 74 83 146.5t114.5 128t139.5 87t159 25.5q78 -6 125 -39t67.5 -86t15 -121.5t-31.5 -144.5q-31 -88 -82 -169t-118.5 -143.5t-146.5 -97.5t-163 -31q-82 6 -130 45t-66.5 100.5t-9.5 139.5zM331 565q5 -47 28.5 -75.5t68.5 -28.5 q53 0 103.5 29.5t95.5 80t84 117t69 137.5q63 147 54 241.5t-89 111.5q-41 8 -88 -16.5t-96 -75t-94 -121t-82 -154.5q-31 -72 -45 -135.5t-9 -110.5z" />
<glyph unicode="&#xbb;" horiz-adv-x="1193" d="M20 88l478 352l-197 369l43 18l297 -370l-18 -72l-564 -342zM352 88l477 352l-196 369l43 18l297 -370l-19 -72l-563 -342z" />
<glyph unicode="&#xbc;" horiz-adv-x="1953" d="M66 -205l1386 1516h100l-1384 -1516h-102zM111 203l518 1057l-62 -5l29 64l250 55l-578 -1171h-157zM874 233q82 37 158 111t143.5 164t125 187.5t100.5 183.5l151 24q-88 -160 -156.5 -272.5t-132 -189t-128 -126t-144.5 -82.5h430l346 705l172 27l-360 -732h203v-59 l-238 -12l-180 -367h-158l176 361l-434 -21z" />
<glyph unicode="&#xbd;" horiz-adv-x="1949" d="M66 -205l1386 1516h100l-1384 -1516h-102zM111 203l518 1057l-62 -5l29 64l250 55l-578 -1171h-157zM780 -172q88 143 194.5 247.5t214 185.5t206 150.5t168.5 147.5q49 55 74.5 113.5t25.5 107.5t-23.5 84t-70.5 41q-45 6 -88 -8t-83 -43t-73 -70t-55 -86 q-72 -153 -39 -245q-49 -8 -83 10t-47.5 56t-6 92.5t40.5 117.5t84 112.5t112.5 80t130 43t133.5 0.5q82 -16 128 -63.5t58.5 -114t-8 -142.5t-75.5 -145q-72 -94 -159 -152.5t-187.5 -116t-209 -132t-218.5 -199.5l6 -6q37 25 83 44t107 25q41 6 83 -1t83 -17.5t81 -19.5 t77 -11q72 0 129 45q-4 -76 -57.5 -120t-143.5 -44q-70 0 -132 17.5t-126.5 29t-137.5 5t-163 -51.5z" />
<glyph unicode="&#xbe;" horiz-adv-x="2293" d="M156.5 452.5q-9.5 71.5 19.5 153.5q29 80 98.5 121t153.5 12q-29 -20 -57.5 -61t-46.5 -96q-25 -68 -22 -124.5t24.5 -99.5t56.5 -68.5t76 -29.5q66 -6 122 18.5t99 68.5t68.5 103.5t31.5 122.5q2 41 -3 82t-24.5 75t-55 54.5t-93.5 22.5v45q76 -4 137.5 14.5t108.5 54 t77.5 85t43.5 104.5q10 43 9 82t-18.5 69.5t-49 49t-83.5 18.5q-47 0 -90 -14.5t-79.5 -42t-65.5 -66.5t-45 -86q-20 -55 -15 -102t15 -78q-41 -6 -75 7.5t-54.5 41t-23.5 69.5t18 91q47 111 159.5 170t255.5 55q82 -4 140.5 -25.5t94.5 -56.5t51 -79t11 -93 q-6 -74 -41.5 -127t-91 -90t-124 -57.5t-140.5 -26.5l2 -6h86q66 -25 96.5 -91.5t26.5 -139.5q-4 -78 -40 -149t-97.5 -125t-146.5 -83.5t-185 -23.5q-88 4 -156.5 37.5t-108.5 88t-49.5 126zM446 -205l1387 1516h100l-1384 -1516h-103zM1255 233q82 37 158 111t143.5 164 t125 187.5t100.5 183.5l151 24q-88 -160 -156.5 -272.5t-132 -189t-128 -126t-144.5 -82.5h430l346 705l172 27l-360 -732h203v-59l-238 -12l-180 -367h-158l176 361l-434 -21z" />
<glyph unicode="&#xbf;" horiz-adv-x="1097" d="M159.5 178q20.5 84 78.5 150q49 55 113.5 93t134 65.5t138 50t126 46t96.5 53.5t51 71h49q-14 -88 -83.5 -142.5t-161 -99.5t-184.5 -93t-155 -124q-55 -70 -67 -133.5t6 -114.5t60 -84t96 -39q78 -10 138 8.5t98 52t53.5 77.5t6 84t-44 71t-98.5 41q-2 18 9.5 34.5 t33 28t52 12.5t67.5 -14q57 -20 84 -64t27 -96.5t-27 -106.5t-77 -97t-123.5 -68.5t-168.5 -19.5q-139 10 -216.5 65.5t-104.5 132t-6.5 160.5zM892 929q-11 38 9 75q23 41 65 56t83 -3q41 -20 52 -60.5t-11 -81.5q-23 -39 -67 -52t-79 5q-41 23 -52 61z" />
<glyph unicode="&#xc0;" horiz-adv-x="1218" d="M-31 489h291q92 147 214 294t253 263.5t261 190.5t237 74q80 0 118.5 -31t46 -82t-11 -116.5t-51.5 -133.5l-348 -731q-41 -84 -49 -131t8 -84q-49 -12 -88 -2t-55 39q-18 41 -5 95t52 132l76 158l-543 -21q-27 -47 -50.5 -96t-43.5 -96q-29 -72 -46.5 -139.5 t-21.5 -126.5q-57 -16 -87 4t-39 58t-1 88t25 98q16 47 39.5 99t54.5 105l-162 -6zM424 489h526l234 482q25 51 46 99t30.5 85t1.5 61.5t-41 30.5q-53 12 -147.5 -42t-206 -158.5t-228.5 -248t-215 -309.5zM1079 1749q74 51 125 25q23 -14 39.5 -58.5t32.5 -99.5 t37.5 -113.5t54.5 -99.5q-45 -18 -82 -10t-70.5 50t-66.5 116.5t-70 189.5z" />
<glyph unicode="&#xc1;" horiz-adv-x="1218" d="M-31 489h291q92 147 214 294t253 263.5t261 190.5t237 74q80 0 118.5 -31t46 -82t-11 -116.5t-51.5 -133.5l-348 -731q-41 -84 -49 -131t8 -84q-49 -12 -88 -2t-55 39q-18 41 -5 95t52 132l76 158l-543 -21q-27 -47 -50.5 -96t-43.5 -96q-29 -72 -46.5 -139.5 t-21.5 -126.5q-57 -16 -87 4t-39 58t-1 88t25 98q16 47 39.5 99t54.5 105l-162 -6zM424 489h526l234 482q25 51 46 99t30.5 85t1.5 61.5t-41 30.5q-53 12 -147.5 -42t-206 -158.5t-228.5 -248t-215 -309.5zM1122 1417q33 23 77 61t89 81t87 85.5t71 77.5q31 37 62.5 45.5 t50 -6t19.5 -46.5t-28 -75q-47 -68 -105.5 -116.5t-118.5 -78.5t-113.5 -37t-90.5 9z" />
<glyph unicode="&#xc2;" horiz-adv-x="1218" d="M-31 489h291q92 147 214 294t253 263.5t261 190.5t237 74q80 0 118.5 -31t46 -82t-11 -116.5t-51.5 -133.5l-348 -731q-41 -84 -49 -131t8 -84q-49 -12 -88 -2t-55 39q-18 41 -5 95t52 132l76 158l-543 -21q-27 -47 -50.5 -96t-43.5 -96q-29 -72 -46.5 -139.5 t-21.5 -126.5q-57 -16 -87 4t-39 58t-1 88t25 98q16 47 39.5 99t54.5 105l-162 -6zM424 489h526l234 482q25 51 46 99t30.5 85t1.5 61.5t-41 30.5q-53 12 -147.5 -42t-206 -158.5t-228.5 -248t-215 -309.5zM934 1456l397 291h72l108 -301l-49 -27l-143 199l-354 -199z" />
<glyph unicode="&#xc3;" horiz-adv-x="1218" d="M-31 489h291q92 147 214 294t253 263.5t261 190.5t237 74q80 0 118.5 -31t46 -82t-11 -116.5t-51.5 -133.5l-348 -731q-41 -84 -49 -131t8 -84q-49 -12 -88 -2t-55 39q-18 41 -5 95t52 132l76 158l-543 -21q-27 -47 -50.5 -96t-43.5 -96q-29 -72 -46.5 -139.5 t-21.5 -126.5q-57 -16 -87 4t-39 58t-1 88t25 98q16 47 39.5 99t54.5 105l-162 -6zM424 489h526l234 482q25 51 46 99t30.5 85t1.5 61.5t-41 30.5q-53 12 -147.5 -42t-206 -158.5t-228.5 -248t-215 -309.5zM954 1503q43 70 92.5 118t99.5 65.5t102 2t104 -70.5 q47 -55 94 -54t82 23q41 27 80 80l49 -41q-117 -152 -218.5 -179.5t-197.5 81.5q-47 53 -92 50t-80 -30q-41 -31 -76 -86z" />
<glyph unicode="&#xc4;" horiz-adv-x="1218" d="M-31 489h291q92 147 214 294t253 263.5t261 190.5t237 74q80 0 118.5 -31t46 -82t-11 -116.5t-51.5 -133.5l-348 -731q-41 -84 -49 -131t8 -84q-49 -12 -88 -2t-55 39q-18 41 -5 95t52 132l76 158l-543 -21q-27 -47 -50.5 -96t-43.5 -96q-29 -72 -46.5 -139.5 t-21.5 -126.5q-57 -16 -87 4t-39 58t-1 88t25 98q16 47 39.5 99t54.5 105l-162 -6zM424 489h526l234 482q25 51 46 99t30.5 85t1.5 61.5t-41 30.5q-53 12 -147.5 -42t-206 -158.5t-228.5 -248t-215 -309.5zM1033 1540.5q-11 36.5 11 77.5q20 39 62.5 51t81.5 -4 q39 -23 50 -59.5t-9 -73.5q-23 -41 -65 -55.5t-79 4.5q-41 23 -52 59.5zM1334 1540.5q-11 36.5 14 77.5q20 39 62 51t79 -4q39 -23 50 -59.5t-9 -73.5q-20 -41 -63.5 -55.5t-80.5 4.5q-41 23 -52 59.5z" />
<glyph unicode="&#xc5;" horiz-adv-x="1218" d="M-31 489h291q92 147 214 294t253 263.5t261 190.5t237 74q80 0 118.5 -31t46 -82t-11 -116.5t-51.5 -133.5l-348 -731q-41 -84 -49 -131t8 -84q-49 -12 -88 -2t-55 39q-18 41 -5 95t52 132l76 158l-543 -21q-27 -47 -50.5 -96t-43.5 -96q-29 -72 -46.5 -139.5 t-21.5 -126.5q-57 -16 -87 4t-39 58t-1 88t25 98q16 47 39.5 99t54.5 105l-162 -6zM424 489h526l234 482q25 51 46 99t30.5 85t1.5 61.5t-41 30.5q-53 12 -147.5 -42t-206 -158.5t-228.5 -248t-215 -309.5zM1087 1587q0 100 66 165t168 65q45 0 86 -17.5t72.5 -48.5t51 -73 t19.5 -91q0 -47 -19.5 -89t-51 -73.5t-72.5 -51t-86 -19.5q-51 0 -94 19.5t-74 51t-48.5 73.5t-17.5 89zM1143 1585q0 -72 49 -124t127 -52q35 0 66.5 14.5t55 39t38 56t14.5 66.5q0 78 -52 126t-122 48q-78 0 -127 -48t-49 -126z" />
<glyph unicode="&#xc6;" horiz-adv-x="1761" d="M-31 489h291q92 147 214 294t253 263.5t261 190.5t237 74q90 0 133 -43q78 49 178 59t201 -12q63 -16 105 -52t61.5 -81t18.5 -95.5t-19 -95.5q-25 -59 -63 -89t-74.5 -36t-66.5 6.5t-40 34.5q37 23 65.5 55.5t44.5 79.5q27 66 12.5 127.5t-73.5 85.5q-41 18 -89 18.5 t-93 -19t-83 -57.5t-59 -93q-16 -45 -13 -93t27.5 -91t71 -79t117.5 -57l43 -45q-115 8 -223.5 -6t-199.5 -52t-158.5 -100.5t-102.5 -154.5q-23 -59 -16.5 -119.5t41.5 -110t97 -80t153 -32.5q53 -2 110.5 11.5t112.5 35t102 50t78 59.5v-74q-31 -29 -78 -57.5t-103.5 -52 t-119.5 -39t-127 -17.5q-113 -8 -202 23.5t-146 91t-76.5 139.5t8.5 168l-405 -16q-27 -47 -50.5 -96.5t-43.5 -98.5q-29 -72 -46.5 -139.5t-21.5 -126.5q-57 -16 -87 4t-39 58t-1 88t25 98q16 47 39.5 99t54.5 105l-162 -6zM424 489h383q39 78 102.5 134.5t138 92.5 t156.5 53t156 17l82 -14v12l-107 35q-72 41 -99.5 127t1.5 170q4 16 11 29.5t16 25.5q10 66 -43 76q-53 12 -147.5 -42t-206 -158.5t-228.5 -248t-215 -309.5z" />
<glyph unicode="&#xc7;" horiz-adv-x="923" d="M69.5 404.5q8.5 121.5 63.5 267.5q55 143 144.5 267t198 212t232 132t248.5 26q59 -12 98.5 -47t56.5 -87.5t9 -121t-45 -146.5q-39 -80 -87 -127t-95 -64.5t-86 -6t-59 48.5q72 39 123 97t85 130q23 43 34 86t8 79t-20 61.5t-50 37.5q-53 18 -136 -10.5t-173.5 -102 t-178.5 -190.5t-151 -274q-55 -141 -65.5 -248t12 -180.5t72.5 -112.5t116 -45q98 -8 191.5 40t164.5 114v-74q-66 -66 -139.5 -103.5t-144.5 -52.5l-170 -143q131 16 198.5 -28t65.5 -120q0 -49 -30 -89t-84 -63.5t-132 -26.5t-178 22v43q68 -16 121 -13.5t90 20t56.5 45.5 t19.5 58q2 59 -54.5 88t-179.5 13v45l178 139q-113 2 -188.5 53t-111.5 140.5t-27.5 211z" />
<glyph unicode="&#xc8;" horiz-adv-x="1046" d="M79.5 268q-16.5 84 18.5 176q33 90 96.5 155t142.5 107t166 61t167 19l82 -14v12l-107 35q-72 41 -99.5 127t1.5 170q27 72 80 119t120.5 70.5t145.5 25.5t154 -16q63 -16 105 -52t61.5 -81t18.5 -95.5t-20 -95.5q-25 -59 -62.5 -89t-74.5 -36t-66.5 6.5t-39.5 34.5 q37 23 65.5 55.5t44.5 79.5q27 66 12.5 127.5t-73.5 85.5q-41 18 -89 18.5t-93 -19t-83 -57.5t-59 -93q-16 -45 -13 -93t27.5 -91t70.5 -79t118 -57l43 -45q-115 8 -223.5 -6t-199.5 -52t-158.5 -100.5t-102.5 -154.5q-23 -59 -16.5 -119.5t41 -110t97 -80t152.5 -32.5 q53 -2 110.5 11.5t113 35t102.5 50t78 59.5v-74q-31 -29 -78 -57.5t-103.5 -52t-120 -39t-126.5 -17.5q-117 -8 -208 25.5t-146.5 96t-72 146.5zM788 1749q74 51 125 25q23 -14 39.5 -58.5t32.5 -99.5t37.5 -113.5t54.5 -99.5q-45 -18 -82 -10t-70.5 50t-66.5 116.5 t-70 189.5z" />
<glyph unicode="&#xc9;" horiz-adv-x="1046" d="M79.5 268q-16.5 84 18.5 176q33 90 96.5 155t142.5 107t166 61t167 19l82 -14v12l-107 35q-72 41 -99.5 127t1.5 170q27 72 80 119t120.5 70.5t145.5 25.5t154 -16q63 -16 105 -52t61.5 -81t18.5 -95.5t-20 -95.5q-25 -59 -62.5 -89t-74.5 -36t-66.5 6.5t-39.5 34.5 q37 23 65.5 55.5t44.5 79.5q27 66 12.5 127.5t-73.5 85.5q-41 18 -89 18.5t-93 -19t-83 -57.5t-59 -93q-16 -45 -13 -93t27.5 -91t70.5 -79t118 -57l43 -45q-115 8 -223.5 -6t-199.5 -52t-158.5 -100.5t-102.5 -154.5q-23 -59 -16.5 -119.5t41 -110t97 -80t152.5 -32.5 q53 -2 110.5 11.5t113 35t102.5 50t78 59.5v-74q-31 -29 -78 -57.5t-103.5 -52t-120 -39t-126.5 -17.5q-117 -8 -208 25.5t-146.5 96t-72 146.5zM885 1417q33 23 77 61t89 81t86.5 85.5t70.5 77.5q31 37 63 45.5t50 -6t19 -46.5t-27 -75q-47 -68 -105.5 -116.5t-119 -78.5 t-113.5 -37t-90 9z" />
<glyph unicode="&#xca;" horiz-adv-x="1046" d="M79.5 268q-16.5 84 18.5 176q33 90 96.5 155t142.5 107t166 61t167 19l82 -14v12l-107 35q-72 41 -99.5 127t1.5 170q27 72 80 119t120.5 70.5t145.5 25.5t154 -16q63 -16 105 -52t61.5 -81t18.5 -95.5t-20 -95.5q-25 -59 -62.5 -89t-74.5 -36t-66.5 6.5t-39.5 34.5 q37 23 65.5 55.5t44.5 79.5q27 66 12.5 127.5t-73.5 85.5q-41 18 -89 18.5t-93 -19t-83 -57.5t-59 -93q-16 -45 -13 -93t27.5 -91t70.5 -79t118 -57l43 -45q-115 8 -223.5 -6t-199.5 -52t-158.5 -100.5t-102.5 -154.5q-23 -59 -16.5 -119.5t41 -110t97 -80t152.5 -32.5 q53 -2 110.5 11.5t113 35t102.5 50t78 59.5v-74q-31 -29 -78 -57.5t-103.5 -52t-120 -39t-126.5 -17.5q-117 -8 -208 25.5t-146.5 96t-72 146.5zM705 1456l397 291h72l108 -301l-49 -27l-143 199l-355 -199z" />
<glyph unicode="&#xcb;" horiz-adv-x="1046" d="M79.5 268q-16.5 84 18.5 176q33 90 96.5 155t142.5 107t166 61t167 19l82 -14v12l-107 35q-72 41 -99.5 127t1.5 170q27 72 80 119t120.5 70.5t145.5 25.5t154 -16q63 -16 105 -52t61.5 -81t18.5 -95.5t-20 -95.5q-25 -59 -62.5 -89t-74.5 -36t-66.5 6.5t-39.5 34.5 q37 23 65.5 55.5t44.5 79.5q27 66 12.5 127.5t-73.5 85.5q-41 18 -89 18.5t-93 -19t-83 -57.5t-59 -93q-16 -45 -13 -93t27.5 -91t70.5 -79t118 -57l43 -45q-115 8 -223.5 -6t-199.5 -52t-158.5 -100.5t-102.5 -154.5q-23 -59 -16.5 -119.5t41 -110t97 -80t152.5 -32.5 q53 -2 110.5 11.5t113 35t102.5 50t78 59.5v-74q-31 -29 -78 -57.5t-103.5 -52t-120 -39t-126.5 -17.5q-117 -8 -208 25.5t-146.5 96t-72 146.5zM761 1540.5q-11 36.5 11 77.5q20 39 62.5 51t80.5 -4q39 -23 50 -59.5t-9 -73.5q-23 -41 -64.5 -55.5t-78.5 4.5 q-41 23 -52 59.5zM1062 1540.5q-11 36.5 13 77.5q20 39 62.5 51t79.5 -4q39 -23 49.5 -59.5t-9.5 -73.5q-20 -41 -63 -55.5t-80 4.5q-41 23 -52 59.5z" />
<glyph unicode="&#xcc;" horiz-adv-x="641" d="M138 100.5q3 28.5 12.5 57t23 56t25.5 52.5q82 168 141 292t103 214t72 149.5t46.5 98.5t27.5 60.5t15 33.5q23 51 48.5 75.5t47.5 35.5l41 12v8q-61 -4 -108 -13t-89 -30.5t-84 -58.5t-91 -94q-23 20 -32 47.5t-4 57.5t25.5 59.5t55.5 54.5q47 33 106.5 44t116.5 7 t107.5 -23.5t78.5 -46.5l-485 -1032q-41 -84 -51.5 -131t6.5 -84q-41 -14 -85 -6t-63 51q-10 25 -7 53.5zM602 1749q74 51 125 25q23 -14 39 -58.5t32.5 -99.5t38 -113.5t54.5 -99.5q-45 -18 -82 -10t-70.5 50t-66.5 116.5t-70 189.5z" />
<glyph unicode="&#xcd;" horiz-adv-x="641" d="M138 100.5q3 28.5 12.5 57t23 56t25.5 52.5q82 168 141 292t103 214t72 149.5t46.5 98.5t27.5 60.5t15 33.5q23 51 48.5 75.5t47.5 35.5l41 12v8q-61 -4 -108 -13t-89 -30.5t-84 -58.5t-91 -94q-23 20 -32 47.5t-4 57.5t25.5 59.5t55.5 54.5q47 33 106.5 44t116.5 7 t107.5 -23.5t78.5 -46.5l-485 -1032q-41 -84 -51.5 -131t6.5 -84q-41 -14 -85 -6t-63 51q-10 25 -7 53.5zM641 1417q33 23 77 61t89 81t87 85.5t71 77.5q31 37 62.5 45.5t50 -6t19.5 -46.5t-28 -75q-47 -68 -105.5 -116.5t-119 -78.5t-113.5 -37t-90 9z" />
<glyph unicode="&#xce;" horiz-adv-x="641" d="M138 100.5q3 28.5 12.5 57t23 56t25.5 52.5q82 168 141 292t103 214t72 149.5t46.5 98.5t27.5 60.5t15 33.5q23 51 48.5 75.5t47.5 35.5l41 12v8q-61 -4 -108 -13t-89 -30.5t-84 -58.5t-91 -94q-23 20 -32 47.5t-4 57.5t25.5 59.5t55.5 54.5q47 33 106.5 44t116.5 7 t107.5 -23.5t78.5 -46.5l-485 -1032q-41 -84 -51.5 -131t6.5 -84q-41 -14 -85 -6t-63 51q-10 25 -7 53.5zM475 1456l397 291h72l109 -301l-49 -27l-144 199l-354 -199z" />
<glyph unicode="&#xcf;" horiz-adv-x="641" d="M138 100.5q3 28.5 12.5 57t23 56t25.5 52.5q82 168 141 292t103 214t72 149.5t46.5 98.5t27.5 60.5t15 33.5q23 51 48.5 75.5t47.5 35.5l41 12v8q-61 -4 -108 -13t-89 -30.5t-84 -58.5t-91 -94q-23 20 -32 47.5t-4 57.5t25.5 59.5t55.5 54.5q47 33 106.5 44t116.5 7 t107.5 -23.5t78.5 -46.5l-485 -1032q-41 -84 -51.5 -131t6.5 -84q-41 -14 -85 -6t-63 51q-10 25 -7 53.5zM519 1540.5q-11 36.5 11 77.5q20 39 62.5 51t81.5 -4q39 -23 50 -59.5t-9 -73.5q-23 -41 -65 -55.5t-79 4.5q-41 23 -52 59.5zM820 1540.5q-11 36.5 14 77.5 q20 39 62 51t79 -4q39 -23 50 -59.5t-9 -73.5q-20 -41 -63.5 -55.5t-80.5 4.5q-41 23 -52 59.5z" />
<glyph unicode="&#xd0;" horiz-adv-x="1392" d="M46 305.5q-11 69.5 5 128.5q14 55 46 94t71 59.5t83 22.5t87 -18q-47 -33 -85 -80t-58 -127q-16 -55 -7 -112.5t44.5 -104.5t100 -79t161.5 -34q119 -4 224 38t193 121t161 189.5t128 241.5q49 117 63.5 220.5t-5 184t-74 135t-142.5 72.5q-82 16 -166.5 5t-161.5 -44.5 t-141.5 -88t-105.5 -128.5q-49 -86 -65.5 -172t-4.5 -137q-41 -6 -75.5 16.5t-49 67.5t-3 109.5t60.5 142.5q53 84 133 145.5t178 98.5t210 47t228 -10q127 -23 205 -88.5t109.5 -162.5t19.5 -219t-67 -257q-66 -158 -165.5 -277t-220 -194.5t-257 -105.5t-277.5 -9 q-121 16 -200 64.5t-124 112t-56 133zM319 106l213 443h-126l47 100h129l229 473q29 -4 77 5.5t95 25.5l-244 -504h285l-39 -100h-295l-198 -412q-18 0 -41 -3t-46.5 -7t-46 -10t-39.5 -11z" />
<glyph unicode="&#xd1;" horiz-adv-x="1216" d="M29 -31l540 1141q23 49 44.5 73.5t52.5 41.5l41 12v8q-53 -4 -97.5 -10t-87.5 -26.5t-88 -58.5t-100 -101q-23 18 -32 47.5t-3 60.5t25.5 60.5t54.5 50.5q47 31 105.5 43t116.5 7t107.5 -23.5t77.5 -45.5l39 -39l33 -811l-20 -166l8 -8q92 217 157.5 375t109.5 268.5 t68.5 182t35 116.5t9.5 71t-9 46q47 16 89 8t60 -47q10 -23 10 -50.5t-6 -57t-16.5 -58t-22.5 -53.5l-493 -1026h-109l-27 1118l-63 -178l-442 -940q-43 -2 -85 -10t-83 -21zM741 1503q43 70 92.5 118t99.5 65.5t102 2t104 -70.5q47 -55 94 -54t82 23q41 27 80 80l49 -41 q-117 -152 -218.5 -179.5t-197.5 81.5q-47 53 -92 50t-80 -30q-41 -31 -76 -86z" />
<glyph unicode="&#xd2;" horiz-adv-x="1095" d="M77.5 207q-18.5 94 5 224t95.5 286q59 133 142 245.5t180.5 192.5t204 122t215.5 34q88 -6 145 -58.5t77.5 -139.5t2 -207t-77.5 -263q-78 -182 -172 -308t-192.5 -202t-197.5 -107.5t-186 -27.5q-100 6 -161.5 60.5t-80 148.5zM206 204.5q5 -71.5 35.5 -104t71.5 -39.5 q37 -6 97.5 8.5t137.5 78t168 189.5t189 341q68 147 92.5 253.5t18.5 176.5t-37 104.5t-76 38.5q-35 2 -92 -13t-131 -72.5t-161 -170t-179 -303.5q-80 -178 -109.5 -297t-24.5 -190.5zM836 1749q74 51 125 25q23 -14 39 -58.5t32.5 -99.5t38 -113.5t53.5 -99.5 q-45 -18 -81.5 -10t-70.5 50t-66.5 116.5t-69.5 189.5z" />
<glyph unicode="&#xd3;" horiz-adv-x="1095" d="M77.5 207q-18.5 94 5 224t95.5 286q59 133 142 245.5t180.5 192.5t204 122t215.5 34q88 -6 145 -58.5t77.5 -139.5t2 -207t-77.5 -263q-78 -182 -172 -308t-192.5 -202t-197.5 -107.5t-186 -27.5q-100 6 -161.5 60.5t-80 148.5zM206 204.5q5 -71.5 35.5 -104t71.5 -39.5 q37 -6 97.5 8.5t137.5 78t168 189.5t189 341q68 147 92.5 253.5t18.5 176.5t-37 104.5t-76 38.5q-35 2 -92 -13t-131 -72.5t-161 -170t-179 -303.5q-80 -178 -109.5 -297t-24.5 -190.5zM834 1417q33 23 76.5 61t88.5 81t87 85.5t71 77.5q31 37 62.5 45.5t50 -6t19.5 -46.5 t-27 -75q-47 -68 -105.5 -116.5t-119 -78.5t-114 -37t-89.5 9z" />
<glyph unicode="&#xd4;" horiz-adv-x="1095" d="M77.5 207q-18.5 94 5 224t95.5 286q59 133 142 245.5t180.5 192.5t204 122t215.5 34q88 -6 145 -58.5t77.5 -139.5t2 -207t-77.5 -263q-78 -182 -172 -308t-192.5 -202t-197.5 -107.5t-186 -27.5q-100 6 -161.5 60.5t-80 148.5zM206 204.5q5 -71.5 35.5 -104t71.5 -39.5 q37 -6 97.5 8.5t137.5 78t168 189.5t189 341q68 147 92.5 253.5t18.5 176.5t-37 104.5t-76 38.5q-35 2 -92 -13t-131 -72.5t-161 -170t-179 -303.5q-80 -178 -109.5 -297t-24.5 -190.5zM668 1456l397 291h72l108 -301l-49 -27l-143 199l-355 -199z" />
<glyph unicode="&#xd5;" horiz-adv-x="1095" d="M77.5 207q-18.5 94 5 224t95.5 286q59 133 142 245.5t180.5 192.5t204 122t215.5 34q88 -6 145 -58.5t77.5 -139.5t2 -207t-77.5 -263q-78 -182 -172 -308t-192.5 -202t-197.5 -107.5t-186 -27.5q-100 6 -161.5 60.5t-80 148.5zM206 204.5q5 -71.5 35.5 -104t71.5 -39.5 q37 -6 97.5 8.5t137.5 78t168 189.5t189 341q68 147 92.5 253.5t18.5 176.5t-37 104.5t-76 38.5q-35 2 -92 -13t-131 -72.5t-161 -170t-179 -303.5q-80 -178 -109.5 -297t-24.5 -190.5zM635 1503q43 70 92 118t99.5 65.5t102.5 2t103 -70.5q47 -55 94.5 -54t81.5 23 q41 27 80 80l49 -41q-117 -152 -218 -179.5t-197 81.5q-47 53 -92.5 50t-79.5 -30q-41 -31 -76 -86z" />
<glyph unicode="&#xd6;" horiz-adv-x="1095" d="M77.5 207q-18.5 94 5 224t95.5 286q59 133 142 245.5t180.5 192.5t204 122t215.5 34q88 -6 145 -58.5t77.5 -139.5t2 -207t-77.5 -263q-78 -182 -172 -308t-192.5 -202t-197.5 -107.5t-186 -27.5q-100 6 -161.5 60.5t-80 148.5zM206 204.5q5 -71.5 35.5 -104t71.5 -39.5 q37 -6 97.5 8.5t137.5 78t168 189.5t189 341q68 147 92.5 253.5t18.5 176.5t-37 104.5t-76 38.5q-35 2 -92 -13t-131 -72.5t-161 -170t-179 -303.5q-80 -178 -109.5 -297t-24.5 -190.5zM718 1540.5q-11 36.5 11 77.5q20 39 62.5 51t80.5 -4q39 -23 50 -59.5t-9 -73.5 q-23 -41 -64.5 -55.5t-78.5 4.5q-41 23 -52 59.5zM1019 1540.5q-11 36.5 13 77.5q20 39 62.5 51t79.5 -4q39 -23 49.5 -59.5t-9.5 -73.5q-20 -41 -63 -55.5t-80 4.5q-41 23 -52 59.5z" />
<glyph unicode="&#xd7;" horiz-adv-x="851" d="M98 362l299 207l-118 197l96 55l112 -188l273 188l88 -63l-307 -211l114 -191l-90 -59l-114 186l-267 -182z" />
<glyph unicode="&#xd8;" horiz-adv-x="1095" d="M-61 -53l165 180q-47 94 -30.5 245.5t104.5 344.5q59 133 142 245.5t180.5 192.5t204 122t215.5 34q117 -8 180 -99l90 99h100l-155 -170q29 -90 13.5 -217t-81.5 -281q-78 -182 -172 -308t-192.5 -202t-197.5 -107.5t-186 -27.5q-109 6 -169 68l-109 -119h-102zM205 238 l809 882q-8 63 -38 95t-73 36q-35 2 -92 -13t-131 -72.5t-161 -170t-179 -303.5q-72 -160 -102.5 -271.5t-32.5 -182.5zM219 141q14 -39 40 -57t54 -23q37 -6 97.5 8.5t137.5 78t168 189.5t189 341q47 102 71.5 183t35.5 145z" />
<glyph unicode="&#xd9;" horiz-adv-x="1105" d="M73.5 298q18.5 114 100.5 284q43 86 104.5 181t132 182t143.5 161t136 119l41 12v8q-53 -4 -98 -11t-88 -26.5t-88 -57.5t-99 -101q-23 18 -31 44.5t-2.5 57.5t25 61.5t53.5 55.5q45 31 107.5 41t125 6t116 -24.5t82.5 -51.5q-61 -53 -133 -130t-140.5 -167t-130 -185 t-102.5 -186q-51 -109 -76 -199.5t-26 -155t19.5 -97.5t61.5 -25q66 10 157 82t185 178.5t182.5 232.5t147.5 247l225 458q31 -4 77 2t81 17l-514 -1094q-41 -84 -51.5 -131t6.5 -84q-41 -12 -86 -5t-62 48q-14 35 -3.5 72t26.5 71l86 164l84 137l-4 9l-66 -86 q-160 -211 -295 -305.5t-235 -106.5q-53 -6 -102.5 20.5t-70 95t-2 182.5zM825 1749q74 51 125 25q23 -14 39.5 -58.5t32.5 -99.5t37.5 -113.5t54.5 -99.5q-45 -18 -82 -10t-70.5 50t-66.5 116.5t-70 189.5z" />
<glyph unicode="&#xda;" horiz-adv-x="1105" d="M73.5 298q18.5 114 100.5 284q43 86 104.5 181t132 182t143.5 161t136 119l41 12v8q-53 -4 -98 -11t-88 -26.5t-88 -57.5t-99 -101q-23 18 -31 44.5t-2.5 57.5t25 61.5t53.5 55.5q45 31 107.5 41t125 6t116 -24.5t82.5 -51.5q-61 -53 -133 -130t-140.5 -167t-130 -185 t-102.5 -186q-51 -109 -76 -199.5t-26 -155t19.5 -97.5t61.5 -25q66 10 157 82t185 178.5t182.5 232.5t147.5 247l225 458q31 -4 77 2t81 17l-514 -1094q-41 -84 -51.5 -131t6.5 -84q-41 -12 -86 -5t-62 48q-14 35 -3.5 72t26.5 71l86 164l84 137l-4 9l-66 -86 q-160 -211 -295 -305.5t-235 -106.5q-53 -6 -102.5 20.5t-70 95t-2 182.5zM854 1417q33 23 77 61t89 81t87 85.5t71 77.5q31 37 62.5 45.5t50 -6t19.5 -46.5t-28 -75q-47 -68 -105.5 -116.5t-119 -78.5t-113.5 -37t-90 9z" />
<glyph unicode="&#xdb;" horiz-adv-x="1105" d="M73.5 298q18.5 114 100.5 284q43 86 104.5 181t132 182t143.5 161t136 119l41 12v8q-53 -4 -98 -11t-88 -26.5t-88 -57.5t-99 -101q-23 18 -31 44.5t-2.5 57.5t25 61.5t53.5 55.5q45 31 107.5 41t125 6t116 -24.5t82.5 -51.5q-61 -53 -133 -130t-140.5 -167t-130 -185 t-102.5 -186q-51 -109 -76 -199.5t-26 -155t19.5 -97.5t61.5 -25q66 10 157 82t185 178.5t182.5 232.5t147.5 247l225 458q31 -4 77 2t81 17l-514 -1094q-41 -84 -51.5 -131t6.5 -84q-41 -12 -86 -5t-62 48q-14 35 -3.5 72t26.5 71l86 164l84 137l-4 9l-66 -86 q-160 -211 -295 -305.5t-235 -106.5q-53 -6 -102.5 20.5t-70 95t-2 182.5zM709 1456l397 291h72l108 -301l-49 -27l-143 199l-355 -199z" />
<glyph unicode="&#xdc;" horiz-adv-x="1105" d="M73.5 298q18.5 114 100.5 284q43 86 104.5 181t132 182t143.5 161t136 119l41 12v8q-53 -4 -98 -11t-88 -26.5t-88 -57.5t-99 -101q-23 18 -31 44.5t-2.5 57.5t25 61.5t53.5 55.5q45 31 107.5 41t125 6t116 -24.5t82.5 -51.5q-61 -53 -133 -130t-140.5 -167t-130 -185 t-102.5 -186q-51 -109 -76 -199.5t-26 -155t19.5 -97.5t61.5 -25q66 10 157 82t185 178.5t182.5 232.5t147.5 247l225 458q31 -4 77 2t81 17l-514 -1094q-41 -84 -51.5 -131t6.5 -84q-41 -12 -86 -5t-62 48q-14 35 -3.5 72t26.5 71l86 164l84 137l-4 9l-66 -86 q-160 -211 -295 -305.5t-235 -106.5q-53 -6 -102.5 20.5t-70 95t-2 182.5zM773 1540.5q-11 36.5 11 77.5q20 39 62.5 51t81.5 -4q39 -23 50 -59.5t-9 -73.5q-23 -41 -65 -55.5t-79 4.5q-41 23 -52 59.5zM1074 1540.5q-11 36.5 13 77.5q20 39 62.5 51t79.5 -4 q39 -23 50 -59.5t-9 -73.5q-20 -41 -63.5 -55.5t-80.5 4.5q-41 23 -52 59.5z" />
<glyph unicode="&#xdd;" horiz-adv-x="901" d="M135 -31l262 555l64 13q-23 4 -43.5 8t-34.5 12q-41 27 -60.5 69t-22.5 93t7 107.5t31 111.5q14 45 38.5 90t51.5 84t54.5 67.5t52.5 45.5l43 12v8q-55 -4 -102.5 -11t-93.5 -27.5t-93 -58.5t-99 -99q-23 18 -30.5 45.5t-3.5 58.5t23.5 60.5t56.5 54.5q45 33 107.5 43 t124.5 4t115.5 -26.5t82.5 -47.5q-47 -66 -96.5 -145.5t-77.5 -155.5q-27 -63 -43.5 -122.5t-21.5 -107.5t4 -81t34 -41q33 -10 85 15.5t112.5 76.5t121 124t108.5 154.5t76.5 170t24.5 169.5q18 8 44 10.5t48.5 -7t38 -33t17.5 -66.5q0 -68 -43 -167t-116 -196.5t-169 -177 t-201 -110.5q-25 -10 -53 -12l-252 -539q-33 2 -83 -9t-89 -22zM674 1417q33 23 77 61t89 81t86.5 85.5t70.5 77.5q31 37 63 45.5t50 -6t19 -46.5t-27 -75q-47 -68 -105.5 -116.5t-119 -78.5t-113.5 -37t-90 9z" />
<glyph unicode="&#xde;" horiz-adv-x="1189" d="M2 717q6 51 37 106q35 63 92 123t135 106t173.5 74.5t205.5 32.5l60 121q33 0 82 8t90 23l-78 -162q6 0 12 -1t12 -1q131 -23 210 -84.5t114 -142t31 -175t-39 -184.5q-49 -129 -135 -218t-194 -133t-227.5 -45t-238.5 46l-100 -211q-39 -2 -87 -11t-85 -20l542 1125 q-123 -18 -235.5 -85t-175.5 -171q-45 -74 -65.5 -140.5t-16.5 -152.5q-41 -4 -71 18.5t-42 62.5t-6 91zM369 260q70 -27 156.5 -27t172.5 37t163 117t128 215q35 94 38 177t-24.5 148.5t-82 109t-132.5 55.5q-4 0 -8 1t-8 1z" />
<glyph unicode="&#xdf;" horiz-adv-x="790" d="M-244 -115l449 893q72 137 148.5 241.5t158.5 158.5q98 63 186 67t143.5 -38t69 -124t-38.5 -192q-29 -61 -70.5 -104.5t-87.5 -71t-92.5 -39.5t-82.5 -14l-4 -11l57 -8q27 -16 43 -53t21.5 -86t-5 -106.5t-37.5 -114.5q-12 -25 -23 -46.5t-24 -41.5q66 14 129.5 63 t106.5 129l49 -29q-68 -113 -157 -168t-181 -63q-51 -55 -104.5 -84t-103.5 -38t-95 -1t-80 29l21 41q29 -14 70.5 -7t87.5 37.5t92.5 86t82.5 141.5q55 125 38 215t-103 112l22 46q31 0 71 15t80 43t78 67.5t64 91.5q53 100 48 174.5t-58 89.5q-47 12 -93 -20.5t-87 -75.5 q-41 -41 -82 -108t-72 -130l-457 -936q-41 -2 -86 -10t-92 -21z" />
<glyph unicode="&#xe0;" horiz-adv-x="892" d="M-29.5 160.5q-9.5 72.5 18 167t97.5 196.5q72 104 148.5 170t151.5 95.5t144.5 26.5t124.5 -34q41 -23 95.5 -21.5t109.5 25.5l-248 -483q-49 -104 -52 -155.5t34 -51.5q59 0 141 70t170 221l49 -29q-111 -168 -214 -264t-214 -96q-53 0 -85.5 40t-28.5 101l30 70h-6 l-22 -33q-53 -76 -122 -126t-153 -50q-72 0 -115.5 44t-53 116.5zM106.5 196.5q-2.5 -51.5 18 -80t57.5 -28.5q70 0 159 83t171 245l152 303q-47 25 -104.5 21.5t-118 -34t-121 -89t-111.5 -142.5q-53 -86 -76.5 -156.5t-26 -122zM444 1257q74 51 125 25q23 -14 39.5 -58 t32.5 -99.5t37.5 -114t54.5 -99.5q-45 -18 -82 -10t-70.5 50t-66.5 116.5t-70 189.5z" />
<glyph unicode="&#xe1;" horiz-adv-x="892" d="M-29.5 160.5q-9.5 72.5 18 167t97.5 196.5q72 104 148.5 170t151.5 95.5t144.5 26.5t124.5 -34q41 -23 95.5 -21.5t109.5 25.5l-248 -483q-49 -104 -52 -155.5t34 -51.5q59 0 141 70t170 221l49 -29q-111 -168 -214 -264t-214 -96q-53 0 -85.5 40t-28.5 101l30 70h-6 l-22 -33q-53 -76 -122 -126t-153 -50q-72 0 -115.5 44t-53 116.5zM106.5 196.5q-2.5 -51.5 18 -80t57.5 -28.5q70 0 159 83t171 245l152 303q-47 25 -104.5 21.5t-118 -34t-121 -89t-111.5 -142.5q-53 -86 -76.5 -156.5t-26 -122zM444 926q33 23 77 60.5t89 80.5t87 86 t71 78q31 37 62.5 45t50 -6.5t19.5 -46t-28 -74.5q-47 -68 -105 -117t-118.5 -78.5t-114 -37t-90.5 9.5z" />
<glyph unicode="&#xe2;" horiz-adv-x="892" d="M-29.5 160.5q-9.5 72.5 18 167t97.5 196.5q72 104 148.5 170t151.5 95.5t144.5 26.5t124.5 -34q41 -23 95.5 -21.5t109.5 25.5l-248 -483q-49 -104 -52 -155.5t34 -51.5q59 0 141 70t170 221l49 -29q-111 -168 -214 -264t-214 -96q-53 0 -85.5 40t-28.5 101l30 70h-6 l-22 -33q-53 -76 -122 -126t-153 -50q-72 0 -115.5 44t-53 116.5zM106.5 196.5q-2.5 -51.5 18 -80t57.5 -28.5q70 0 159 83t171 245l152 303q-47 25 -104.5 21.5t-118 -34t-121 -89t-111.5 -142.5q-53 -86 -76.5 -156.5t-26 -122zM313 965l398 290h71l109 -301l-49 -26 l-144 198l-354 -198z" />
<glyph unicode="&#xe3;" horiz-adv-x="892" d="M-29.5 160.5q-9.5 72.5 18 167t97.5 196.5q72 104 148.5 170t151.5 95.5t144.5 26.5t124.5 -34q41 -23 95.5 -21.5t109.5 25.5l-248 -483q-49 -104 -52 -155.5t34 -51.5q59 0 141 70t170 221l49 -29q-111 -168 -214 -264t-214 -96q-53 0 -85.5 40t-28.5 101l30 70h-6 l-22 -33q-53 -76 -122 -126t-153 -50q-72 0 -115.5 44t-53 116.5zM106.5 196.5q-2.5 -51.5 18 -80t57.5 -28.5q70 0 159 83t171 245l152 303q-47 25 -104.5 21.5t-118 -34t-121 -89t-111.5 -142.5q-53 -86 -76.5 -156.5t-26 -122zM289 1012q43 70 92 118t99 65t102.5 2 t103.5 -71q47 -55 94 -54t82 24q41 27 80 80l49 -41q-117 -152 -218 -179.5t-198 80.5q-47 53 -92 50t-80 -29q-41 -31 -75 -86z" />
<glyph unicode="&#xe4;" horiz-adv-x="892" d="M-29.5 160.5q-9.5 72.5 18 167t97.5 196.5q72 104 148.5 170t151.5 95.5t144.5 26.5t124.5 -34q41 -23 95.5 -21.5t109.5 25.5l-248 -483q-49 -104 -52 -155.5t34 -51.5q59 0 141 70t170 221l49 -29q-111 -168 -214 -264t-214 -96q-53 0 -85.5 40t-28.5 101l30 70h-6 l-22 -33q-53 -76 -122 -126t-153 -50q-72 0 -115.5 44t-53 116.5zM106.5 196.5q-2.5 -51.5 18 -80t57.5 -28.5q70 0 159 83t171 245l152 303q-47 25 -104.5 21.5t-118 -34t-121 -89t-111.5 -142.5q-53 -86 -76.5 -156.5t-26 -122zM382 1048.5q-11 36.5 11 77.5 q20 39 62.5 51.5t81.5 -3.5q39 -23 50 -60t-9 -74q-23 -41 -65 -55t-79 4q-41 23 -52 59.5zM683 1048.5q-11 36.5 13 77.5q20 39 62.5 51.5t79.5 -3.5q39 -23 50 -60t-9 -74q-20 -41 -63.5 -55t-80.5 4q-41 23 -52 59.5z" />
<glyph unicode="&#xe5;" horiz-adv-x="892" d="M-29.5 160.5q-9.5 72.5 18 167t97.5 196.5q72 104 148.5 170t151.5 95.5t144.5 26.5t124.5 -34q41 -23 95.5 -21.5t109.5 25.5l-248 -483q-49 -104 -52 -155.5t34 -51.5q59 0 141 70t170 221l49 -29q-111 -168 -214 -264t-214 -96q-53 0 -85.5 40t-28.5 101l30 70h-6 l-22 -33q-53 -76 -122 -126t-153 -50q-72 0 -115.5 44t-53 116.5zM106.5 196.5q-2.5 -51.5 18 -80t57.5 -28.5q70 0 159 83t171 245l152 303q-47 25 -104.5 21.5t-118 -34t-121 -89t-111.5 -142.5q-53 -86 -76.5 -156.5t-26 -122zM449 1096q0 100 65.5 164.5t167.5 64.5 q45 0 86 -17.5t72.5 -48t51 -72.5t19.5 -91q0 -47 -19.5 -89t-51 -74t-72.5 -51.5t-86 -19.5q-51 0 -94 19.5t-74 51.5t-48 74t-17 89zM504 1094q0 -72 49 -124t127 -52q35 0 66.5 14t55 38.5t38 56.5t14.5 67q0 78 -52 126t-122 48q-78 0 -127 -48.5t-49 -125.5z" />
<glyph unicode="&#xe6;" horiz-adv-x="1687" d="M-29.5 160.5q-9.5 72.5 18 167t97.5 196.5q72 104 147.5 168t150.5 93.5t143.5 26.5t127.5 -30l111 -49q80 55 163 75.5t156 10.5q49 -6 82 -31.5t47.5 -64.5t8.5 -88t-35 -100q-39 -72 -100.5 -129.5t-137.5 -97.5t-158.5 -59.5t-164.5 -15.5q-2 -80 42 -125t122 -45 q55 0 123.5 18.5t139 58.5t137 101.5t114.5 145.5l49 -29q-43 -76 -108.5 -141t-143.5 -113.5t-167 -76t-179 -27.5q-135 0 -206 69.5t-71 184.5l-53 -78q-53 -76 -128 -126t-159 -50q-72 0 -115.5 44t-53 116.5zM106.5 196.5q-2.5 -51.5 18 -80t57.5 -28.5q63 0 143.5 69.5 t180.5 235.5q14 43 43 94q35 61 75 111.5t83 89.5q-66 47 -132.5 51t-131 -26.5t-124 -92t-110.5 -145.5q-53 -86 -76.5 -156.5t-26 -122zM633 279q61 2 121.5 23.5t116 58t103.5 89t85 115.5q49 84 41 137.5t-49 59.5q-27 6 -67 -9.5t-87 -53t-98.5 -99t-100.5 -147.5 q-53 -94 -65 -174z" />
<glyph unicode="&#xe7;" horiz-adv-x="780" d="M-18.5 295q12.5 88 71.5 192q53 96 120 163t138.5 107t143 55t133.5 7q53 -6 85 -32.5t45 -64.5t9 -82t-22 -87q-23 -51 -51.5 -90t-63.5 -62.5t-74 -31t-78 7.5q14 20 32.5 47t36 54.5t34 54t26.5 47.5q41 86 35 128t-41 52q-31 8 -74 -7.5t-92 -53t-100 -99 t-100 -147.5t-64.5 -158t-1.5 -123t57 -80t111 -29q57 0 124.5 18.5t133.5 58.5t127 101.5t109 145.5l49 -29q-80 -141 -212 -235t-286 -117l-166 -139q131 16 198.5 -28t65.5 -120q0 -49 -29.5 -89t-84 -63.5t-132 -26.5t-178.5 22v43q68 -16 121 -13.5t90 20t56.5 45.5 t19.5 58q2 59 -54 88t-179 13v45l178 139q-96 2 -159.5 40t-91.5 102.5t-15.5 152.5z" />
<glyph unicode="&#xe8;" horiz-adv-x="794" d="M-16.5 299q10.5 88 65.5 188q53 96 120 164t137.5 108t142 54t137.5 6q49 -6 81.5 -31.5t47 -64.5t8.5 -88t-35 -100q-39 -72 -100.5 -129.5t-137 -97.5t-158.5 -59.5t-165 -15.5q-2 -80 42 -125t122 -45q55 0 123.5 18.5t139.5 58.5t137.5 101.5t113.5 145.5l49 -29 q-43 -76 -108.5 -141t-143.5 -113.5t-167 -76t-179 -27.5q-96 0 -161.5 39t-93.5 105.5t-17.5 154.5zM133 279q61 2 121.5 23.5t116 58t103.5 89t85 115.5q49 84 41 137.5t-49 59.5q-27 6 -67 -9.5t-87 -53t-98 -99t-100 -147.5q-53 -94 -66 -174zM408 1257q74 51 124 25 q23 -14 39.5 -58t33 -99.5t38 -114t53.5 -99.5q-45 -18 -81.5 -10t-70.5 50t-66.5 116.5t-69.5 189.5z" />
<glyph unicode="&#xe9;" horiz-adv-x="794" d="M-16.5 299q10.5 88 65.5 188q53 96 120 164t137.5 108t142 54t137.5 6q49 -6 81.5 -31.5t47 -64.5t8.5 -88t-35 -100q-39 -72 -100.5 -129.5t-137 -97.5t-158.5 -59.5t-165 -15.5q-2 -80 42 -125t122 -45q55 0 123.5 18.5t139.5 58.5t137.5 101.5t113.5 145.5l49 -29 q-43 -76 -108.5 -141t-143.5 -113.5t-167 -76t-179 -27.5q-96 0 -161.5 39t-93.5 105.5t-17.5 154.5zM133 279q61 2 121.5 23.5t116 58t103.5 89t85 115.5q49 84 41 137.5t-49 59.5q-27 6 -67 -9.5t-87 -53t-98 -99t-100 -147.5q-53 -94 -66 -174zM395 926q33 23 77 60.5 t89 80.5t87 86t71 78q31 37 62.5 45t50 -6.5t19.5 -46t-28 -74.5q-47 -68 -105.5 -117t-118.5 -78.5t-113.5 -37t-90.5 9.5z" />
<glyph unicode="&#xea;" horiz-adv-x="794" d="M-16.5 299q10.5 88 65.5 188q53 96 120 164t137.5 108t142 54t137.5 6q49 -6 81.5 -31.5t47 -64.5t8.5 -88t-35 -100q-39 -72 -100.5 -129.5t-137 -97.5t-158.5 -59.5t-165 -15.5q-2 -80 42 -125t122 -45q55 0 123.5 18.5t139.5 58.5t137.5 101.5t113.5 145.5l49 -29 q-43 -76 -108.5 -141t-143.5 -113.5t-167 -76t-179 -27.5q-96 0 -161.5 39t-93.5 105.5t-17.5 154.5zM133 279q61 2 121.5 23.5t116 58t103.5 89t85 115.5q49 84 41 137.5t-49 59.5q-27 6 -67 -9.5t-87 -53t-98 -99t-100 -147.5q-53 -94 -66 -174zM268 965l398 290h71 l109 -301l-49 -26l-144 198l-354 -198z" />
<glyph unicode="&#xeb;" horiz-adv-x="794" d="M-16.5 299q10.5 88 65.5 188q53 96 120 164t137.5 108t142 54t137.5 6q49 -6 81.5 -31.5t47 -64.5t8.5 -88t-35 -100q-39 -72 -100.5 -129.5t-137 -97.5t-158.5 -59.5t-165 -15.5q-2 -80 42 -125t122 -45q55 0 123.5 18.5t139.5 58.5t137.5 101.5t113.5 145.5l49 -29 q-43 -76 -108.5 -141t-143.5 -113.5t-167 -76t-179 -27.5q-96 0 -161.5 39t-93.5 105.5t-17.5 154.5zM133 279q61 2 121.5 23.5t116 58t103.5 89t85 115.5q49 84 41 137.5t-49 59.5q-27 6 -67 -9.5t-87 -53t-98 -99t-100 -147.5q-53 -94 -66 -174zM320.5 1048.5 q-11.5 36.5 11.5 77.5q20 39 62 51.5t81 -3.5q39 -23 50 -60t-9 -74q-23 -41 -64.5 -55t-78.5 4q-41 23 -52.5 59.5zM621.5 1048.5q-11.5 36.5 13.5 77.5q20 39 62 51.5t79 -3.5q39 -23 50 -60t-9 -74q-20 -41 -63 -55t-80 4q-41 23 -52.5 59.5z" />
<glyph unicode="&#xec;" horiz-adv-x="405" d="M-76 170q8 66 50 148.5t89 179.5l142 282q37 -2 85 8.5t89 30.5l-256 -516q-98 -207 -4 -207q59 0 134 70t163 221l49 -29q-49 -76 -96 -141t-96.5 -114.5t-105.5 -77t-126 -27.5q-51 0 -90 43t-27 129zM180 1257q74 51 125 25q23 -14 39 -58t32.5 -99.5t38 -114 t54.5 -99.5q-45 -18 -82 -10t-70.5 50t-66.5 116.5t-70 189.5z" />
<glyph unicode="&#xed;" horiz-adv-x="405" d="M-76 170q8 66 50 148.5t89 179.5l142 282q37 -2 85 8.5t89 30.5l-256 -516q-98 -207 -4 -207q59 0 134 70t163 221l49 -29q-49 -76 -96 -141t-96.5 -114.5t-105.5 -77t-126 -27.5q-51 0 -90 43t-27 129zM205 926q33 23 77 60.5t89 80.5t86.5 86t70.5 78q31 37 63 45 t50 -6.5t19.5 -46t-27.5 -74.5q-47 -68 -105.5 -117t-119 -78.5t-113.5 -37t-90 9.5z" />
<glyph unicode="&#xee;" horiz-adv-x="405" d="M-76 170q8 66 50 148.5t89 179.5l142 282q37 -2 85 8.5t89 30.5l-256 -516q-98 -207 -4 -207q59 0 134 70t163 221l49 -29q-49 -76 -96 -141t-96.5 -114.5t-105.5 -77t-126 -27.5q-51 0 -90 43t-27 129zM49 965l397 290h72l109 -301l-49 -26l-144 198l-354 -198z" />
<glyph unicode="&#xef;" horiz-adv-x="405" d="M-76 170q8 66 50 148.5t89 179.5l142 282q37 -2 85 8.5t89 30.5l-256 -516q-98 -207 -4 -207q59 0 134 70t163 221l49 -29q-49 -76 -96 -141t-96.5 -114.5t-105.5 -77t-126 -27.5q-51 0 -90 43t-27 129zM122 1048.5q-11 36.5 11 77.5q20 39 62.5 51.5t80.5 -3.5 q39 -23 50 -60t-9 -74q-23 -41 -64.5 -55t-78.5 4q-41 23 -52 59.5zM423 1048.5q-11 36.5 13 77.5q20 39 62.5 51.5t79.5 -3.5q39 -23 49.5 -60t-9.5 -74q-20 -41 -63 -55t-80 4q-41 23 -52 59.5z" />
<glyph unicode="&#xf0;" horiz-adv-x="880" d="M-23.5 146.5q-15.5 68.5 6 162.5t93.5 203q63 96 137 161.5t151.5 102.5t154.5 43t147 -18q10 137 -15 241l-260 -104l27 88l213 86q-41 102 -123 150l18 47q74 -14 129.5 -53t92.5 -97l286 115l-24 -88l-230 -92q45 -111 40 -250t-54 -275q-35 -96 -88 -193t-125 -177 q43 -12 90 -6t92 30.5t86 66.5t72 97l49 -29q-88 -147 -211 -199.5t-244 -23.5q-70 -61 -154.5 -98t-189.5 -37q-61 0 -106 39t-60.5 107.5zM98 175q-2 -54 17.5 -85t60.5 -31q53 0 107.5 33t103.5 87t94 124t81 145.5t60.5 151.5t36.5 141q-61 16 -124.5 1t-122 -54 t-111.5 -97.5t-96 -127.5q-53 -86 -79 -160t-28 -128z" />
<glyph unicode="&#xf1;" horiz-adv-x="870" d="M-176 0l377 788q35 -4 80 5.5t92 25.5l-74 -149l-78 -101l4 -8q59 72 118.5 122t115 81t104.5 44t88 11q49 -2 78 -27.5t39 -68.5q14 -66 -18.5 -139.5t-90.5 -171.5q-92 -154 -114.5 -236t30.5 -82q33 0 72 25.5t81 67.5t82 94.5t73 105.5l49 -29q-123 -174 -222.5 -268 t-203.5 -90q-53 2 -90 43t-31 113q4 53 36 115.5t79 140.5q113 186 120 259.5t-69 59.5q-27 -4 -78 -36.5t-115.5 -95t-137.5 -159t-140 -229.5l-100 -211h-156zM266 1012q43 70 92.5 118t99.5 65t102 2t104 -71q47 -55 94 -54t82 24q41 27 80 80l49 -41 q-117 -152 -218.5 -179.5t-197.5 80.5q-47 53 -92 50t-80 -29q-41 -31 -76 -86z" />
<glyph unicode="&#xf2;" horiz-adv-x="870" d="M-17 267q3 83 44 184q35 86 87 154.5t113.5 116.5t127.5 72.5t134 24.5q84 0 139.5 -33.5t81 -91t22.5 -134.5t-34 -163q-23 -61 -49 -113.5t-59 -93.5q78 -4 158.5 47.5t134.5 149.5l49 -29q-78 -131 -184.5 -186t-215.5 -45q-133 -129 -307 -129q-78 0 -134 32.5 t-83.5 93t-24.5 143.5zM119 166q4 -51 26.5 -80t61.5 -29q86 0 174 93.5t162 263.5q70 160 56.5 255t-89.5 95q-84 0 -169 -89t-157 -247q-37 -78 -53 -144.5t-12 -117.5zM442 1257q74 51 125 25q23 -14 39.5 -58t32.5 -99.5t37.5 -114t54.5 -99.5q-45 -18 -82 -10t-70.5 50 t-66.5 116.5t-70 189.5z" />
<glyph unicode="&#xf3;" horiz-adv-x="870" d="M-17 267q3 83 44 184q35 86 87 154.5t113.5 116.5t127.5 72.5t134 24.5q84 0 139.5 -33.5t81 -91t22.5 -134.5t-34 -163q-23 -61 -49 -113.5t-59 -93.5q78 -4 158.5 47.5t134.5 149.5l49 -29q-78 -131 -184.5 -186t-215.5 -45q-133 -129 -307 -129q-78 0 -134 32.5 t-83.5 93t-24.5 143.5zM119 166q4 -51 26.5 -80t61.5 -29q86 0 174 93.5t162 263.5q70 160 56.5 255t-89.5 95q-84 0 -169 -89t-157 -247q-37 -78 -53 -144.5t-12 -117.5zM408 926q33 23 76.5 60.5t88.5 80.5t87 86t71 78q31 37 62.5 45t50 -6.5t19.5 -46t-27 -74.5 q-47 -68 -105.5 -117t-119 -78.5t-114 -37t-89.5 9.5z" />
<glyph unicode="&#xf4;" horiz-adv-x="870" d="M-17 267q3 83 44 184q35 86 87 154.5t113.5 116.5t127.5 72.5t134 24.5q84 0 139.5 -33.5t81 -91t22.5 -134.5t-34 -163q-23 -61 -49 -113.5t-59 -93.5q78 -4 158.5 47.5t134.5 149.5l49 -29q-78 -131 -184.5 -186t-215.5 -45q-133 -129 -307 -129q-78 0 -134 32.5 t-83.5 93t-24.5 143.5zM119 166q4 -51 26.5 -80t61.5 -29q86 0 174 93.5t162 263.5q70 160 56.5 255t-89.5 95q-84 0 -169 -89t-157 -247q-37 -78 -53 -144.5t-12 -117.5zM266 965l398 290h71l109 -301l-49 -26l-144 198l-354 -198z" />
<glyph unicode="&#xf5;" horiz-adv-x="870" d="M-17 267q3 83 44 184q35 86 87 154.5t113.5 116.5t127.5 72.5t134 24.5q84 0 139.5 -33.5t81 -91t22.5 -134.5t-34 -163q-23 -61 -49 -113.5t-59 -93.5q78 -4 158.5 47.5t134.5 149.5l49 -29q-78 -131 -184.5 -186t-215.5 -45q-133 -129 -307 -129q-78 0 -134 32.5 t-83.5 93t-24.5 143.5zM119 166q4 -51 26.5 -80t61.5 -29q86 0 174 93.5t162 263.5q70 160 56.5 255t-89.5 95q-84 0 -169 -89t-157 -247q-37 -78 -53 -144.5t-12 -117.5zM266 1012q43 70 92.5 118t99.5 65t102 2t104 -71q47 -55 94 -54t82 24q41 27 80 80l49 -41 q-117 -152 -218.5 -179.5t-197.5 80.5q-47 53 -92 50t-80 -29q-41 -31 -76 -86z" />
<glyph unicode="&#xf6;" horiz-adv-x="874" d="M-17 267q3 83 44 184q35 86 87 154.5t113.5 116.5t127.5 72.5t134 24.5q84 0 139.5 -33.5t81 -91t22.5 -134.5t-34 -163q-23 -61 -49 -113.5t-59 -93.5q78 -4 158.5 47.5t134.5 149.5l49 -29q-78 -131 -184.5 -186t-215.5 -45q-133 -129 -307 -129q-78 0 -134 32.5 t-83.5 93t-24.5 143.5zM119 166q4 -51 26.5 -80t61.5 -29q86 0 174 93.5t162 263.5q70 160 56.5 255t-89.5 95q-84 0 -169 -89t-157 -247q-37 -78 -53 -144.5t-12 -117.5zM337 1048.5q-11 36.5 11 77.5q20 39 62.5 51.5t81.5 -3.5q39 -23 49.5 -60t-9.5 -74 q-23 -41 -64.5 -55t-78.5 4q-41 23 -52 59.5zM638 1048.5q-11 36.5 13 77.5q20 39 62.5 51.5t79.5 -3.5q39 -23 50 -60t-9 -74q-20 -41 -63.5 -55t-80.5 4q-41 23 -52 59.5z" />
<glyph unicode="&#xf7;" horiz-adv-x="827" d="M143 524l47 101h537l-39 -101h-545zM191.5 234q-11.5 40 11.5 81q23 39 66.5 52.5t78.5 -5.5q41 -23 52 -60.5t-9 -74.5q-23 -41 -64.5 -56t-82.5 3q-41 20 -52.5 60zM450.5 818q-10.5 40 12.5 81q23 39 65.5 52.5t77.5 -5.5q41 -23 52 -60.5t-9 -74.5 q-23 -41 -64.5 -56.5t-82.5 3.5q-41 20 -51.5 60z" />
<glyph unicode="&#xf8;" horiz-adv-x="870" d="M-135 -82l162 172q-41 59 -44 151.5t44 209.5q35 86 87 154.5t113.5 116.5t127.5 72.5t134 24.5q100 0 164 -51l109 119h100l-162 -174q33 -59 33 -140t-35 -176q-23 -61 -49 -113.5t-59 -93.5q78 -4 158.5 47.5t134.5 149.5l49 -29q-78 -131 -184.5 -186t-215.5 -45 q-133 -129 -307 -129q-88 0 -147 41l-111 -121h-102zM119 166q4 -51 26.5 -80t61.5 -29q86 0 174 93.5t162 263.5q70 160 56.5 255t-89.5 95q-84 0 -169 -89t-157 -247q-37 -78 -53 -144.5t-12 -117.5z" />
<glyph unicode="&#xf9;" horiz-adv-x="872" d="M-70 178.5q4 57.5 37 126.5l236 475q41 0 87 11.5t87 27.5l-258 -520q-45 -88 -40 -140.5t54 -58.5q35 -6 79 13.5t90 58.5t92 93t85 118l53 115l154 307q31 -2 75 2t87 12l-256 -516q-47 -100 -48 -153.5t40 -59.5q51 -8 131 67.5t170 229.5l49 -29 q-59 -90 -111.5 -157.5t-101.5 -112.5t-98.5 -66.5t-106.5 -21.5q-53 0 -86 41t-24 104l6 29l41 72h-2q-94 -121 -191.5 -182.5t-175.5 -63.5q-49 0 -86 20.5t-54.5 60.5t-13.5 97.5zM391 1257q74 51 125 25q23 -14 39 -58t32.5 -99.5t38 -114t54.5 -99.5q-45 -18 -82 -10 t-70.5 50t-66.5 116.5t-70 189.5z" />
<glyph unicode="&#xfa;" horiz-adv-x="872" d="M-70 178.5q4 57.5 37 126.5l236 475q41 0 87 11.5t87 27.5l-258 -520q-45 -88 -40 -140.5t54 -58.5q35 -6 79 13.5t90 58.5t92 93t85 118l53 115l154 307q31 -2 75 2t87 12l-256 -516q-47 -100 -48 -153.5t40 -59.5q51 -8 131 67.5t170 229.5l49 -29 q-59 -90 -111.5 -157.5t-101.5 -112.5t-98.5 -66.5t-106.5 -21.5q-53 0 -86 41t-24 104l6 29l41 72h-2q-94 -121 -191.5 -182.5t-175.5 -63.5q-49 0 -86 20.5t-54.5 60.5t-13.5 97.5zM387 926q33 23 77 60.5t89 80.5t87 86t71 78q31 37 62.5 45t50 -6.5t19.5 -46t-28 -74.5 q-47 -68 -105.5 -117t-119 -78.5t-113.5 -37t-90 9.5z" />
<glyph unicode="&#xfb;" horiz-adv-x="872" d="M-70 178.5q4 57.5 37 126.5l236 475q41 0 87 11.5t87 27.5l-258 -520q-45 -88 -40 -140.5t54 -58.5q35 -6 79 13.5t90 58.5t92 93t85 118l53 115l154 307q31 -2 75 2t87 12l-256 -516q-47 -100 -48 -153.5t40 -59.5q51 -8 131 67.5t170 229.5l49 -29 q-59 -90 -111.5 -157.5t-101.5 -112.5t-98.5 -66.5t-106.5 -21.5q-53 0 -86 41t-24 104l6 29l41 72h-2q-94 -121 -191.5 -182.5t-175.5 -63.5q-49 0 -86 20.5t-54.5 60.5t-13.5 97.5zM293 965l397 290h72l108 -301l-49 -26l-143 198l-354 -198z" />
<glyph unicode="&#xfc;" horiz-adv-x="872" d="M-70 178.5q4 57.5 37 126.5l236 475q41 0 87 11.5t87 27.5l-258 -520q-45 -88 -40 -140.5t54 -58.5q35 -6 79 13.5t90 58.5t92 93t85 118l53 115l154 307q31 -2 75 2t87 12l-256 -516q-47 -100 -48 -153.5t40 -59.5q51 -8 131 67.5t170 229.5l49 -29 q-59 -90 -111.5 -157.5t-101.5 -112.5t-98.5 -66.5t-106.5 -21.5q-53 0 -86 41t-24 104l6 29l41 72h-2q-94 -121 -191.5 -182.5t-175.5 -63.5q-49 0 -86 20.5t-54.5 60.5t-13.5 97.5zM355.5 1048.5q-11.5 36.5 11.5 77.5q20 39 62 51.5t81 -3.5q39 -23 50 -60t-9 -74 q-23 -41 -65 -55t-78 4q-41 23 -52.5 59.5zM656.5 1048.5q-11.5 36.5 13.5 77.5q20 39 62 51.5t79 -3.5q39 -23 50 -60t-9 -74q-20 -41 -63.5 -55t-79.5 4q-41 23 -52.5 59.5z" />
<glyph unicode="&#xfd;" horiz-adv-x="831" d="M-144.5 -163q-5.5 30 4 51.5t25.5 27.5q39 16 68 -29t27 -120q31 -16 66.5 -18.5t72.5 14t73.5 56.5t69.5 107l129 264l60 80h-7q-94 -106 -192 -160.5t-166 -50.5q-96 4 -126 84t38 222l205 415q33 -2 80 8.5t94 30.5l-227 -461q-47 -104 -44 -151t44 -51q25 -4 66.5 13 t90.5 54t100.5 90.5t94.5 120.5l186 371q29 -2 76 3t86 11l-430 -858l-31 -55q59 45 125 102.5t127 119.5t114.5 129t88.5 130l49 -27q-53 -84 -132 -176t-164 -173t-166 -141t-134 -83q-76 -74 -165 -98.5t-185 32.5q-43 25 -64.5 55.5t-27 60.5zM401 926q33 23 77 60.5 t89 80.5t87 86t71 78q31 37 62.5 45t50 -6.5t19.5 -46t-28 -74.5q-47 -68 -105 -117t-118.5 -78.5t-114 -37t-90.5 9.5z" />
<glyph unicode="&#xfe;" horiz-adv-x="880" d="M-336 -317l748 1534q35 -2 83 9t89 21l-244 -499l-82 -107l4 -4l49 51q23 27 57.5 54.5t75.5 48t85 28.5t87 -2q49 -8 83 -47t42.5 -104.5t-15.5 -155.5t-91 -203q-35 -57 -78 -110q43 -12 89 -5t91 31.5t85 66.5t71 97l49 -29q-88 -145 -209 -197t-237 -28 q-117 -104 -252 -128.5t-248 36.5l-168 -340q-35 2 -78 -3t-86 -15zM20 92q35 -16 89.5 -19t120 22.5t137 87t139.5 173.5q94 158 99 258.5t-48 120.5q-35 14 -82 -2t-99 -60t-104.5 -112.5t-97.5 -159.5z" />
<glyph unicode="&#xff;" horiz-adv-x="831" d="M-144.5 -163q-5.5 30 4 51.5t25.5 27.5q39 16 68 -29t27 -120q31 -16 66.5 -18.5t72.5 14t73.5 56.5t69.5 107l129 264l60 80h-7q-94 -106 -192 -160.5t-166 -50.5q-96 4 -126 84t38 222l205 415q33 -2 80 8.5t94 30.5l-227 -461q-47 -104 -44 -151t44 -51q25 -4 66.5 13 t90.5 54t100.5 90.5t94.5 120.5l186 371q29 -2 76 3t86 11l-430 -858l-31 -55q59 45 125 102.5t127 119.5t114.5 129t88.5 130l49 -27q-53 -84 -132 -176t-164 -173t-166 -141t-134 -83q-76 -74 -165 -98.5t-185 32.5q-43 25 -64.5 55.5t-27 60.5zM339 1048.5 q-11 36.5 11 77.5q20 39 62.5 51.5t81.5 -3.5q39 -23 50 -60t-9 -74q-23 -41 -65 -55t-79 4q-41 23 -52 59.5zM640 1048.5q-11 36.5 13 77.5q20 39 62.5 51.5t79.5 -3.5q39 -23 50 -60t-9 -74q-20 -41 -63.5 -55t-80.5 4q-41 23 -52 59.5z" />
<glyph unicode="&#x152;" horiz-adv-x="1554" d="M77.5 207q-18.5 94 5 224t95.5 286q59 133 142 245.5t180.5 192.5t204 122t215.5 34q117 -8 178 -97q37 43 88 69t109.5 38t120 10t122.5 -16q63 -16 105.5 -52t61.5 -81t18 -95.5t-19 -95.5q-25 -59 -62.5 -89t-74.5 -36t-67 6.5t-40 34.5q37 23 65.5 55.5t45.5 79.5 q27 66 12.5 127.5t-74.5 85.5q-41 18 -89 18.5t-93 -19t-83 -57.5t-58 -93q-16 -45 -13 -93t27.5 -91t70.5 -79t118 -57l43 -45q-115 8 -223.5 -6t-199.5 -52t-159 -100.5t-102 -154.5q-23 -59 -17 -119.5t41 -110t97.5 -80t152.5 -32.5q53 -2 110.5 11.5t112.5 35t102.5 50 t77.5 59.5v-74q-31 -29 -78 -57.5t-103 -52t-119.5 -39t-127.5 -17.5q-106 -8 -192 20.5t-143 81.5q-90 -59 -177.5 -83.5t-165.5 -20.5q-100 6 -161.5 60.5t-80 148.5zM206 204.5q5 -71.5 35.5 -104.5t71.5 -39q47 -8 124 13.5t163 109.5q-29 57 -34 123t24 137 q33 90 96.5 155t142 107t165.5 61t167 19l82 -14v12l-106 35q-35 20 -60.5 53t-39 73t-14.5 83t13 84q-12 72 -49 103.5t-84 35.5q-35 2 -92 -14t-131 -73.5t-161 -169t-179 -302.5q-80 -178 -109.5 -297t-24.5 -190.5z" />
<glyph unicode="&#x153;" horiz-adv-x="1327" d="M-17 267q3 83 44 184q35 86 87 154.5t113.5 116.5t128 72.5t133.5 24.5q94 0 150.5 -42t79.5 -111q96 92 201.5 128.5t199.5 24.5q49 -6 82 -31.5t47.5 -64.5t8 -88t-34.5 -100q-39 -72 -100.5 -129.5t-137.5 -97.5t-159 -59.5t-164 -15.5q-2 -80 41.5 -125t121.5 -45 q55 0 124 18.5t139.5 58.5t137 101.5t113.5 145.5l50 -29q-43 -76 -109 -141t-143.5 -113.5t-166.5 -76t-179 -27.5q-94 0 -158 36t-92 97q-135 -135 -316 -135q-78 0 -134 32.5t-83.5 93t-24.5 143.5zM119 166q4 -51 26.5 -80t61.5 -29q86 0 174 93.5t162 263.5 q70 160 56.5 255t-89.5 95q-84 0 -169 -89t-157 -247q-37 -78 -53 -144.5t-12 -117.5zM668 279q61 2 121.5 23.5t116 58t103.5 89t85 115.5q49 84 40.5 137.5t-49.5 59.5q-27 6 -66.5 -9.5t-86.5 -53t-98.5 -99t-100.5 -147.5q-53 -94 -65 -174z" />
<glyph unicode="&#x178;" horiz-adv-x="901" d="M135 -31l262 555l64 13q-23 4 -43.5 8t-34.5 12q-41 27 -60.5 69t-22.5 93t7 107.5t31 111.5q14 45 38.5 90t51.5 84t54.5 67.5t52.5 45.5l43 12v8q-55 -4 -102.5 -11t-93.5 -27.5t-93 -58.5t-99 -99q-23 18 -30.5 45.5t-3.5 58.5t23.5 60.5t56.5 54.5q45 33 107.5 43 t124.5 4t115.5 -26.5t82.5 -47.5q-47 -66 -96.5 -145.5t-77.5 -155.5q-27 -63 -43.5 -122.5t-21.5 -107.5t4 -81t34 -41q33 -10 85 15.5t112.5 76.5t121 124t108.5 154.5t76.5 170t24.5 169.5q18 8 44 10.5t48.5 -7t38 -33t17.5 -66.5q0 -68 -43 -167t-116 -196.5t-169 -177 t-201 -110.5q-25 -10 -53 -12l-252 -539q-33 2 -83 -9t-89 -22zM619.5 1540.5q-11.5 36.5 11.5 77.5q20 39 62 51t81 -4q39 -23 50 -59.5t-9 -73.5q-23 -41 -64.5 -55.5t-78.5 4.5q-41 23 -52.5 59.5zM920.5 1540.5q-11.5 36.5 13.5 77.5q20 39 62 51t79 -4q39 -23 50 -59.5 t-9 -73.5q-20 -41 -63 -55.5t-80 4.5q-41 23 -52.5 59.5z" />
<glyph unicode="&#x2c6;" horiz-adv-x="718" d="M86 965l397 290h72l109 -301l-50 -26l-143 198l-354 -198z" />
<glyph unicode="&#x2dc;" horiz-adv-x="890" d="M96 1012q43 70 92.5 118t99.5 65t102 2t104 -71q47 -55 94 -54t82 24q41 27 80 80l49 -41q-117 -152 -218.5 -179.5t-197.5 80.5q-47 53 -92 50t-80 -29q-41 -31 -76 -86z" />
<glyph unicode="&#x2000;" horiz-adv-x="908" />
<glyph unicode="&#x2001;" horiz-adv-x="1817" />
<glyph unicode="&#x2002;" horiz-adv-x="908" />
<glyph unicode="&#x2003;" horiz-adv-x="1817" />
<glyph unicode="&#x2004;" horiz-adv-x="605" />
<glyph unicode="&#x2005;" horiz-adv-x="454" />
<glyph unicode="&#x2006;" horiz-adv-x="302" />
<glyph unicode="&#x2007;" horiz-adv-x="302" />
<glyph unicode="&#x2008;" horiz-adv-x="227" />
<glyph unicode="&#x2009;" horiz-adv-x="363" />
<glyph unicode="&#x200a;" horiz-adv-x="100" />
<glyph unicode="&#x2010;" horiz-adv-x="686" d="M115 360l47 101h401l-39 -101h-409z" />
<glyph unicode="&#x2011;" horiz-adv-x="686" d="M115 360l47 101h401l-39 -101h-409z" />
<glyph unicode="&#x2012;" horiz-adv-x="686" d="M115 360l47 101h401l-39 -101h-409z" />
<glyph unicode="&#x2013;" horiz-adv-x="995" d="M115 360l47 101h700l-39 -101h-708z" />
<glyph unicode="&#x2014;" horiz-adv-x="1302" d="M115 360l47 101h1014l-39 -101h-1022z" />
<glyph unicode="&#x2018;" horiz-adv-x="473" d="M187.5 773q-11.5 34 2.5 85q14 49 45 87t69 60.5t79 32t76 2.5q-27 -14 -55.5 -38.5t-38.5 -59.5q-6 -23 -6.5 -49.5t-0.5 -52t-5 -51.5t-25 -46q-23 -25 -52.5 -28.5t-53 10.5t-35 48z" />
<glyph unicode="&#x2019;" horiz-adv-x="460" d="M180 715q29 14 57.5 39.5t38.5 60.5q6 23 5.5 48.5t-0.5 51t6 50t26 47.5q23 25 52.5 30t53 -10.5t34 -48.5t-3.5 -84q-16 -51 -46 -88t-68 -60.5t-79 -32.5t-76 -3z" />
<glyph unicode="&#x201a;" horiz-adv-x="460" d="M-70 -104q27 14 56.5 39.5t40.5 60.5q6 23 5 48.5t-1 51t5 50t25 47.5q25 25 54.5 29.5t53.5 -10.5t34 -48t-4 -84q-16 -51 -46 -88t-68 -60.5t-79 -33t-76 -2.5z" />
<glyph unicode="&#x201c;" horiz-adv-x="688" d="M187.5 773q-11.5 34 2.5 85q14 49 45 87t69 60.5t79 32t76 2.5q-27 -14 -55.5 -38.5t-38.5 -59.5q-6 -23 -6.5 -49.5t-0.5 -52t-5 -51.5t-25 -46q-23 -25 -52.5 -28.5t-53 10.5t-35 48zM433 774q-11 33 3 84q14 49 45 87t69 61.5t79 32t76 1.5q-27 -14 -55.5 -38.5 t-39.5 -59.5q-6 -23 -6 -48.5v-51t-5.5 -51.5t-25.5 -46q-23 -25 -52 -29.5t-53 10.5t-35 48z" />
<glyph unicode="&#x201d;" horiz-adv-x="688" d="M180 715q29 14 57.5 39.5t38.5 60.5q6 23 5.5 48.5t-0.5 51t6 50t26 47.5q23 25 52.5 30t53 -10.5t34 -48.5t-3.5 -84q-16 -51 -46 -88t-68 -60.5t-79 -32.5t-76 -3zM426 717q27 14 56.5 38.5t39.5 59.5q6 23 5 48.5t-1 52t5.5 51t25.5 47.5q25 25 54.5 29t53 -11.5 t34 -48.5t-4.5 -84q-14 -51 -45 -88t-68.5 -60.5t-78.5 -31.5t-76 -2z" />
<glyph unicode="&#x201e;" horiz-adv-x="688" d="M-96 -104q29 14 57.5 39.5t38.5 60.5q6 23 5 48.5t-1 51t6.5 50t26.5 47.5q23 25 52.5 29.5t53 -10.5t33.5 -48t-4 -84q-16 -51 -46 -88t-68 -60.5t-78.5 -33t-75.5 -2.5zM150 -102q27 14 56.5 38.5t39.5 59.5q6 23 5 48.5t-1 52t5.5 51t25.5 47.5q25 25 54.5 28.5 t53 -11.5t33.5 -48t-4 -84t-45 -88t-69 -60.5t-79 -32t-75 -1.5z" />
<glyph unicode="&#x2022;" horiz-adv-x="1015" d="M397 550q-18 62 19 130q16 33 43.5 54.5t60.5 31.5t68 7t65 -17q63 -35 82 -96.5t-14 -120.5q-18 -35 -46 -57.5t-59.5 -35t-66.5 -11.5t-66 18q-68 35 -86 97z" />
</font>
</defs>
</svg>
